<svg width="328" height="184" viewBox="0 0 328 184" fill="none" xmlns="http://www.w3.org/2000/svg">
<g clip-path="url(#clip0_1194_253080)">
<rect width="328" height="184" fill="#00AAFF"/>
<path opacity="0.1" d="M214.667 -38.9999L129 46.6668L152.503 70.1699L238.17 -15.4967L214.667 -38.9999Z" fill="url(#paint0_linear_1194_253080)"/>
<path opacity="0.1" d="M-1.22524 138.582L58.5117 78.845L43.6669 64.0001L-16.0701 123.737L-1.22524 138.582Z" fill="url(#paint1_linear_1194_253080)"/>
<path opacity="0.2" d="M299.864 -44.2043L56.7607 198.899L136.213 278.351L379.316 35.2475L299.864 -44.2043Z" fill="url(#paint2_linear_1194_253080)"/>
<path opacity="0.1" d="M397.596 -34.5065L154.493 208.597L204.705 258.809L447.808 15.7053L397.596 -34.5065Z" fill="url(#paint3_linear_1194_253080)"/>
<g filter="url(#filter0_f_1194_253080)">
<path d="M219.793 32.1825L219.808 27.2949C219.808 27.2948 219.808 27.2947 219.808 27.2945C219.81 26.9642 219.987 26.6595 220.274 26.4937L224.533 24.0348C224.82 23.8691 225.173 23.8677 225.46 24.0311C225.46 24.0312 225.46 24.0312 225.46 24.0313L229.701 26.4623L229.701 26.4626C229.987 26.6256 230.161 26.9266 230.159 27.2559L230.159 27.2566L230.144 32.1442C230.144 32.1443 230.144 32.1444 230.144 32.1444C230.142 32.4748 229.965 32.7796 229.678 32.9453L225.419 35.4043C225.132 35.57 224.779 35.5714 224.492 35.408C224.492 35.4079 224.492 35.4079 224.492 35.4078L220.251 32.9768L220.251 32.9765C219.965 32.8134 219.791 32.5125 219.793 32.1832L219.793 32.1825Z" stroke="#EAF8FF" stroke-width="0.5"/>
</g>
<path d="M256 38L278 16" stroke="#EAF8FF" stroke-linecap="round"/>
<path d="M286 7L308 -15" stroke="#EAF8FF" stroke-linecap="round"/>
<circle cx="282" cy="12" r="2.5" stroke="#EAF8FF"/>
<path d="M7 185L43 149" stroke="#EAF8FF" stroke-linecap="round"/>
<path d="M-4 175L65.5 105.5" stroke="#0091DA" stroke-opacity="0.1" stroke-linecap="round"/>
<path d="M203 186L225 164" stroke="#EAF8FF" stroke-linecap="round"/>
<path d="M233 155L255 133" stroke="#EAF8FF" stroke-linecap="round"/>
<circle cx="229" cy="160" r="2.5" stroke="#EAF8FF"/>
<circle cx="102" cy="44" r="3.5" stroke="#EAF8FF"/>
<path d="M108.5 44H128.5L136 51.5" stroke="#EAF8FF"/>
<circle cx="223" cy="141.5" r="3.5" transform="rotate(-180 223 141.5)" stroke="#EAF8FF"/>
<path d="M216.5 141.5L196.5 141.5L189 134" stroke="#EAF8FF"/>
<circle cx="4" cy="4" r="3.5" transform="matrix(1 0 0 -1 78 89.5)" stroke="#EAF8FF"/>
<path d="M74.5 74H94.5L106 85.5" stroke="#EAF8FF"/>
<path d="M88.5 85.5H116" stroke="#EAF8FF"/>
<line x1="61.625" y1="114" x2="61.625" y2="144" stroke="#EAF8FF" stroke-width="1.25"/>
<line x1="66.625" y1="117.75" x2="66.625" y2="144" stroke="#EAF8FF" stroke-width="1.25"/>
<line x1="71.625" y1="116.5" x2="71.625" y2="144" stroke="#EAF8FF" stroke-width="1.25"/>
<line x1="76.625" y1="110.25" x2="76.625" y2="144" stroke="#EAF8FF" stroke-width="1.25"/>
<line x1="81.625" y1="112.75" x2="81.625" y2="144" stroke="#EAF8FF" stroke-width="1.25"/>
<line x1="86.625" y1="111.5" x2="86.625" y2="144" stroke="#EAF8FF" stroke-width="1.25"/>
<line x1="91.625" y1="109" x2="91.625" y2="144" stroke="#EAF8FF" stroke-width="1.25"/>
<line x1="96.625" y1="120.25" x2="96.625" y2="144" stroke="#EAF8FF" stroke-width="1.25"/>
<line x1="101.625" y1="116.5" x2="101.625" y2="144" stroke="#EAF8FF" stroke-width="1.25"/>
<line x1="106.625" y1="121.5" x2="106.625" y2="144" stroke="#EAF8FF" stroke-width="1.25"/>
<line x1="111.625" y1="119" x2="111.625" y2="144" stroke="#EAF8FF" stroke-width="1.25"/>
<line x1="116.625" y1="121.5" x2="116.625" y2="144" stroke="#EAF8FF" stroke-width="1.25"/>
<line x1="121.625" y1="115.25" x2="121.625" y2="144" stroke="#EAF8FF" stroke-width="1.25"/>
<line x1="126.625" y1="117.75" x2="126.625" y2="144" stroke="#EAF8FF" stroke-width="1.25"/>
<line x1="131.625" y1="117.75" x2="131.625" y2="144" stroke="#EAF8FF" stroke-width="1.25"/>
<line x1="136.625" y1="111.5" x2="136.625" y2="144" stroke="#EAF8FF" stroke-width="1.25"/>
<line x1="141.625" y1="111.5" x2="141.625" y2="144" stroke="#EAF8FF" stroke-width="1.25"/>
<line x1="146.625" y1="132" x2="146.625" y2="144" stroke="#EAF8FF" stroke-width="1.25"/>
<circle cx="234" cy="98" r="15.5" stroke="#EAF8FF"/>
<path d="M234 82V98M234 98L245 109M234 98L238 113" stroke="#EAF8FF"/>
<line x1="198" y1="39.5" x2="224" y2="39.5" stroke="#EAF8FF"/>
<line x1="198" y1="47.5" x2="214" y2="47.5" stroke="#EAF8FF"/>
<line x1="198" y1="55.5" x2="224" y2="55.5" stroke="#EAF8FF"/>
<path opacity="0.1" d="M-1.5 7.5H12V40.2676C8.81992 38.9569 5.55159 36.669 3.0257 33.7831C0.320418 30.6923 -1.5 26.9556 -1.5 23.0377V7.5ZM13 40.2676V7.5H26.5V23.0377C26.5 26.9556 24.6796 30.6923 21.9743 33.7831C19.4484 36.669 16.1801 38.9569 13 40.2676Z" stroke="#EAF8FF"/>
<circle cx="164" cy="92" r="40" fill="#1D428A"/>
<path d="M196 92C196 109.673 181.673 124 164 124C146.327 124 132 109.673 132 92C132 74.3269 146.327 60 164 60C181.673 60 196 74.3269 196 92Z" fill="#0091DA"/>
<path fill-rule="evenodd" clip-rule="evenodd" d="M142.09 118C148.007 122.992 155.652 126 164 126C172.348 126 179.993 122.992 185.91 118H142.09Z" fill="#1D428A"/>
<circle cx="164" cy="118" r="7" fill="#EAF8FF" stroke="#0091DA" stroke-width="2"/>
<path d="M178.33 93.2265L171.249 110.398L167 107.945L178.33 93.2265Z" fill="#EAF8FF"/>
<path fill-rule="evenodd" clip-rule="evenodd" d="M147.988 108.512C143.678 104.331 141 98.4784 141 92C141 79.2975 151.297 69 164 69C165.872 69 167.692 69.2237 169.434 69.6458L169.211 70.6208C167.54 70.215 165.795 70 164 70C151.85 70 142 79.8497 142 92C142 98.2023 144.567 103.805 148.696 107.804L147.988 108.512ZM180.512 75.9885C178.568 73.9849 176.264 72.334 173.703 71.1407L173.321 72.0661C175.759 73.2083 177.953 74.7846 179.804 76.6956L180.512 75.9885Z" fill="#EAF8FF"/>
</g>
<defs>
<filter id="filter0_f_1194_253080" x="217.543" y="21.6595" width="14.8665" height="16.12" filterUnits="userSpaceOnUse" color-interpolation-filters="sRGB">
<feFlood flood-opacity="0" result="BackgroundImageFix"/>
<feBlend mode="normal" in="SourceGraphic" in2="BackgroundImageFix" result="shape"/>
<feGaussianBlur stdDeviation="1" result="effect1_foregroundBlur_1194_253080"/>
</filter>
<linearGradient id="paint0_linear_1194_253080" x1="148.343" y1="41.4066" x2="214.82" y2="7.30616" gradientUnits="userSpaceOnUse">
<stop stop-color="#1C282E" stop-opacity="0"/>
<stop offset="1" stop-color="#1C282E"/>
</linearGradient>
<linearGradient id="paint1_linear_1194_253080" x1="51.9704" y1="76.4914" x2="-18.6538" y2="110.079" gradientUnits="userSpaceOnUse">
<stop stop-color="#1C282E" stop-opacity="0"/>
<stop offset="1" stop-color="#1C282E"/>
</linearGradient>
<linearGradient id="paint2_linear_1194_253080" x1="218.18" y1="0.551273" x2="212.78" y2="188.772" gradientUnits="userSpaceOnUse">
<stop stop-color="#1C282E" stop-opacity="0"/>
<stop offset="1" stop-color="#0091DA"/>
</linearGradient>
<linearGradient id="paint3_linear_1194_253080" x1="336.921" y1="14.2568" x2="364.93" y2="155.67" gradientUnits="userSpaceOnUse">
<stop stop-color="#1C282E" stop-opacity="0"/>
<stop offset="1" stop-color="#1C282E"/>
</linearGradient>
<clipPath id="clip0_1194_253080">
<rect width="328" height="184" fill="white"/>
</clipPath>
</defs>
</svg>
