<?xml version="1.0" encoding="UTF-8" standalone="no"?>
<svg
   width="328"
   height="184"
   viewBox="0 0 328 184"
   fill="none"
   version="1.1"
   id="svg209"
   sodipodi:docname="course-thumbnail-bosh-fundamentals-fixed.svg"
   xml:space="preserve"
   inkscape:version="1.2.1 (9c6d41e, 2022-07-14)"
   xmlns:inkscape="http://www.inkscape.org/namespaces/inkscape"
   xmlns:sodipodi="http://sodipodi.sourceforge.net/DTD/sodipodi-0.dtd"
   xmlns="http://www.w3.org/2000/svg"
   xmlns:svg="http://www.w3.org/2000/svg"><sodipodi:namedview
     id="namedview211"
     pagecolor="#ffffff"
     bordercolor="#666666"
     borderopacity="1.0"
     inkscape:showpageshadow="2"
     inkscape:pageopacity="0.0"
     inkscape:pagecheckerboard="0"
     inkscape:deskcolor="#d1d1d1"
     showgrid="false"
     inkscape:zoom="2.2292888"
     inkscape:cx="175.39226"
     inkscape:cy="85.228975"
     inkscape:window-width="1503"
     inkscape:window-height="840"
     inkscape:window-x="0"
     inkscape:window-y="288"
     inkscape:window-maximized="0"
     inkscape:current-layer="svg209" /><defs
     id="defs207"><linearGradient
       id="paint0_linear_1194_252603"
       x1="148.343"
       y1="41.4066"
       x2="214.82"
       y2="7.30615"
       gradientUnits="userSpaceOnUse"><stop
         stop-color="#0091DA"
         stop-opacity="0"
         id="stop184" /><stop
         offset="1"
         stop-color="#0091DA"
         id="stop186" /></linearGradient><linearGradient
       id="paint1_linear_1194_252603"
       x1="51.9704"
       y1="76.4914"
       x2="-18.6538"
       y2="110.079"
       gradientUnits="userSpaceOnUse"><stop
         stop-color="#0091DA"
         stop-opacity="0"
         id="stop189" /><stop
         offset="1"
         stop-color="#0091DA"
         id="stop191" /></linearGradient><linearGradient
       id="paint2_linear_1194_252603"
       x1="218.18"
       y1="0.551273"
       x2="212.78"
       y2="188.772"
       gradientUnits="userSpaceOnUse"><stop
         stop-color="#0091DA"
         stop-opacity="0"
         id="stop194" /><stop
         offset="1"
         stop-color="#0091DA"
         id="stop196" /></linearGradient><linearGradient
       id="paint3_linear_1194_252603"
       x1="336.921"
       y1="14.2568"
       x2="364.93"
       y2="155.67"
       gradientUnits="userSpaceOnUse"><stop
         stop-color="#0091DA"
         stop-opacity="0"
         id="stop199" /><stop
         offset="1"
         stop-color="#0091DA"
         id="stop201" /></linearGradient><clipPath
       clipPathUnits="userSpaceOnUse"
       id="clipPath535"><g
         id="g539"><rect
           width="328"
           height="184"
           fill="#ffffff"
           id="rect537"
           x="0"
           y="0" /></g></clipPath><clipPath
       clipPathUnits="userSpaceOnUse"
       id="clipPath589"><g
         id="g593"><rect
           width="328"
           height="184"
           fill="#ffffff"
           id="rect591"
           x="0"
           y="0" /></g></clipPath><clipPath
       clipPathUnits="userSpaceOnUse"
       id="clipPath595"><g
         id="g599"><rect
           width="328"
           height="184"
           fill="#ffffff"
           id="rect597"
           x="0"
           y="0" /></g></clipPath><clipPath
       clipPathUnits="userSpaceOnUse"
       id="clipPath601"><g
         id="g605"><rect
           width="328"
           height="184"
           fill="#ffffff"
           id="rect603"
           x="0"
           y="0" /></g></clipPath><clipPath
       clipPathUnits="userSpaceOnUse"
       id="clipPath607"><g
         id="g611"><rect
           width="328"
           height="184"
           fill="#ffffff"
           id="rect609"
           x="0"
           y="0" /></g></clipPath><clipPath
       clipPathUnits="userSpaceOnUse"
       id="clipPath613"><g
         id="g617"><rect
           width="328"
           height="184"
           fill="#ffffff"
           id="rect615"
           x="0"
           y="0" /></g></clipPath><clipPath
       clipPathUnits="userSpaceOnUse"
       id="clipPath619"><g
         id="g623"><rect
           width="328"
           height="184"
           fill="#ffffff"
           id="rect621"
           x="0"
           y="0" /></g></clipPath><clipPath
       clipPathUnits="userSpaceOnUse"
       id="clipPath625"><g
         id="g629"><rect
           width="328"
           height="184"
           fill="#ffffff"
           id="rect627"
           x="0"
           y="0" /></g></clipPath><clipPath
       clipPathUnits="userSpaceOnUse"
       id="clipPath631"><g
         id="g635"><rect
           width="328"
           height="184"
           fill="#ffffff"
           id="rect633"
           x="0"
           y="0" /></g></clipPath><clipPath
       clipPathUnits="userSpaceOnUse"
       id="clipPath637"><g
         id="g641"><rect
           width="328"
           height="184"
           fill="#ffffff"
           id="rect639"
           x="0"
           y="0" /></g></clipPath><clipPath
       clipPathUnits="userSpaceOnUse"
       id="clipPath643"><g
         id="g647"><rect
           width="328"
           height="184"
           fill="#ffffff"
           id="rect645"
           x="0"
           y="0" /></g></clipPath><clipPath
       clipPathUnits="userSpaceOnUse"
       id="clipPath649"><g
         id="g653"><rect
           width="328"
           height="184"
           fill="#ffffff"
           id="rect651"
           x="0"
           y="0" /></g></clipPath><clipPath
       clipPathUnits="userSpaceOnUse"
       id="clipPath655"><g
         id="g659"><rect
           width="328"
           height="184"
           fill="#ffffff"
           id="rect657"
           x="0"
           y="0" /></g></clipPath><clipPath
       clipPathUnits="userSpaceOnUse"
       id="clipPath661"><g
         id="g665"><rect
           width="328"
           height="184"
           fill="#ffffff"
           id="rect663"
           x="0"
           y="0" /></g></clipPath><clipPath
       clipPathUnits="userSpaceOnUse"
       id="clipPath1520"><rect
         width="328"
         height="184"
         fill="#ffffff"
         id="rect1522"
         x="5.3828826"
         y="1.7942942" /></clipPath><clipPath
       clipPathUnits="userSpaceOnUse"
       id="clipPath1524"><rect
         width="328"
         height="184"
         fill="#ffffff"
         id="rect1526"
         x="0"
         y="0" /></clipPath><clipPath
       clipPathUnits="userSpaceOnUse"
       id="clipPath1528"><rect
         width="328"
         height="184"
         fill="#ffffff"
         id="rect1530"
         x="0"
         y="0" /></clipPath><clipPath
       clipPathUnits="userSpaceOnUse"
       id="clipPath1532"><rect
         width="328"
         height="184"
         fill="#ffffff"
         id="rect1534"
         x="0"
         y="0" /></clipPath><clipPath
       clipPathUnits="userSpaceOnUse"
       id="clipPath1536"><rect
         width="328"
         height="184"
         fill="#ffffff"
         id="rect1538"
         x="0"
         y="0" /></clipPath><clipPath
       clipPathUnits="userSpaceOnUse"
       id="clipPath1540"><rect
         width="328"
         height="184"
         fill="#ffffff"
         id="rect1542"
         x="0"
         y="0" /></clipPath><clipPath
       clipPathUnits="userSpaceOnUse"
       id="clipPath1544"><rect
         width="328"
         height="184"
         fill="#ffffff"
         id="rect1546"
         x="0"
         y="0" /></clipPath><clipPath
       clipPathUnits="userSpaceOnUse"
       id="clipPath1548"><rect
         width="328"
         height="184"
         fill="#ffffff"
         id="rect1550"
         x="0"
         y="0" /></clipPath><clipPath
       clipPathUnits="userSpaceOnUse"
       id="clipPath1552"><rect
         width="328"
         height="184"
         fill="#ffffff"
         id="rect1554"
         x="0"
         y="0" /></clipPath><clipPath
       clipPathUnits="userSpaceOnUse"
       id="clipPath1556"><rect
         width="328"
         height="184"
         fill="#ffffff"
         id="rect1558"
         x="0"
         y="0" /></clipPath><clipPath
       clipPathUnits="userSpaceOnUse"
       id="clipPath1560"><rect
         width="328"
         height="184"
         fill="#ffffff"
         id="rect1562"
         x="0"
         y="0" /></clipPath><clipPath
       clipPathUnits="userSpaceOnUse"
       id="clipPath1564"><rect
         width="328"
         height="184"
         fill="#ffffff"
         id="rect1566"
         x="0"
         y="0" /></clipPath><clipPath
       clipPathUnits="userSpaceOnUse"
       id="clipPath1568"><rect
         width="328"
         height="184"
         fill="#ffffff"
         id="rect1570"
         x="0"
         y="0" /></clipPath><clipPath
       clipPathUnits="userSpaceOnUse"
       id="clipPath1572"><rect
         width="328"
         height="184"
         fill="#ffffff"
         id="rect1574"
         x="0"
         y="0" /></clipPath></defs><path
     opacity="0.1"
     d="M 214.667,-38.9999 129,46.6667 152.503,70.1699 238.17,-15.4968 Z"
     fill="url(#paint0_linear_1194_252603)"
     id="path134"
     style="fill:url(#paint0_linear_1194_252603)"
     clip-path="url(#clipPath1572)" /><path
     opacity="0.1"
     d="M -1.22524,138.582 58.5117,78.845 43.6669,64.0001 -16.0701,123.737 Z"
     fill="url(#paint1_linear_1194_252603)"
     id="path136"
     style="fill:url(#paint1_linear_1194_252603)"
     clip-path="url(#clipPath1568)" /><path
     opacity="0.2"
     d="M 299.864,-44.2043 56.7607,198.899 136.213,278.351 379.316,35.2475 Z"
     fill="url(#paint2_linear_1194_252603)"
     id="path138"
     style="fill:url(#paint2_linear_1194_252603)"
     clip-path="url(#clipPath1564)" /><path
     opacity="0.1"
     d="M 397.596,-34.5066 154.493,208.597 204.705,258.809 447.808,15.7052 Z"
     fill="url(#paint3_linear_1194_252603)"
     id="path140"
     style="fill:url(#paint3_linear_1194_252603)"
     clip-path="url(#clipPath1560)" /><path
     d="M 256,38 278,16"
     stroke="#0091da"
     stroke-linecap="round"
     id="path142"
     clip-path="url(#clipPath1556)" /><path
     d="m 286,7 22,-22"
     stroke="#0091da"
     stroke-linecap="round"
     id="path144"
     clip-path="url(#clipPath1552)" /><circle
     cx="282"
     cy="12"
     r="2.5"
     stroke="#0091da"
     id="circle146"
     clip-path="url(#clipPath1548)" /><path
     d="M 7,185 43,149"
     stroke="#0091da"
     stroke-linecap="round"
     id="path148"
     clip-path="url(#clipPath1544)" /><path
     d="M -4,175 65.5,105.5"
     stroke="#0091da"
     stroke-opacity="0.1"
     stroke-linecap="round"
     id="path150"
     clip-path="url(#clipPath1540)" /><path
     d="m 203,186 22,-22"
     stroke="#0091da"
     stroke-linecap="round"
     id="path152"
     clip-path="url(#clipPath1536)" /><path
     d="m 233,155 22,-22"
     stroke="#0091da"
     stroke-linecap="round"
     id="path154"
     clip-path="url(#clipPath1532)" /><circle
     cx="229"
     cy="160"
     r="2.5"
     stroke="#0091da"
     id="circle156"
     clip-path="url(#clipPath1528)" /><path
     d="m 144.5,127 -28,28"
     stroke="#0091da"
     id="path174"
     clip-path="url(#clipPath1524)" /><g
     id="g594"
     transform="translate(-5.3828826,-1.7942942)"
     clip-path="url(#clipPath1520)"><path
       style="fill:#06bce6;stroke-width:0.166066"
       d="m 168.79138,97.960273 c -0.12824,-0.205506 -0.27889,-0.846531 -0.33477,-1.424498 -0.0559,-0.57797 -0.2203,-1.51209 -0.3654,-2.075824 -0.14509,-0.563736 -0.55507,-1.648482 -0.91106,-2.410548 -0.35599,-0.762067 -0.98326,-1.856449 -1.39394,-2.431962 -0.41068,-0.575514 -1.23008,-1.521329 -1.82089,-2.10181 -0.59081,-0.580482 -1.71761,-1.459138 -2.50401,-1.95257 -0.83345,-0.522962 -2.1014,-1.125543 -3.04003,-1.444747 -0.88563,-0.30118 -2.27933,-0.635121 -3.09712,-0.742089 -0.86997,-0.113793 -2.06298,-0.147745 -2.87535,-0.08183 -0.76364,0.06196 -1.96278,0.258586 -2.66475,0.436944 -0.70197,0.178358 -1.90616,0.625399 -2.67597,0.993424 -0.76982,0.368027 -1.85927,0.997103 -2.421,1.39795 -0.56174,0.400845 -1.57594,1.319835 -2.25379,2.0422 -0.67784,0.722364 -1.55966,1.88811 -1.95959,2.590544 -0.39994,0.702436 -0.93824,1.891605 -1.19623,2.642602 -0.25799,0.750995 -0.56815,1.963283 -0.68923,2.693973 -0.20715,1.250021 -0.24483,1.328527 -0.63769,1.328527 -0.27027,0 -1.479,-0.761464 -3.42692,-2.158857 -1.65516,-1.187371 -3.09127,-2.332271 -3.19136,-2.544221 -0.14724,-0.311814 -0.0876,-0.666889 0.31222,-1.86042 0.2718,-0.81128 0.80523,-2.095096 1.18539,-2.852921 0.38017,-0.757827 1.14875,-2.048574 1.70797,-2.86833 0.55921,-0.819755 1.72779,-2.202253 2.59682,-3.07222 0.86904,-0.869964 2.17989,-2.007638 2.913,-2.528162 0.73312,-0.520525 1.9658,-1.283073 2.7393,-1.694553 0.7735,-0.41148 2.30238,-1.045143 3.39751,-1.40814 1.09512,-0.362996 2.7646,-0.786939 3.70994,-0.942096 1.33673,-0.219391 2.31501,-0.261649 4.40075,-0.190092 1.79459,0.06157 3.14897,0.200867 4.0935,0.421018 0.77636,0.180954 1.8973,0.494204 2.49099,0.696113 0.59368,0.201908 1.71045,0.659103 2.48171,1.015988 0.77125,0.356886 2.15375,1.148862 3.07221,1.759948 0.99977,0.665179 2.34177,1.779742 3.344,2.77727 0.92074,0.916413 2.06599,2.226677 2.54502,2.911699 0.47902,0.685021 1.19428,1.843331 1.58947,2.574021 0.39519,0.73069 0.98284,2.041698 1.30588,2.913349 0.32305,0.871652 0.73776,2.32888 0.92159,3.238286 0.18382,0.909405 0.38422,2.218273 0.44532,2.908596 0.0935,1.055975 0.0665,1.299715 -0.16988,1.53611 -0.24643,0.246423 -0.71812,0.280976 -3.83571,0.280976 -3.50659,0 -3.55788,-0.0051 -3.7879,-0.373648 z M 114.83836,68.427538 c -0.43359,-0.06813 -1.03271,-0.2749 -1.33136,-0.459481 -0.29866,-0.184581 -0.70624,-0.509338 -0.90572,-0.721683 -0.19949,-0.212344 -0.52955,-0.758798 -0.73347,-1.214341 -0.26067,-0.582308 -0.37077,-1.148799 -0.37077,-1.907689 0,-0.758891 0.1101,-1.325382 0.37077,-1.90769 0.20392,-0.455543 0.53525,-1.004606 0.7363,-1.220139 0.20104,-0.215533 0.66446,-0.55185 1.0298,-0.747372 0.52937,-0.283302 0.95092,-0.355495 2.07582,-0.355495 1.13721,0 1.54562,0.0713 2.10128,0.366836 0.37935,0.20176 0.91345,0.63826 1.1869,0.970001 0.27345,0.331741 0.62474,1.057782 0.78064,1.613426 0.18961,0.67574 0.24878,1.271747 0.17871,1.799953 -0.0576,0.434331 -0.21655,1.057256 -0.35319,1.384279 -0.13664,0.327023 -0.51304,0.887475 -0.83645,1.245449 -0.32341,0.357974 -0.90086,0.761991 -1.28324,0.897816 -0.38237,0.135825 -0.95677,0.276892 -1.27645,0.313482 -0.31967,0.03659 -0.93598,0.01078 -1.36957,-0.05735 z m 2.974,-1.246383 c 0.3506,-0.281864 0.8112,-0.823386 1.02354,-1.203383 0.28648,-0.512688 0.38762,-0.959345 0.39207,-1.731591 0.004,-0.606825 -0.10883,-1.315532 -0.26945,-1.699941 -0.1515,-0.36259 -0.44003,-0.838273 -0.64117,-1.057075 -0.20115,-0.218802 -0.66464,-0.535782 -1.02999,-0.7044 -0.37472,-0.172942 -1.04662,-0.308167 -1.54144,-0.310224 -0.48245,-0.002 -1.154,0.112014 -1.49233,0.253377 -0.33833,0.141364 -0.79417,0.4216 -1.01297,0.622748 -0.2188,0.201147 -0.53578,0.664641 -0.7044,1.029986 -0.19848,0.43006 -0.30658,1.044843 -0.30658,1.743692 0,0.698848 0.1081,1.313631 0.30658,1.743692 0.16862,0.365345 0.48458,0.823318 0.70213,1.017719 0.21756,0.1944 0.61975,0.475596 0.89376,0.624879 0.36432,0.198488 0.84008,0.259544 1.77049,0.227213 1.13949,-0.0396 1.33883,-0.0977 1.90976,-0.556692 z m 36.83983,1.272462 c -0.274,-0.06628 -0.78102,-0.255199 -1.1267,-0.419821 -0.34568,-0.164622 -0.84048,-0.556473 -1.09956,-0.87078 -0.25908,-0.314308 -0.59277,-0.948347 -0.74154,-1.408976 -0.14876,-0.460629 -0.27048,-1.156627 -0.27048,-1.546663 0,-0.390036 0.12172,-1.086035 0.27048,-1.546664 0.14877,-0.460629 0.49844,-1.114053 0.77705,-1.452053 0.27861,-0.338 0.8855,-0.791 1.34866,-1.006666 0.5918,-0.275571 1.1418,-0.392602 1.85042,-0.393742 0.55458,-8.92e-4 1.35705,0.117198 1.78326,0.262422 0.52455,0.178731 1.00924,0.524661 1.50014,1.070652 0.4363,0.485278 0.80977,1.108633 0.93748,1.564762 0.1248,0.445764 0.17917,1.219173 0.13195,1.877019 -0.0482,0.672111 -0.22094,1.39426 -0.43251,1.80858 -0.19371,0.379344 -0.6346,0.923281 -0.97976,1.208748 -0.34516,0.285467 -0.9961,0.628979 -1.44652,0.763359 -0.45043,0.134381 -1.08563,0.23668 -1.41156,0.227331 -0.32594,-0.0094 -0.8168,-0.07123 -1.09081,-0.137508 z m 2.63135,-1.815578 c 0.25986,-0.149493 0.6223,-0.563713 0.80542,-0.920489 0.22095,-0.430507 0.33293,-0.974323 0.33293,-1.616882 0,-0.651666 -0.10338,-1.145203 -0.3162,-1.50961 -0.17391,-0.297775 -0.56608,-0.709805 -0.87149,-0.915622 -0.39644,-0.267156 -0.79844,-0.374213 -1.40518,-0.374213 -0.51064,0 -1.07919,0.122982 -1.42438,0.308108 -0.33881,0.181709 -0.72948,0.601187 -0.95229,1.022515 -0.24565,0.464548 -0.37778,1.001417 -0.37778,1.535036 0,0.451346 0.11738,1.068 0.26085,1.370343 0.14347,0.302343 0.40008,0.675708 0.57024,0.8297 0.17016,0.153993 0.59457,0.383424 0.94312,0.509848 0.3786,0.137321 0.90117,0.190248 1.29801,0.131467 0.36534,-0.05412 0.87688,-0.220708 1.13675,-0.370201 z m 7.86267,1.732998 c -0.47057,-0.126515 -1.04132,-0.44584 -1.38985,-0.777605 -0.32525,-0.309614 -0.70841,-0.824489 -0.85146,-1.144166 -0.19359,-0.432638 -0.27817,-1.334807 -0.33085,-3.5289 l -0.0708,-2.94767 h 0.83513 0.83513 l 0.0552,2.864637 c 0.0516,2.676457 0.0803,2.899818 0.43724,3.400199 0.25023,0.350822 0.61107,0.597245 1.04607,0.71438 0.36525,0.09835 0.82855,0.132885 1.02957,0.07675 0.20101,-0.05614 0.54,-0.188142 0.75329,-0.293342 0.2133,-0.1052 0.49354,-0.395711 0.62275,-0.64558 0.17558,-0.339536 0.23493,-1.169592 0.23493,-3.285674 v -2.831367 h 0.83033 0.83033 l -9.9e-4,2.781604 c -5e-4,1.529882 -0.0802,3.067129 -0.17712,3.416105 -0.0969,0.348976 -0.44108,0.927703 -0.76484,1.286061 -0.40623,0.44965 -0.84957,0.729047 -1.43065,0.901609 -0.4631,0.137526 -1.03395,0.245004 -1.26854,0.23884 -0.2346,-0.0062 -0.78585,-0.10781 -1.22501,-0.225878 z M 96.563486,68.187476 c -0.346442,-0.127149 -0.850579,-0.38832 -1.120305,-0.580381 -0.269725,-0.192062 -0.6879,-0.686195 -0.929277,-1.098074 -0.319549,-0.54527 -0.461198,-1.060974 -0.521003,-1.896824 -0.04995,-0.698093 0.0036,-1.454292 0.13673,-1.929666 0.145801,-0.520748 0.471974,-1.042695 0.977044,-1.563478 0.560003,-0.577424 0.993943,-0.851117 1.660165,-1.047094 0.496093,-0.145931 1.136414,-0.265329 1.422936,-0.265329 0.286522,0 0.889478,0.110892 1.339903,0.246427 0.450425,0.135535 1.043141,0.428876 1.317151,0.651869 0.36027,0.293196 0.44836,0.456408 0.31819,0.589538 -0.13122,0.134209 -0.43955,0.04756 -1.13781,-0.319737 -0.716049,-0.376666 -1.179287,-0.503833 -1.835334,-0.503833 -0.637301,0 -1.119843,0.126582 -1.762642,0.462384 -0.716523,0.374316 -0.973174,0.630968 -1.347491,1.347491 -0.34749,0.665173 -0.461981,1.117664 -0.460762,1.821022 0.0011,0.633903 0.128867,1.209187 0.395945,1.782768 0.216878,0.465768 0.608479,0.996128 0.870224,1.178577 0.261745,0.182449 0.729924,0.417885 1.040396,0.523192 0.310472,0.105306 0.916461,0.191466 1.346642,0.191466 0.528351,0 1.084369,-0.152445 1.713537,-0.469804 0.520935,-0.262766 1.020535,-0.41471 1.133665,-0.344788 0.15549,0.09609 0.14713,0.191681 -0.0361,0.413197 -0.13113,0.158501 -0.61206,0.462385 -1.06875,0.675298 -0.593046,0.276492 -1.11506,0.384235 -1.826721,0.377037 -0.548018,-0.0055 -1.279848,-0.11411 -1.62629,-0.241258 z m 7.300204,0.143871 c -0.0609,-0.06089 -0.11071,-1.966497 -0.11071,-4.234681 v -4.12397 h 0.41517 0.41516 v 3.819516 3.819516 h 2.32493 2.32492 v 0.415165 0.415164 h -2.62938 c -1.44616,0 -2.67919,-0.04982 -2.74009,-0.11071 z m 20.68743,-0.239708 c -0.38907,-0.192586 -0.8447,-0.547493 -1.01251,-0.788682 -0.16781,-0.241189 -0.39127,-0.692549 -0.49658,-1.003021 -0.11553,-0.340618 -0.19146,-1.707237 -0.19146,-3.445868 0,-2.730944 0.0166,-2.881372 0.31894,-2.881372 0.3009,0 0.32204,0.171475 0.37365,3.030703 0.0457,2.53396 0.10366,3.120367 0.35338,3.577761 0.16428,0.300882 0.53792,0.692933 0.83033,0.871225 0.34016,0.207403 0.83074,0.324167 1.36198,0.324167 0.54036,0 1.02219,-0.116971 1.3797,-0.334942 0.3172,-0.193387 0.68412,-0.631773 0.8682,-1.037291 0.27437,-0.6044 0.31934,-1.10185 0.32248,-3.566986 0.004,-2.752711 0.0166,-2.864637 0.33578,-2.864637 0.32013,0 0.332,0.109495 0.32848,3.030703 -0.003,2.584001 -0.0486,3.12861 -0.30868,3.694966 -0.16776,0.365345 -0.44909,0.792191 -0.62517,0.948546 -0.17608,0.156355 -0.59525,0.399226 -0.93149,0.539714 -0.33623,0.140488 -0.9687,0.255373 -1.40548,0.255301 -0.47316,-7.8e-5 -1.08007,-0.141659 -1.50155,-0.350287 z m 7.88976,0.256978 c -0.0685,-0.07039 -0.12455,-1.983767 -0.12455,-4.251951 v -4.12397 h 1.932 c 1.06261,0 2.2396,0.09134 2.61554,0.202986 0.40927,0.121538 0.98678,0.504909 1.4393,0.955438 0.52559,0.523294 0.82855,1.005157 0.99478,1.582223 0.13145,0.456373 0.23389,1.166053 0.22763,1.577067 -0.006,0.411013 -0.10796,1.0373 -0.22601,1.391749 -0.11804,0.35445 -0.48584,0.945577 -0.81733,1.313617 -0.33149,0.36804 -0.93899,0.82032 -1.35,1.005068 -0.56635,0.254567 -1.20973,0.352836 -2.65706,0.405829 -1.05036,0.03846 -1.9658,0.01233 -2.0343,-0.05806 z m 4.49039,-1.05286 c 0.33887,-0.173784 0.78071,-0.492405 0.98186,-0.708046 0.20114,-0.215642 0.48138,-0.668892 0.62274,-1.007223 0.14137,-0.338331 0.25539,-1.009878 0.25338,-1.492327 -0.002,-0.494824 -0.13728,-1.166727 -0.31022,-1.541444 -0.16862,-0.365345 -0.4856,-0.828838 -0.7044,-1.029986 -0.21881,-0.201147 -0.67464,-0.481383 -1.01297,-0.622747 -0.40116,-0.167613 -1.13693,-0.257025 -2.11508,-0.257025 h -1.49992 v 3.487385 3.487384 h 1.58424 c 1.23064,0 1.72176,-0.07053 2.20037,-0.315971 z m 6.34541,-3.079282 v -4.243779 h 3.07222 3.07222 v 0.747296 0.747297 h -2.24189 -2.24189 v 1.162461 1.162462 h 2.07582 2.07583 v 0.747296 0.747297 h -2.0696 -2.06959 l -0.0478,1.53611 -0.0478,1.536109 -0.78881,0.05062 -0.78881,0.05062 z m 29.83651,4.114872 c -0.0609,-0.06089 -0.11071,-1.966497 -0.11071,-4.234681 v -4.12397 h 0.70625 0.70625 l 1.99232,2.519891 1.99232,2.519892 0.0458,-2.519892 0.0458,-2.519891 h 0.82886 0.82886 l -0.0444,4.193164 -0.0444,4.193164 h -0.4931 c -0.41511,0 -0.65149,-0.198796 -1.49459,-1.256931 -0.55082,-0.691312 -1.54329,-1.955815 -2.20547,-2.810006 L 174.663,62.739012 v 2.851523 2.851522 h -0.71962 c -0.39579,0 -0.76944,-0.04982 -0.83033,-0.11071 z m 9.68718,-4.104735 v -4.253916 h 2.09807 c 1.15394,0 2.38278,0.0853 2.73075,0.189553 0.34796,0.104253 0.90807,0.416559 1.24466,0.694012 0.3366,0.277452 0.78845,0.883403 1.00412,1.346557 0.27674,0.594321 0.3926,1.141345 0.39374,1.85913 8.3e-4,0.559368 -0.11365,1.343751 -0.25454,1.743074 -0.14089,0.399322 -0.49585,0.978606 -0.78881,1.287298 -0.29296,0.308692 -0.86893,0.715961 -1.27995,0.905042 -0.6016,0.276759 -1.17628,0.35737 -2.94767,0.413474 l -2.20037,0.06969 z m 4.66273,2.195455 c 0.35164,-0.197631 0.75415,-0.601256 0.89446,-0.896943 0.14031,-0.295687 0.25512,-0.944963 0.25512,-1.442836 0,-0.664671 -0.10018,-1.055172 -0.37696,-1.469496 -0.20733,-0.31035 -0.63703,-0.694933 -0.95488,-0.85463 -0.37929,-0.190561 -0.96319,-0.290446 -1.69887,-0.290615 l -1.12094,-2.58e-4 v 2.657055 2.657054 h 1.18137 c 0.90348,0 1.33175,-0.08452 1.8207,-0.359331 z m 5.30122,-2.217019 v -4.255207 l 2.64552,0.05294 c 2.37643,0.04756 2.69313,0.08828 3.11373,0.400345 0.25752,0.191071 0.63637,0.594453 0.84187,0.896404 0.26707,0.392402 0.37358,0.79069 0.3734,1.396291 -1.5e-4,0.473827 -0.12824,1.103478 -0.29062,1.428519 -0.18558,0.37149 -0.54797,0.711247 -1.00424,0.941532 l -0.71389,0.360302 1.23774,1.383388 c 0.68076,0.760863 1.20311,1.439436 1.16077,1.507939 -0.0423,0.0685 -0.4649,0.12436 -0.93902,0.124125 l -0.86205,-4.31e-4 -1.21771,-1.411134 c -1.18255,-1.370378 -1.2387,-1.411128 -1.94456,-1.411128 h -0.72685 l -0.0482,1.370044 -0.0482,1.370043 -0.78881,0.05062 -0.78882,0.05062 z m 4.96479,-0.480091 c 0.23298,-0.210991 0.34848,-0.515188 0.34678,-0.913362 -10e-4,-0.328355 -0.0574,-0.679234 -0.12455,-0.779731 -0.0671,-0.100497 -0.28523,-0.268639 -0.48474,-0.373648 -0.1995,-0.10501 -0.96548,-0.190927 -1.70217,-0.190927 h -1.33945 v 1.345051 1.34505 l 1.4774,-0.05804 c 1.16463,-0.04575 1.55135,-0.125011 1.82673,-0.374393 z m 7.26874,4.60639 c -0.0609,-0.06089 -0.11071,-0.884891 -0.11071,-1.831111 v -1.720401 l -1.46432,-2.195987 c -0.80537,-1.207793 -1.51971,-2.289399 -1.58743,-2.40357 -0.0929,-0.156631 0.12019,-0.207582 0.86811,-0.207582 h 0.99123 l 1.02634,1.660659 c 0.56449,0.913362 1.04632,1.660659 1.07074,1.660659 0.0244,0 0.52149,-0.747297 1.10461,-1.660659 l 1.06021,-1.660659 h 0.95624 c 0.52594,0 0.95624,0.04521 0.95624,0.100467 0,0.05526 -0.74729,1.175647 -1.66066,2.489754 l -1.66065,2.389287 v 1.744927 1.744926 h -0.71962 c -0.39579,0 -0.76944,-0.04982 -0.83033,-0.11071 z"
       id="path541" /><path
       style="fill:#205fad;stroke-width:0.166066"
       d="m 245.44733,110.99782 -0.0401,-9.5059 -9.42424,-0.0443 -9.42424,-0.0443 9.42945,-0.0401 c 7.42028,-0.0316 9.44638,0.004 9.50888,0.16746 0.0437,0.11417 0.0594,4.42981 0.0349,9.59031 l -0.0445,9.38272 z m 15.40402,8.17737 c 0,-0.71546 0.0498,-1.25102 0.11072,-1.19013 0.0609,0.0609 0.0924,0.61473 0.0701,1.23074 -0.0223,0.616 -0.0722,1.15156 -0.11071,1.19013 -0.0386,0.0386 -0.0701,-0.51527 -0.0701,-1.23074 z m -0.99639,-1.79233 c 0,-0.22302 -0.23861,-0.2798 -1.37005,-0.32601 l -1.37004,-0.0559 1.37526,-0.0338 c 1.10778,-0.0272 1.39437,0.016 1.47358,0.22245 0.0541,0.14095 0.0517,0.30286 -0.005,0.35981 -0.057,0.057 -0.10355,-0.018 -0.10355,-0.16651 z m 0.70578,-0.39796 c 0.15984,-0.0418 0.42139,-0.0418 0.58123,0 0.15984,0.0418 0.0291,0.0759 -0.29062,0.0759 -0.31967,0 -0.45045,-0.0342 -0.29061,-0.0759 z m 2.65705,0 c 0.15984,-0.0418 0.4214,-0.0418 0.58123,0 0.15984,0.0418 0.0291,0.0759 -0.29061,0.0759 -0.31968,0 -0.45046,-0.0342 -0.29062,-0.0759 z m -156.75608,-4.82569 c 1.35281,-0.028 3.51997,-0.0279 4.81592,1.4e-4 1.29595,0.028 0.18912,0.0509 -2.45963,0.0508 -2.64876,-8e-5 -3.70908,-0.023 -2.35629,-0.051 z m 36.30783,-3.15555 -0.57229,-0.62275 0.62275,0.57229 c 0.34251,0.31476 0.62274,0.595 0.62274,0.62275 0,0.0277 -0.0227,0.0504 -0.0504,0.0504 -0.0277,0 -0.30799,-0.28023 -0.62275,-0.62274 z m 70.30459,-0.87185 c 0,-0.50235 0.0311,-0.70786 0.0692,-0.45668 0.038,0.25117 0.038,0.66219 0,0.91336 -0.0381,0.25118 -0.0692,0.0457 -0.0692,-0.45668 z m -55.09396,-3.50894 c -1.43421,-1.01656 -2.65204,-1.96396 -2.70629,-2.10534 -0.0622,-0.16221 0.0499,-0.35122 0.3041,-0.5123 0.22151,-0.1404 0.68521,-0.55298 1.03044,-0.91685 0.40367,-0.42546 0.72166,-0.98482 0.89096,-1.567182 0.16721,-0.575173 0.22627,-1.175483 0.16187,-1.645313 -0.0558,-0.40685 -0.30061,-1.105756 -0.54409,-1.553125 -0.24349,-0.447368 -0.70415,-1.012809 -1.02369,-1.256534 -0.31954,-0.243727 -0.84928,-0.539042 -1.1772,-0.656256 -0.32791,-0.117214 -0.92382,-0.216399 -1.32424,-0.220408 -0.40041,-0.004 -1.03562,0.08455 -1.41156,0.196808 -0.41718,0.124568 -1.01768,0.529002 -1.54108,1.037912 -0.67545,0.656763 -0.91656,1.038568 -1.13545,1.798077 -0.16661,0.578079 -0.35944,0.943876 -0.48148,0.913363 -0.11196,-0.028 -1.41169,-0.910291 -2.88828,-1.960657 -2.31243,-1.644933 -2.68519,-1.971158 -2.68808,-2.352527 -0.002,-0.259758 0.34266,-0.960103 0.83378,-1.694387 0.46042,-0.68839 1.26376,-1.631094 1.78521,-2.0949 0.52144,-0.463804 1.62064,-1.178958 2.44266,-1.589229 0.83981,-0.419144 2.04026,-0.860626 2.74009,-1.007708 0.85982,-0.180703 1.73881,-0.236243 2.83859,-0.179359 1.1687,0.06045 1.97021,0.212385 3.00874,0.570351 0.77861,0.268375 1.94594,0.840488 2.59407,1.271365 0.64813,0.430876 1.59873,1.246528 2.11244,1.812561 0.58983,0.649895 1.19811,1.579929 1.65065,2.523745 0.39415,0.822026 0.81243,1.905606 0.92952,2.407956 0.1171,0.502349 0.20872,1.660659 0.20362,2.574021 -0.006,1.009874 -0.12097,2.083666 -0.29426,2.740086 -0.15673,0.59369 -0.57616,1.6399 -0.93205,2.32492 -0.3559,0.68503 -0.99044,1.63783 -1.4101,2.11735 -0.41966,0.47951 -0.89762,0.87184 -1.06213,0.87184 -0.16452,0 -1.47256,-0.83173 -2.90676,-1.84828 z m 22.87908,1.05977 c 1.3528,-0.028 3.51996,-0.0279 4.81591,1.4e-4 1.29596,0.028 0.18912,0.0509 -2.45963,0.0508 -2.64875,-8e-5 -3.70907,-0.023 -2.35628,-0.051 z m -74.65679,-3.48725 c 1.21021,-0.0284 3.19054,-0.0284 4.40075,0 1.2102,0.0284 0.22003,0.0516 -2.20038,0.0516 -2.42041,0 -3.41058,-0.0232 -2.20037,-0.0516 z m 24.16295,-2.78204 c 0.002,-0.365345 0.0359,-0.49525 0.0756,-0.288679 0.0397,0.206571 0.0382,0.505489 -0.003,0.664263 -0.0416,0.158774 -0.0741,-0.01025 -0.0722,-0.375584 z m -24.32902,-5.521194 c 1.11887,-0.02873 2.94975,-0.02873 4.06862,0 1.11887,0.02873 0.20343,0.05224 -2.03431,0.05224 -2.23774,0 -3.15318,-0.02351 -2.03431,-0.05224 z m 130.02806,-1.162273 9.33964,-0.04494 0.0431,-8.177375 0.0431,-8.177376 4.85748,-0.0038 4.85749,-0.0038 -4.81441,0.04785 -4.8144,0.04785 -0.0431,8.17624 -0.0431,8.176238 -9.38273,0.0021 -9.38272,0.0021 9.33964,-0.04494 z M 126.88591,87.539637 c 0,-0.502349 0.0311,-0.707856 0.0692,-0.456681 0.038,0.251175 0.038,0.662188 0,0.913362 -0.038,0.251175 -0.0692,0.04567 -0.0692,-0.456681 z M 98.812523,76.288781 c 2.534577,-0.02578 6.682077,-0.02578 9.216667,0 2.53458,0.02578 0.46083,0.04688 -4.60834,0.04688 -5.06916,0 -7.142908,-0.0211 -4.608327,-0.04688 z m 120.563867,1.66e-4 c 1.34721,-0.02791 3.55173,-0.02791 4.89894,0 1.34721,0.02791 0.24495,0.05075 -2.44947,0.05075 -2.69442,0 -3.79668,-0.02284 -2.44947,-0.05075 z"
       id="path539" /><path
       style="fill:#131e1d;stroke-width:0.166066"
       d="m 150.00235,121.18556 c -0.73069,-0.12046 -1.91859,-0.38196 -2.63977,-0.58111 -0.72119,-0.19916 -1.9528,-0.62768 -2.73691,-0.95226 -0.78412,-0.32459 -1.9502,-0.89226 -2.59131,-1.2615 -0.6411,-0.36924 -1.72611,-1.08789 -2.41113,-1.59701 -0.68502,-0.50911 -1.77812,-1.45785 -2.4291,-2.1083 -0.65098,-0.65045 -1.64099,-1.79952 -2.20003,-2.55349 -0.55903,-0.75397 -1.28656,-1.8539 -1.61672,-2.4443 -0.33017,-0.59039 -0.86117,-1.6864 -1.18,-2.43556 -0.31882,-0.74916 -0.79964,-2.2215 -1.06849,-3.27187 -0.28347,-1.1075 -0.53158,-2.60014 -0.59062,-3.55322 -0.0915,-1.47676 -0.0706,-1.666256 0.2056,-1.868237 0.23458,-0.171528 1.10642,-0.224782 3.68002,-0.224782 3.15119,0 3.39442,0.02181 3.70474,0.332132 0.21959,0.219583 0.33214,0.553553 0.33214,0.985538 0,0.359379 0.11269,1.189129 0.25042,1.843889 0.13774,0.65477 0.46459,1.72456 0.72633,2.3773 0.26175,0.65275 0.7176,1.59782 1.01299,2.10017 0.29539,0.50235 0.93651,1.40313 1.4247,2.00172 0.4882,0.59859 1.24611,1.38787 1.68426,1.75395 0.43815,0.36608 1.13292,0.89392 1.54393,1.17298 0.41102,0.27905 1.21088,0.74082 1.77747,1.02613 0.5666,0.28532 1.68755,0.71845 2.49099,0.9625 1.29974,0.39481 1.74465,0.44532 4.03484,0.45804 1.99792,0.0111 2.8342,-0.0538 3.73648,-0.29009 0.63936,-0.16741 1.92007,-0.669 2.84603,-1.11465 0.92597,-0.44564 2.23682,-1.2499 2.913,-1.78724 0.67619,-0.53733 1.56927,-1.38081 1.98463,-1.87438 0.41536,-0.49357 0.9989,-1.25799 1.29675,-1.69872 0.29786,-0.44073 0.79557,-1.3511 1.10602,-2.02304 0.31046,-0.67193 0.71348,-1.8433 0.89561,-2.60302 0.18213,-0.75973 0.33168,-1.61504 0.33231,-1.9007 6.7e-4,-0.285658 0.11231,-0.611619 0.24815,-0.724358 0.13584,-0.112739 0.35118,-0.164996 0.47853,-0.116128 0.12734,0.04887 1.55588,1.043126 3.17452,2.209456 1.61864,1.16634 3.05196,2.28694 3.18516,2.49023 0.21889,0.33406 0.19384,0.5139 -0.26047,1.86991 -0.27645,0.82516 -0.81369,2.12034 -1.19385,2.87816 -0.38016,0.75783 -1.14852,2.05044 -1.70745,2.87246 -0.55894,0.82203 -1.72806,2.20453 -2.59806,3.07222 -0.87,0.8677 -2.19042,2.01023 -2.93426,2.53897 -0.74384,0.52874 -2.08236,1.33298 -2.97449,1.78718 -0.89213,0.45421 -2.29958,1.04251 -3.12766,1.30734 -0.82809,0.26482 -2.06608,0.60605 -2.7511,0.75827 -0.782,0.17378 -2.26519,0.30054 -3.98559,0.34061 -1.78261,0.0415 -3.20431,-0.0127 -4.06861,-0.15519 z m 41.53059,-0.0159 c -0.9056,-0.12931 -2.32546,-0.42588 -3.15525,-0.65904 -0.82979,-0.23317 -2.28718,-0.80632 -3.23865,-1.27368 -1.45075,-0.71261 -1.94875,-1.06757 -3.08578,-2.19943 -0.7457,-0.74232 -1.59443,-1.77298 -1.88604,-2.29034 -0.29161,-0.51736 -0.68272,-1.37675 -0.86913,-1.90976 -0.18641,-0.533 -0.44614,-1.51746 -0.57718,-2.18768 -0.13104,-0.67022 -0.23826,-2.03403 -0.23826,-3.0307 v -1.81211 h 4.71025 4.71026 l 0.0811,1.55058 c 0.0635,1.21363 0.17855,1.76396 0.52951,2.5325 0.24662,0.54006 0.72473,1.26871 1.06246,1.61923 0.33774,0.35051 1.04377,0.85602 1.56895,1.12333 0.52518,0.26732 1.4593,0.6045 2.07582,0.74929 0.85379,0.20051 1.67506,0.24399 3.44587,0.18241 1.80503,-0.0628 2.54774,-0.16044 3.32132,-0.4368 0.54802,-0.19578 1.34146,-0.60877 1.7632,-0.91774 0.49708,-0.36417 0.92058,-0.87037 1.20398,-1.43907 0.35699,-0.7164 0.43717,-1.10899 0.43717,-2.14061 0,-1.02424 -0.0809,-1.4256 -0.42731,-2.12082 -0.2558,-0.51333 -0.70571,-1.06351 -1.12094,-1.37076 -0.3815,-0.28229 -1.24307,-0.77512 -1.9146,-1.09517 -0.67153,-0.32004 -2.53978,-1.01959 -4.15165,-1.55454 -1.61188,-0.53495 -3.92657,-1.28171 -5.14376,-1.65947 -1.21719,-0.37775 -2.89124,-0.980965 -3.72012,-1.340468 -0.82887,-0.359503 -2.03869,-0.985 -2.68847,-1.389992 -0.64979,-0.404993 -1.56279,-1.101995 -2.02889,-1.548895 -0.46611,-0.446898 -1.11479,-1.218483 -1.44151,-1.714632 -0.32672,-0.496148 -0.78488,-1.475675 -1.01813,-2.176727 -0.23325,-0.701051 -0.49949,-2.0018 -0.59165,-2.890552 -0.1132,-1.091661 -0.11269,-2.057422 0.001,-2.976774 0.093,-0.748473 0.28888,-1.764344 0.43528,-2.25749 0.1464,-0.493148 0.49213,-1.34501 0.76829,-1.893027 0.27616,-0.548018 0.84416,-1.432327 1.26221,-1.965133 0.41805,-0.532804 1.21689,-1.332216 1.77519,-1.77647 0.5583,-0.444255 1.56991,-1.103814 2.24802,-1.465688 0.67811,-0.361872 1.94834,-0.884395 2.82272,-1.161159 0.87439,-0.276765 2.44371,-0.628921 3.48739,-0.782569 1.46555,-0.215757 2.55926,-0.258577 4.80374,-0.188075 2.02878,0.06373 3.39811,0.196841 4.53567,0.440918 0.89623,0.192297 2.23707,0.571362 2.97964,0.842366 0.74257,0.271005 1.87753,0.805907 2.52214,1.188672 0.6446,0.382764 1.69888,1.229464 2.34284,1.881555 0.78762,0.797568 1.39555,1.617553 1.85741,2.505312 0.37762,0.725829 0.84601,1.878117 1.04088,2.56064 0.23589,0.826221 0.38623,1.948569 0.44985,3.358289 l 0.0956,2.117341 h -4.75674 -4.75674 v -1.049288 c 0,-0.577107 -0.11991,-1.453083 -0.26648,-1.946611 -0.14656,-0.493528 -0.48497,-1.214897 -0.75202,-1.603041 -0.26705,-0.388144 -0.82584,-0.939847 -1.24176,-1.226005 -0.41591,-0.286158 -1.17977,-0.67407 -1.69745,-0.862025 -0.69632,-0.252817 -1.4836,-0.361168 -3.02564,-0.416412 -1.22109,-0.04375 -2.45916,0.0032 -2.98919,0.11336 -0.49763,0.103419 -1.27999,0.361979 -1.73859,0.574578 -0.45859,0.212601 -1.08639,0.639127 -1.3951,0.947837 -0.30871,0.308711 -0.69783,0.861868 -0.86472,1.229241 -0.20409,0.449271 -0.30462,1.06749 -0.30707,1.888345 -0.002,0.814537 0.0909,1.419668 0.28068,1.81959 0.15639,0.329554 0.56627,0.872797 0.91086,1.207204 0.34458,0.334409 1.28153,0.926887 2.0821,1.31662 0.80058,0.389732 3.77221,1.475609 6.60363,2.413059 2.83143,0.937452 5.75463,1.966468 6.49602,2.286705 0.74138,0.320238 1.87806,0.906937 2.52596,1.303777 0.64789,0.396839 1.58414,1.074056 2.08054,1.504925 0.4964,0.430869 1.20822,1.241139 1.5818,1.800589 0.37359,0.55945 0.87709,1.62679 1.11889,2.37185 0.36268,1.11752 0.4538,1.7633 0.52052,3.68896 0.0694,2.00171 0.0311,2.53106 -0.26837,3.71536 -0.19208,0.75958 -0.53755,1.79238 -0.7677,2.2951 -0.23016,0.50273 -0.76087,1.39388 -1.17936,1.98035 -0.4185,0.58647 -1.25468,1.47359 -1.85818,1.97139 -0.6035,0.49779 -1.7368,1.23209 -2.51844,1.63177 -0.78165,0.39968 -1.92356,0.89099 -2.53759,1.0918 -0.61403,0.2008 -1.80971,0.51432 -2.65706,0.69671 -1.14701,0.24689 -2.368,0.34831 -4.77892,0.39697 -2.23236,0.0451 -3.74976,-0.008 -4.88483,-0.16976 z M 94.287227,98.426707 V 76.413221 l 9.922443,0.003 c 7.8722,0.0024 10.28092,0.05399 11.65739,0.249617 0.95422,0.135618 2.29935,0.401914 2.98918,0.591774 0.68983,0.189858 1.85208,0.631712 2.58277,0.981897 0.77798,0.372847 1.75037,1.019284 2.34648,1.55991 0.55987,0.507765 1.25813,1.297504 1.55169,1.754976 0.29356,0.457473 0.72218,1.374772 0.9525,2.038441 0.32971,0.950075 0.43667,1.648093 0.50301,3.282495 0.0647,1.594706 0.0213,2.326006 -0.18741,3.155252 -0.14941,0.593686 -0.51338,1.565172 -0.80881,2.158857 -0.34373,0.690758 -0.96258,1.50761 -1.71867,2.268584 -0.93669,0.942749 -1.50614,1.347075 -2.74814,1.951274 -0.86165,0.419169 -1.65659,0.762123 -1.76655,0.762123 -0.10996,0 -0.19993,0.07473 -0.19993,0.166066 0,0.09134 0.17896,0.166066 0.39768,0.166066 0.21872,0 0.90997,0.158038 1.53611,0.351194 0.62614,0.193158 1.55359,0.560541 2.061,0.81641 0.50741,0.255868 1.3461,0.810223 1.86375,1.231897 0.51766,0.421676 1.2892,1.254376 1.71455,1.850446 0.42534,0.59607 0.98501,1.62886 1.24371,2.2951 0.2587,0.66623 0.56033,1.88705 0.67029,2.71293 0.15638,1.17455 0.15591,1.81622 -0.002,2.94617 -0.11115,0.79452 -0.37561,1.92264 -0.5877,2.50694 -0.21209,0.5843 -0.638,1.48231 -0.94646,1.99557 -0.30845,0.51325 -1.10143,1.43983 -1.76217,2.05905 -0.79297,0.74314 -1.69618,1.37894 -2.65705,1.87038 -0.80065,0.40949 -1.95811,0.90883 -2.57214,1.10964 -0.61403,0.20081 -1.80971,0.5225 -2.65705,0.71488 -1.46429,0.33245 -2.08177,0.35291 -12.45948,0.41289 l -10.918833,0.0631 z M 114.1797,112.11153 c 0.5742,-0.0932 1.46654,-0.32751 1.98298,-0.52073 0.60209,-0.22527 1.21556,-0.6279 1.70985,-1.12219 0.48404,-0.48404 0.87388,-1.07319 1.04772,-1.58341 0.15228,-0.44691 0.27687,-1.22027 0.27687,-1.71858 0,-0.49832 -0.0867,-1.19551 -0.19273,-1.54931 -0.106,-0.3538 -0.43415,-0.92532 -0.72923,-1.27005 -0.29507,-0.34473 -0.90607,-0.82792 -1.35777,-1.07377 -0.45169,-0.24584 -1.30053,-0.56969 -1.88631,-0.71967 -0.8249,-0.2112 -2.17898,-0.29113 -6.0055,-0.35449 l -4.94046,-0.0818 v 5.08298 5.08297 l 4.5253,-10e-4 c 2.48891,-6.6e-4 4.99509,-0.0775 5.56928,-0.17067 z m -0.24981,-18.575962 c 0.52814,-0.207662 1.27135,-0.614857 1.65159,-0.904876 0.38024,-0.29002 0.86513,-0.864991 1.07752,-1.277715 0.2124,-0.412723 0.43142,-1.1324 0.48671,-1.599281 0.0562,-0.474284 0.0114,-1.220599 -0.10155,-1.691258 -0.13326,-0.555496 -0.42522,-1.095889 -0.85728,-1.586732 -0.36208,-0.411347 -1.04896,-0.930622 -1.53535,-1.160726 -0.48409,-0.229008 -1.35947,-0.494149 -1.94529,-0.5892 -0.58581,-0.09505 -2.76522,-0.173385 -4.84312,-0.174075 l -3.778,-0.0013 v 4.748806 4.748807 l 4.44226,-0.06746 c 4.13952,-0.06287 4.50771,-0.09319 5.40251,-0.445032 z m 102.91399,4.881386 V 76.413221 h 4.89895 4.89894 v 8.221634 8.221633 l 9.42424,-0.04289 9.42425,-0.04289 0.0431,-8.178746 0.0431,-8.178746 h 4.81434 4.81435 v 22.003733 22.003731 h -4.81455 -4.81455 l -0.0429,-9.50728 -0.0429,-9.50727 -9.42425,-0.0429 -9.42424,-0.0429 v 9.55016 9.55016 h -4.89894 -4.89895 z m 41.35042,20.592176 v -1.41156 h -0.4982 c -0.33213,0 -0.4982,-0.083 -0.4982,-0.2491 0,-0.20066 0.25833,-0.2491 1.32853,-0.2491 1.0702,0 1.32853,0.0484 1.32853,0.2491 0,0.16606 -0.16607,0.2491 -0.4982,0.2491 h -0.4982 v 1.41156 c 0,1.30085 -0.026,1.41156 -0.33213,1.41156 -0.30608,0 -0.33213,-0.11071 -0.33213,-1.41156 z m 2.15886,-0.2491 v -1.66066 h 0.47996 c 0.44094,0 0.51097,0.0878 0.86105,1.07943 0.20959,0.59368 0.42815,1.07943 0.48571,1.07943 0.0576,0 0.27612,-0.48575 0.48571,-1.07943 0.35008,-0.99165 0.42011,-1.07943 0.86105,-1.07943 h 0.47997 v 1.66066 c 0,1.54995 -0.0221,1.66066 -0.33214,1.66066 -0.30079,0 -0.33294,-0.11361 -0.34081,-1.20398 l -0.009,-1.20398 -0.47033,1.16246 c -0.25868,0.63936 -0.57431,1.1834 -0.7014,1.20899 -0.15256,0.0307 -0.37041,-0.35533 -0.64124,-1.13638 -0.2256,-0.6506 -0.46655,-1.21774 -0.53542,-1.26031 -0.0689,-0.0426 -0.12523,0.48749 -0.12523,1.1779 0,1.00511 -0.0497,1.2553 -0.2491,1.2553 -0.2048,0 -0.24909,-0.29523 -0.24909,-1.66066 z"
       id="path537" /></g></svg>
