<svg width="328" height="184" viewBox="0 0 328 184" fill="none" xmlns="http://www.w3.org/2000/svg">
<g clip-path="url(#clip0_1194_254843)">
<path d="M328 -0.209961H0V184.29H328V-0.209961Z" fill="#1C282E"/>
<path opacity="0.1" d="M214.667 -38.9999L129 46.6667L152.503 70.1699L238.17 -15.4968L214.667 -38.9999Z" fill="url(#paint0_linear_1194_254843)"/>
<path opacity="0.1" d="M-1.22524 138.582L58.5117 78.845L43.6669 64.0001L-16.0701 123.737L-1.22524 138.582Z" fill="url(#paint1_linear_1194_254843)"/>
<path opacity="0.2" d="M299.864 -44.2043L56.7607 198.899L136.213 278.351L379.316 35.2475L299.864 -44.2043Z" fill="url(#paint2_linear_1194_254843)"/>
<path opacity="0.1" d="M397.596 -34.5066L154.493 208.597L204.705 258.809L447.808 15.7052L397.596 -34.5066Z" fill="url(#paint3_linear_1194_254843)"/>
<path opacity="0.1" d="M-9.9263 18.233L-9.92629 18.2316L-9.87366 0.832712C-9.87365 0.832514 -9.87365 0.832315 -9.87365 0.832116C-9.86582 -0.483167 -9.15897 -1.6955 -8.0177 -2.35442L7.14251 -11.1072C8.28379 -11.7661 9.68714 -11.772 10.8301 -11.1212C10.8303 -11.1211 10.8305 -11.121 10.8306 -11.1209L25.9249 -2.46701L25.9261 -2.46633C27.0671 -1.81635 27.7608 -0.614771 27.7532 0.698377L27.7532 0.699765L27.7006 18.0987C27.7006 18.0989 27.7006 18.099 27.7006 18.0992C27.6928 19.4145 26.9859 20.6269 25.8446 21.2858L10.6844 30.0386C9.5432 30.6975 8.13995 30.7035 6.99699 30.0527C6.99676 30.0526 6.99653 30.0524 6.9963 30.0523L-8.09795 21.3984L-8.09915 21.3977C-9.24018 20.7478 -9.93391 19.5462 -9.9263 18.233Z" stroke="#00AAFF"/>
<path d="M256 38L278 16" stroke="#0091DA" stroke-linecap="round"/>
<path d="M286 7L308 -15" stroke="#0091DA" stroke-linecap="round"/>
<circle cx="282" cy="12" r="2.5" stroke="#0091DA"/>
<path d="M7 185L43 149" stroke="#0091DA" stroke-linecap="round"/>
<path d="M-4 175L65.5 105.5" stroke="#0091DA" stroke-opacity="0.1" stroke-linecap="round"/>
<path d="M53 75L71.5 85.6375M209.5 98L153 132.5L136.5 123.012M209.5 98C209.5 98 209.5 108.213 209.5 117M209.5 98L214 100.7M247 120.5L214 100.7M71.5 114.5V85.6375M71.5 85.6375L77 88.8M77 119V88.8M77 88.8L131 119.85M131 155.5C131 139.625 131 119.85 131 119.85M131 119.85L136.5 123.012M136.5 160.5V123.012M214 120.5V100.7" stroke="#0091DA"/>
<path d="M276 96.5L250.955 82M132 80.5L146 88.5M185 72.9602L196 66.2433" stroke="#0091DA"/>
<path d="M77.1615 59.3553L90.6333 51.5774L104.105 59.3553V74.9113L90.6333 82.6893L77.1615 74.9113V59.3553Z" stroke="#EAF8FF"/>
<path opacity="0.75" d="M104.567 59.0667L118.539 67.1333V83.2667L104.567 91.3333L90.5951 83.2667V67.1333L104.567 59.0667Z" fill="#8ECAEA"/>
<path d="M105.029 75.4886L118.501 67.7107L131.972 75.4886V91.0446L118.501 98.8226L105.029 91.0446V75.4886Z" stroke="#EAF8FF"/>
<path d="M196.029 59.3553L209.501 51.5774L222.972 59.3553V74.9113L209.501 82.6893L196.029 74.9113V59.3553Z" stroke="#EAF8FF"/>
<path opacity="0.75" d="M223.434 59.0667L237.406 67.1333V83.2667L223.434 91.3333L209.462 83.2667V67.1333L223.434 59.0667Z" fill="#8ECAEA"/>
<path d="M223.895 75.4887L237.367 67.7107L250.839 75.4887V91.0447L237.367 98.8227L223.895 91.0447V75.4887Z" stroke="#EAF8FF"/>
<path d="M165.16 77.3553L178.632 69.5774L192.104 77.3553V92.9113L178.632 100.689L165.16 92.9113V77.3553Z" stroke="#EAF8FF"/>
<path opacity="0.75" d="M164.7 77.0667L178.672 85.1333V101.267L164.7 109.333L150.728 101.267V85.1333L164.7 77.0667Z" fill="#8ECAEA"/>
<path d="M137.294 93.4887L150.766 85.7107L164.238 93.4887V109.045L150.766 116.823L137.294 109.045V93.4887Z" stroke="#EAF8FF"/>
<path d="M77.5 59.5L118.5 83M118.5 83V99M118.5 83L132 76M137.5 93.5L151 101.5M151 101.5L192 78M151 101.5V117M196 59.5L237.5 83M237.5 83V99M237.5 83L251 76" stroke="#EAF8FF"/>
<g opacity="0.1" filter="url(#filter0_d_1194_254843)">
<path d="M128.738 45.1445C129.035 45.8125 128.812 46.4805 128.293 47L125.102 49.8945C125.176 50.4883 125.25 51.1562 125.25 51.75C125.25 52.418 125.176 53.0859 125.102 53.6797L128.293 56.5742C128.812 57.0938 129.035 57.7617 128.738 58.4297C128.441 59.3203 128.07 60.1367 127.625 60.9531L127.254 61.5469C126.734 62.3633 126.215 63.1797 125.621 63.9219C125.176 64.4414 124.434 64.5898 123.766 64.3672L119.684 63.1055C118.645 63.8477 117.531 64.4414 116.418 64.9609L115.453 69.1914C115.305 69.8594 114.785 70.3789 114.117 70.5273C113.078 70.6758 112.039 70.75 110.926 70.75C109.887 70.75 108.848 70.6758 107.809 70.5273C107.141 70.3789 106.621 69.8594 106.473 69.1914L105.508 64.9609C104.395 64.4414 103.281 63.8477 102.242 63.1055L98.1602 64.3672C97.4922 64.5898 96.75 64.4414 96.3047 63.9219C95.7109 63.1797 95.1914 62.3633 94.6719 61.5469L94.3008 60.9531C93.8555 60.1367 93.4844 59.3203 93.1875 58.4297C92.8906 57.7617 93.1133 57.0938 93.6328 56.5742L96.8242 53.6797C96.75 53.0859 96.75 52.418 96.75 51.75C96.75 51.1562 96.75 50.4883 96.8242 49.8945L93.6328 47C93.1133 46.4805 92.8906 45.8125 93.1875 45.1445C93.4844 44.2539 93.8555 43.4375 94.3008 42.6211L94.6719 42.0273C95.1914 41.2109 95.7109 40.3945 96.3047 39.6523C96.75 39.1328 97.4922 38.9844 98.1602 39.207L102.242 40.4688C103.281 39.7266 104.395 39.0586 105.508 38.6133L106.473 34.3828C106.621 33.7148 107.141 33.1953 107.809 33.0469C108.848 32.8984 109.887 32.75 111 32.75C112.039 32.75 113.078 32.8984 114.117 33.0469C114.785 33.1953 115.305 33.7148 115.453 34.3828L116.418 38.6133C117.531 39.0586 118.645 39.7266 119.684 40.4688L123.766 39.207C124.434 38.9844 125.176 39.1328 125.621 39.6523C126.215 40.3945 126.734 41.2109 127.254 42.0273L127.625 42.6211C128.07 43.4375 128.441 44.2539 128.738 45.1445ZM111 57.6875C114.266 57.6875 116.938 55.0898 116.938 51.75C116.938 48.4844 114.266 45.8125 111 45.8125C107.66 45.8125 105.062 48.4844 105.062 51.75C105.062 55.0898 107.66 57.6875 111 57.6875Z" fill="#0091DA"/>
</g>
<g opacity="0.1" filter="url(#filter1_d_1194_254843)">
<path d="M88.4023 29.1211C88.543 29.4375 88.4375 29.7539 88.1914 30L86.6797 31.3711C86.7148 31.6523 86.75 31.9688 86.75 32.25C86.75 32.5664 86.7148 32.8828 86.6797 33.1641L88.1914 34.5352C88.4375 34.7812 88.543 35.0977 88.4023 35.4141C88.2617 35.8359 88.0859 36.2227 87.875 36.6094L87.6992 36.8906C87.4531 37.2773 87.207 37.6641 86.9258 38.0156C86.7148 38.2617 86.3633 38.332 86.0469 38.2266L84.1133 37.6289C83.6211 37.9805 83.0938 38.2617 82.5664 38.5078L82.1094 40.5117C82.0391 40.8281 81.793 41.0742 81.4766 41.1445C80.9844 41.2148 80.4922 41.25 79.9648 41.25C79.4727 41.25 78.9805 41.2148 78.4883 41.1445C78.1719 41.0742 77.9258 40.8281 77.8555 40.5117L77.3984 38.5078C76.8711 38.2617 76.3438 37.9805 75.8516 37.6289L73.918 38.2266C73.6016 38.332 73.25 38.2617 73.0391 38.0156C72.7578 37.6641 72.5117 37.2773 72.2656 36.8906L72.0898 36.6094C71.8789 36.2227 71.7031 35.8359 71.5625 35.4141C71.4219 35.0977 71.5273 34.7812 71.7734 34.5352L73.2852 33.1641C73.25 32.8828 73.25 32.5664 73.25 32.25C73.25 31.9688 73.25 31.6523 73.2852 31.3711L71.7734 30C71.5273 29.7539 71.4219 29.4375 71.5625 29.1211C71.7031 28.6992 71.8789 28.3125 72.0898 27.9258L72.2656 27.6445C72.5117 27.2578 72.7578 26.8711 73.0391 26.5195C73.25 26.2734 73.6016 26.2031 73.918 26.3086L75.8516 26.9062C76.3438 26.5547 76.8711 26.2383 77.3984 26.0273L77.8555 24.0234C77.9258 23.707 78.1719 23.4609 78.4883 23.3906C78.9805 23.3203 79.4727 23.25 80 23.25C80.4922 23.25 80.9844 23.3203 81.4766 23.3906C81.793 23.4609 82.0391 23.707 82.1094 24.0234L82.5664 26.0273C83.0938 26.2383 83.6211 26.5547 84.1133 26.9062L86.0469 26.3086C86.3633 26.2031 86.7148 26.2734 86.9258 26.5195C87.207 26.8711 87.4531 27.2578 87.6992 27.6445L87.875 27.9258C88.0859 28.3125 88.2617 28.6992 88.4023 29.1211ZM80 35.0625C81.5469 35.0625 82.8125 33.832 82.8125 32.25C82.8125 30.7031 81.5469 29.4375 80 29.4375C78.418 29.4375 77.1875 30.7031 77.1875 32.25C77.1875 33.832 78.418 35.0625 80 35.0625Z" fill="#0091DA"/>
</g>
<g opacity="0.15">
<path opacity="0.75" d="M208.589 175.82L216.397 171.312L224.205 175.82V184.835L216.397 189.343L208.589 184.835V175.82Z" stroke="#0091DA" stroke-width="1.13793"/>
<path opacity="0.75" d="M216.555 162.165L224.363 157.657L232.17 162.165V171.18L224.363 175.688L216.555 171.18V162.165Z" stroke="#0091DA" stroke-width="1.13793"/>
<path opacity="0.75" d="M224.52 175.82L232.328 171.312L240.135 175.82V184.835L232.328 189.343L224.52 184.835V175.82Z" stroke="#0091DA" stroke-width="1.13793"/>
</g>
</g>
<defs>
<filter id="filter0_d_1194_254843" x="81.7687" y="29.0427" width="58.3884" height="60.2439" filterUnits="userSpaceOnUse" color-interpolation-filters="sRGB">
<feFlood flood-opacity="0" result="BackgroundImageFix"/>
<feColorMatrix in="SourceAlpha" type="matrix" values="0 0 0 0 0 0 0 0 0 0 0 0 0 0 0 0 0 0 127 0" result="hardAlpha"/>
<feOffset dy="7.41463"/>
<feGaussianBlur stdDeviation="5.56098"/>
<feComposite in2="hardAlpha" operator="out"/>
<feColorMatrix type="matrix" values="0 0 0 0 0 0 0 0 0 0 0 0 0 0 0 0 0 0 0.32 0"/>
<feBlend mode="normal" in2="BackgroundImageFix" result="effect1_dropShadow_1194_254843"/>
<feBlend mode="normal" in="SourceGraphic" in2="effect1_dropShadow_1194_254843" result="shape"/>
</filter>
<filter id="filter1_d_1194_254843" x="66.1536" y="21.4939" width="27.6577" height="28.5366" filterUnits="userSpaceOnUse" color-interpolation-filters="sRGB">
<feFlood flood-opacity="0" result="BackgroundImageFix"/>
<feColorMatrix in="SourceAlpha" type="matrix" values="0 0 0 0 0 0 0 0 0 0 0 0 0 0 0 0 0 0 127 0" result="hardAlpha"/>
<feOffset dy="3.5122"/>
<feGaussianBlur stdDeviation="2.63415"/>
<feComposite in2="hardAlpha" operator="out"/>
<feColorMatrix type="matrix" values="0 0 0 0 0 0 0 0 0 0 0 0 0 0 0 0 0 0 0.32 0"/>
<feBlend mode="normal" in2="BackgroundImageFix" result="effect1_dropShadow_1194_254843"/>
<feBlend mode="normal" in="SourceGraphic" in2="effect1_dropShadow_1194_254843" result="shape"/>
</filter>
<linearGradient id="paint0_linear_1194_254843" x1="148.343" y1="41.4066" x2="214.82" y2="7.30615" gradientUnits="userSpaceOnUse">
<stop stop-color="#0091DA" stop-opacity="0"/>
<stop offset="1" stop-color="#0091DA"/>
</linearGradient>
<linearGradient id="paint1_linear_1194_254843" x1="51.9704" y1="76.4913" x2="-18.6538" y2="110.079" gradientUnits="userSpaceOnUse">
<stop stop-color="#0091DA" stop-opacity="0"/>
<stop offset="1" stop-color="#0091DA"/>
</linearGradient>
<linearGradient id="paint2_linear_1194_254843" x1="218.18" y1="0.551273" x2="212.78" y2="188.772" gradientUnits="userSpaceOnUse">
<stop stop-color="#0091DA" stop-opacity="0"/>
<stop offset="1" stop-color="#0091DA"/>
</linearGradient>
<linearGradient id="paint3_linear_1194_254843" x1="336.921" y1="14.2568" x2="364.93" y2="155.67" gradientUnits="userSpaceOnUse">
<stop stop-color="#0091DA" stop-opacity="0"/>
<stop offset="1" stop-color="#0091DA"/>
</linearGradient>
<clipPath id="clip0_1194_254843">
<rect width="328" height="184" fill="white"/>
</clipPath>
</defs>
</svg>
