<svg width="328" height="184" viewBox="0 0 328 184" fill="none" xmlns="http://www.w3.org/2000/svg">
<g clip-path="url(#clip0_1194_255756)">
<rect width="328" height="184" fill="white"/>
<path opacity="0.1" d="M214.667 -38.9999L129 46.6667L152.503 70.1699L238.17 -15.4968L214.667 -38.9999Z" fill="url(#paint0_linear_1194_255756)"/>
<path opacity="0.1" d="M-1.22524 138.582L58.5117 78.845L43.6669 64.0001L-16.0701 123.737L-1.22524 138.582Z" fill="url(#paint1_linear_1194_255756)"/>
<path opacity="0.2" d="M299.864 -44.2043L56.7607 198.899L136.213 278.351L379.316 35.2475L299.864 -44.2043Z" fill="url(#paint2_linear_1194_255756)"/>
<path opacity="0.1" d="M397.596 -34.5066L154.493 208.597L204.705 258.809L447.808 15.7052L397.596 -34.5066Z" fill="url(#paint3_linear_1194_255756)"/>
<path opacity="0.1" d="M-9.9263 18.233L-9.92629 18.2316L-9.87366 0.832712C-9.87365 0.832514 -9.87365 0.832315 -9.87365 0.832116C-9.86582 -0.483167 -9.15897 -1.6955 -8.0177 -2.35442L7.14251 -11.1072C8.28379 -11.7661 9.68714 -11.772 10.8301 -11.1212C10.8303 -11.1211 10.8305 -11.121 10.8306 -11.1209L25.9249 -2.46701L25.9261 -2.46633C27.0671 -1.81635 27.7608 -0.614771 27.7532 0.698377L27.7532 0.699765L27.7006 18.0987C27.7006 18.0989 27.7006 18.099 27.7006 18.0992C27.6928 19.4145 26.9859 20.6269 25.8446 21.2858L10.6844 30.0386C9.5432 30.6975 8.13995 30.7035 6.99699 30.0527C6.99676 30.0526 6.99653 30.0524 6.9963 30.0523L-8.09795 21.3984L-8.09915 21.3977C-9.24018 20.7478 -9.93391 19.5462 -9.9263 18.233Z" stroke="#00AAFF"/>
<path d="M286 7L308 -15" stroke="#0091DA" stroke-linecap="round"/>
<circle cx="282" cy="12" r="2.5" stroke="#0091DA"/>
<path d="M7 185L43 149" stroke="#0091DA" stroke-linecap="round"/>
<path d="M-4 175L65.5 105.5" stroke="#0091DA" stroke-opacity="0.1" stroke-linecap="round"/>
<path d="M229 186L251 164" stroke="#0091DA" stroke-linecap="round"/>
<path d="M259 155L281 133" stroke="#0091DA" stroke-linecap="round"/>
<circle cx="255" cy="160" r="2.5" stroke="#0091DA"/>
<path d="M72 36.0001L108 0.00012207" stroke="#0091DA" stroke-linecap="round"/>
<path d="M52 25.0001L121.5 -44.4999" stroke="#0091DA" stroke-opacity="0.1" stroke-linecap="round"/>
<circle cx="68" cy="40.0001" r="2.5" stroke="#0091DA"/>
<path d="M125.902 72.814C125.902 67.5436 130.119 63.1767 135.54 63.1767H193.363C198.633 63.1767 203 67.5436 203 72.814L203 111.363C203 116.784 198.633 121 193.363 121H135.54C130.119 121 125.902 116.784 125.902 111.363L125.902 72.814ZM130.721 72.814L130.721 78.8372L160.084 100.521C162.644 102.328 166.108 102.328 168.667 100.521L198.181 78.8372L198.181 72.814C198.181 70.2541 195.923 67.9954 193.363 67.9954H135.389C132.829 67.9954 130.57 70.2541 130.57 72.814H130.721ZM130.721 84.8605L130.721 111.363C130.721 114.073 132.829 116.181 135.54 116.181H193.363C195.923 116.181 198.181 114.073 198.181 111.363L198.181 84.8605L171.529 104.436C167.312 107.448 161.44 107.448 157.223 104.436L130.721 84.8605Z" fill="#0091DA"/>
<path d="M250.953 108H232.953C231.266 108 229.953 109.359 229.953 111L229.953 124.453C229.953 126.094 231.266 127.406 232.953 127.406H237.453L237.453 131.344C237.453 131.812 237.969 132.047 238.344 131.766L244.203 127.406H250.953C252.594 127.406 253.953 126.047 253.953 124.453L253.953 111C253.953 109.359 252.641 108 250.953 108ZM252.5 124.5C252.5 125.344 251.797 126 251 126H244.203C243.875 126 243.594 126.141 243.313 126.328L239 129.562L239 126.75C239 126.375 238.625 126 238.25 126H233C232.156 126 231.5 125.344 231.5 124.5L231.5 111C231.5 110.203 232.156 109.5 233 109.5H251C251.797 109.5 252.5 110.203 252.5 111L252.5 124.5Z" fill="#0091DA"/>
<path d="M172.169 146.48L149.621 150.165C149.412 150.186 149.229 150.247 149.071 150.348C148.715 150.575 148.435 150.92 148.374 151.348C148.269 151.97 148.568 152.613 149.107 152.936L157.24 157.595L158.043 166.974C158.108 167.6 158.565 168.142 159.147 168.272C159.561 168.398 160.017 168.329 160.373 168.103C160.531 168.002 160.664 167.862 160.772 167.682L173.654 148.813C174.003 148.313 174.017 147.637 173.69 147.123C173.348 146.674 172.769 146.375 172.169 146.48ZM149.862 151.678L170.519 148.252L157.905 156.282L149.862 151.678ZM159.528 166.862L158.711 157.548L171.285 149.543L159.528 166.862Z" fill="#0091DA"/>
<path d="M231.5 42C234.781 42 237.5 39.3281 237.5 36C237.5 32.7188 234.781 30 231.5 30C228.172 30 225.5 32.7188 225.5 36C225.5 39.3281 228.172 42 231.5 42ZM231.5 31.5C233.938 31.5 236 33.5625 236 36C236 38.4844 233.938 40.5 231.5 40.5C229.016 40.5 227 38.4844 227 36C227 33.5625 229.016 31.5 231.5 31.5ZM233.844 44.25H229.109C224.609 44.25 221 47.9062 221 52.4062C221 53.2969 221.703 54 222.594 54H240.359C241.25 54 242 53.2969 242 52.4062C242 47.9062 238.344 44.25 233.844 44.25ZM240.359 52.5H222.594C222.547 52.5 222.5 52.4531 222.5 52.4062C222.5 48.75 225.453 45.75 229.109 45.75H233.844C237.5 45.75 240.5 48.75 240.5 52.4062C240.5 52.4531 240.406 52.5 240.359 52.5Z" fill="#0091DA"/>
<path opacity="0.1" d="M167.772 47.1767C171.687 47.1767 175 50.4895 175 54.4047C175 56.814 173.795 58.9221 171.988 60.2773L139.312 84.8221C137.505 86.1773 135.247 86.1773 133.44 84.8221L100.763 60.2773C98.9564 58.9221 97.9023 56.814 97.9023 54.4047C97.9023 50.4895 101.065 47.1767 105.13 47.1767H167.772ZM130.579 88.7372C134.042 91.2971 138.71 91.2971 142.173 88.7372L175 64.0419L175 95.3628C175 100.784 170.633 105 165.363 105H107.54C102.119 105 97.9024 100.784 97.9023 95.3628L97.9023 64.0419L130.579 88.7372Z" fill="#0091DA"/>
<line y1="-0.5" x2="47" y2="-0.5" transform="matrix(-1 0 0 1 104 76)" stroke="#0091DA"/>
<line x1="104" y1="84.5" x2="66" y2="84.5" stroke="#0091DA"/>
<line x1="104" y1="92.5" x2="57" y2="92.5" stroke="#0091DA"/>
<line x1="104" y1="100.5" x2="75" y2="100.5" stroke="#0091DA"/>
<line x1="104" y1="108.5" x2="64" y2="108.5" stroke="#0091DA"/>
</g>
<defs>
<linearGradient id="paint0_linear_1194_255756" x1="148.343" y1="41.4066" x2="214.82" y2="7.30615" gradientUnits="userSpaceOnUse">
<stop stop-color="#0091DA" stop-opacity="0"/>
<stop offset="1" stop-color="#0091DA"/>
</linearGradient>
<linearGradient id="paint1_linear_1194_255756" x1="51.9704" y1="76.4913" x2="-18.6538" y2="110.079" gradientUnits="userSpaceOnUse">
<stop stop-color="#0091DA" stop-opacity="0"/>
<stop offset="1" stop-color="#0091DA"/>
</linearGradient>
<linearGradient id="paint2_linear_1194_255756" x1="218.18" y1="0.551243" x2="212.78" y2="188.772" gradientUnits="userSpaceOnUse">
<stop stop-color="#0091DA" stop-opacity="0"/>
<stop offset="1" stop-color="#0091DA"/>
</linearGradient>
<linearGradient id="paint3_linear_1194_255756" x1="336.921" y1="14.2568" x2="364.93" y2="155.67" gradientUnits="userSpaceOnUse">
<stop stop-color="#0091DA" stop-opacity="0"/>
<stop offset="1" stop-color="#0091DA"/>
</linearGradient>
<clipPath id="clip0_1194_255756">
<rect width="328" height="184" fill="white"/>
</clipPath>
</defs>
</svg>
