<svg width="328" height="184" viewBox="0 0 328 184" fill="none" xmlns="http://www.w3.org/2000/svg">
<g clip-path="url(#clip0_1194_253799)">
<rect width="328" height="184" fill="#00AAFF"/>
<path opacity="0.1" d="M214.667 -38.9999L129 46.6667L152.503 70.1699L238.17 -15.4968L214.667 -38.9999Z" fill="url(#paint0_linear_1194_253799)"/>
<path opacity="0.1" d="M-1.22524 138.582L58.5117 78.845L43.6669 64.0001L-16.0701 123.737L-1.22524 138.582Z" fill="url(#paint1_linear_1194_253799)"/>
<path opacity="0.2" d="M299.864 -44.2043L56.7607 198.899L136.213 278.351L379.316 35.2475L299.864 -44.2043Z" fill="url(#paint2_linear_1194_253799)"/>
<path opacity="0.1" d="M397.596 -34.5066L154.493 208.597L204.705 258.809L447.808 15.7052L397.596 -34.5066Z" fill="url(#paint3_linear_1194_253799)"/>
<path d="M73.9359 51.7638L73.9359 51.7624L73.9617 43.2366C73.9617 43.2364 73.9617 43.2362 73.9617 43.236C73.9651 42.6825 74.2626 42.1718 74.7437 41.8941L82.1731 37.6047C82.6541 37.327 83.2451 37.3247 83.7262 37.5984C83.7264 37.5985 83.7266 37.5986 83.7268 37.5988L91.1232 41.8393L91.1244 41.84C91.6035 42.1129 91.8942 42.6165 91.891 43.1678L91.891 43.1692L91.8652 51.695C91.8652 51.6952 91.8652 51.6953 91.8652 51.6955C91.8618 52.249 91.5643 52.7597 91.0832 53.0375L83.6538 57.3269C83.1727 57.6046 82.5816 57.6069 82.1006 57.3331C82.1004 57.333 82.1003 57.3329 82.1001 57.3329L74.7037 53.0923L74.7025 53.0916C74.2234 52.8187 73.9327 52.3151 73.9359 51.7638Z" stroke="#EAF8FF"/>
<path opacity="0.1" d="M-9.9263 18.233L-9.92629 18.2316L-9.87366 0.832713C-9.87366 0.832422 -9.87365 0.83213 -9.87365 0.831839C-9.86572 -0.483337 -9.15889 -1.69555 -8.0177 -2.35442L7.1425 -11.1072C8.28374 -11.766 9.68702 -11.772 10.83 -11.1212C10.8302 -11.1211 10.8304 -11.121 10.8306 -11.1209L25.9249 -2.46701L25.9261 -2.46632C27.0671 -1.81634 27.7608 -0.614769 27.7532 0.698379L27.7532 0.699767L27.7006 18.0987C27.7006 18.0989 27.7006 18.099 27.7006 18.0992C27.6928 19.4145 26.9859 20.6269 25.8446 21.2858L10.6844 30.0386C9.5432 30.6975 8.13995 30.7035 6.99699 30.0527C6.99676 30.0526 6.99653 30.0524 6.9963 30.0523L-8.09795 21.3984L-8.09915 21.3977C-9.24018 20.7478 -9.93391 19.5462 -9.9263 18.233Z" stroke="#00AAFF"/>
<g filter="url(#filter0_f_1194_253799)">
<path d="M219.793 32.1825L219.808 27.2949C219.808 27.2947 219.808 27.2946 219.808 27.2945C219.81 26.9641 219.987 26.6594 220.274 26.4937L224.533 24.0348C224.82 23.8691 225.173 23.8676 225.46 24.0311C225.46 24.0311 225.46 24.0312 225.46 24.0312L229.701 26.4622L229.701 26.4626C229.987 26.6256 230.161 26.9265 230.159 27.2558L230.159 27.2565L230.144 32.1442C230.144 32.1442 230.144 32.1443 230.144 32.1444C230.142 32.4748 229.965 32.7796 229.678 32.9453L225.419 35.4042C225.132 35.5699 224.779 35.5714 224.492 35.4079C224.492 35.4079 224.492 35.4078 224.492 35.4078L220.251 32.9768L220.251 32.9764C219.965 32.8134 219.791 32.5125 219.793 32.1832L219.793 32.1825Z" stroke="#EAF8FF" stroke-width="0.5"/>
</g>
<path d="M256 38L278 16" stroke="#EAF8FF" stroke-linecap="round"/>
<path d="M286 7L308 -15" stroke="#EAF8FF" stroke-linecap="round"/>
<circle cx="282" cy="12" r="2.5" stroke="#EAF8FF"/>
<path d="M7 185L43 149" stroke="#EAF8FF" stroke-linecap="round"/>
<path d="M-4 175L65.5 105.5" stroke="#0091DA" stroke-opacity="0.1" stroke-linecap="round"/>
<path d="M203 186L225 164" stroke="#EAF8FF" stroke-linecap="round"/>
<path d="M233 155L255 133" stroke="#EAF8FF" stroke-linecap="round"/>
<circle cx="229" cy="160" r="2.5" stroke="#EAF8FF"/>
<path d="M156.966 102.431L137.142 91.0658C135.437 90.0947 133.345 90.1041 131.645 91.0857L111.736 102.58C110.036 103.562 108.981 105.369 108.97 107.331L108.901 130.182C108.89 132.143 109.927 133.941 111.632 134.912L131.456 146.278C133.161 147.249 135.253 147.239 136.953 146.258L156.862 134.763C158.562 133.782 159.616 131.975 159.628 130.013L159.697 107.162C159.708 105.2 158.671 103.402 156.966 102.431Z" fill="#EAF8FF"/>
<path d="M126.999 114.166V110.605C126.999 106.709 130.141 103.482 134.054 103.482C137.912 103.482 141.109 106.709 141.109 110.605V114.166H141.991C144.416 114.166 146.401 116.17 146.401 118.618V127.522C146.401 130.026 144.416 131.974 141.991 131.974H126.117C123.637 131.974 121.708 130.026 121.708 127.522V118.618C121.708 116.17 123.637 114.166 126.117 114.166H126.999ZM128.763 114.166H139.346V110.605C139.346 107.655 136.975 105.262 134.054 105.262C131.078 105.262 128.763 107.655 128.763 110.605V114.166ZM123.471 127.522C123.471 129.024 124.629 130.193 126.117 130.193H141.991C143.424 130.193 144.637 129.024 144.637 127.522V118.618C144.637 117.171 143.424 115.947 141.991 115.947H126.117C124.629 115.947 123.471 117.171 123.471 118.618V127.522Z" fill="#1D428A"/>
<path d="M217.259 102.273L197.435 90.9077C195.731 89.9366 193.639 89.946 191.939 90.9276L172.029 102.422C170.329 103.404 169.275 105.211 169.264 107.173L169.195 130.024C169.183 131.985 170.221 133.783 171.926 134.754L191.75 146.12C193.454 147.091 195.546 147.081 197.247 146.1L217.156 134.605C218.856 133.624 219.91 131.817 219.921 129.855L219.991 107.004C220.002 105.042 218.964 103.244 217.259 102.273Z" fill="#1D428A"/>
<path d="M211.458 116.956C211.458 117.39 211.072 117.728 210.686 117.728H204.223L201.33 124.962C201.233 125.3 200.944 125.493 200.558 125.444C200.269 125.444 199.979 125.203 199.883 124.866L196.073 109.674L192.118 129.496C192.07 129.833 191.732 130.074 191.395 130.074C191.009 130.074 190.719 129.833 190.623 129.496L187.681 117.728H181.363C180.929 117.728 180.591 117.39 180.591 116.956C180.591 116.57 180.929 116.233 181.363 116.233H188.308C188.646 116.233 188.935 116.474 189.031 116.86L191.298 125.878L195.253 106.056C195.301 105.671 195.639 105.429 195.976 105.381C196.362 105.429 196.652 105.622 196.748 106.008L200.799 122.213L203.018 116.715C203.114 116.377 203.404 116.184 203.741 116.184H210.686C211.072 116.184 211.458 116.57 211.458 116.956Z" fill="#EAF8FF"/>
<path d="M186.868 49.088L167.044 37.7223C165.339 36.7513 163.247 36.7607 161.547 37.7422L141.638 49.2368C139.938 50.2184 138.883 52.0254 138.872 53.9872L138.803 76.8382C138.792 78.8 139.829 80.5976 141.534 81.5686L161.358 92.9343C163.063 93.9053 165.155 93.8959 166.855 92.9143L186.764 81.4198C188.464 80.4382 189.518 78.6312 189.53 76.6694L189.599 53.8184C189.61 51.8566 188.572 50.059 186.868 49.088Z" fill="#1D428A"/>
<path d="M159.964 65.3098C159.964 62.8509 161.961 60.8019 164.471 60.8019C166.93 60.8019 168.979 62.8509 168.979 65.3098C168.979 67.8199 166.93 69.8177 164.471 69.8177C161.961 69.8177 159.964 67.8199 159.964 65.3098ZM164.471 62.4411C162.883 62.4411 161.603 63.773 161.603 65.3098C161.603 66.8978 162.883 68.1785 164.471 68.1785C166.008 68.1785 167.34 66.8978 167.34 65.3098C167.34 63.773 166.008 62.4411 164.471 62.4411ZM154.687 64.0291L152.638 62.1338C152.075 61.6215 151.921 60.8019 152.331 60.1359L153.868 57.4209C154.226 56.755 155.046 56.4476 155.763 56.7037L158.427 57.5234C159.144 57.0111 159.912 56.5501 160.681 56.2427L161.295 53.5277C161.449 52.7593 162.115 52.1958 162.883 52.1958H166.008C166.777 52.1958 167.443 52.7593 167.596 53.5277L168.211 56.2427C168.979 56.5501 169.748 57.0111 170.465 57.5234L173.129 56.7037C173.846 56.4476 174.666 56.755 175.024 57.4209L176.561 60.1359C176.971 60.8019 176.817 61.6215 176.254 62.1338L174.204 64.0291C174.256 64.4389 174.307 64.9 174.307 65.3098C174.307 65.7708 174.256 66.2319 174.204 66.6417L176.254 68.5371C176.817 69.0493 176.971 69.869 176.561 70.5349L175.024 73.2499C174.666 73.9159 173.846 74.2232 173.129 73.9671L170.465 73.1475C169.748 73.6597 168.979 74.0695 168.211 74.4281L167.596 77.1431C167.443 77.9115 166.777 78.4238 166.008 78.4238H162.883C162.115 78.4238 161.449 77.9115 161.295 77.1431L160.681 74.4281C159.912 74.0695 159.144 73.6597 158.427 73.1475L155.763 73.9671C155.046 74.2232 154.226 73.9159 153.868 73.2499L152.331 70.5349C151.921 69.869 152.075 69.0493 152.638 68.5371L154.687 66.6417C154.636 66.2319 154.636 65.7708 154.636 65.3098C154.636 64.9 154.636 64.4389 154.687 64.0291ZM159.451 58.8553L158.785 59.3675L155.302 58.2405L153.714 60.9555L156.429 63.4144L156.326 64.234C156.275 64.5926 156.275 64.9512 156.275 65.3098C156.275 65.7196 156.275 66.0782 156.326 66.4368L156.429 67.2564L153.714 69.7153L155.302 72.4303L158.785 71.3033L159.451 71.8156C160.015 72.2766 160.629 72.6352 161.347 72.8913L162.115 73.2499L162.883 76.7845H166.008L166.777 73.2499L167.545 72.8913C168.262 72.6352 168.877 72.2766 169.44 71.8156L170.106 71.3033L173.59 72.4303L175.178 69.7153L172.463 67.2564L172.565 66.4368C172.616 66.0782 172.668 65.7196 172.668 65.3098C172.668 64.9512 172.616 64.5926 172.565 64.234L172.463 63.4144L175.178 60.9555L173.59 58.2405L170.106 59.3675L169.44 58.8553C168.877 58.3942 168.262 58.0356 167.545 57.7283L166.777 57.4209L166.008 53.8351H162.883L162.115 57.4209L161.347 57.7283C160.629 58.0356 160.015 58.3942 159.451 58.8553Z" fill="#EAF8FF"/>
</g>
<defs>
<filter id="filter0_f_1194_253799" x="217.543" y="21.6595" width="14.8665" height="16.12" filterUnits="userSpaceOnUse" color-interpolation-filters="sRGB">
<feFlood flood-opacity="0" result="BackgroundImageFix"/>
<feBlend mode="normal" in="SourceGraphic" in2="BackgroundImageFix" result="shape"/>
<feGaussianBlur stdDeviation="1" result="effect1_foregroundBlur_1194_253799"/>
</filter>
<linearGradient id="paint0_linear_1194_253799" x1="148.343" y1="41.4066" x2="214.82" y2="7.30613" gradientUnits="userSpaceOnUse">
<stop stop-color="#1C282E" stop-opacity="0"/>
<stop offset="1" stop-color="#1C282E"/>
</linearGradient>
<linearGradient id="paint1_linear_1194_253799" x1="51.9704" y1="76.4913" x2="-18.6538" y2="110.079" gradientUnits="userSpaceOnUse">
<stop stop-color="#1C282E" stop-opacity="0"/>
<stop offset="1" stop-color="#1C282E"/>
</linearGradient>
<linearGradient id="paint2_linear_1194_253799" x1="218.18" y1="0.551243" x2="212.78" y2="188.772" gradientUnits="userSpaceOnUse">
<stop stop-color="#1C282E" stop-opacity="0"/>
<stop offset="1" stop-color="#0091DA"/>
</linearGradient>
<linearGradient id="paint3_linear_1194_253799" x1="336.921" y1="14.2568" x2="364.93" y2="155.67" gradientUnits="userSpaceOnUse">
<stop stop-color="#1C282E" stop-opacity="0"/>
<stop offset="1" stop-color="#1C282E"/>
</linearGradient>
<clipPath id="clip0_1194_253799">
<rect width="328" height="184" fill="white"/>
</clipPath>
</defs>
</svg>
