<svg width="328" height="184" viewBox="0 0 328 184" fill="none" xmlns="http://www.w3.org/2000/svg">
<g clip-path="url(#clip0_23_171)">
<rect width="328" height="184" rx="5" fill="#00AAFF"/>
<path opacity="0.1" d="M214.667 -38.9999L129 46.6667L152.503 70.1699L238.17 -15.4968L214.667 -38.9999Z" fill="url(#paint0_linear_23_171)"/>
<path opacity="0.1" d="M-1.22524 138.582L58.5117 78.845L43.6669 64.0001L-16.0701 123.737L-1.22524 138.582Z" fill="url(#paint1_linear_23_171)"/>
<path opacity="0.2" d="M299.864 -44.2043L56.7607 198.899L136.213 278.351L379.316 35.2475L299.864 -44.2043Z" fill="url(#paint2_linear_23_171)"/>
<path opacity="0.1" d="M397.596 -34.5066L154.493 208.597L204.705 258.809L447.808 15.7052L397.596 -34.5066Z" fill="url(#paint3_linear_23_171)"/>
<path opacity="0.1" d="M-9.9263 18.2331L-9.92629 18.2317L-9.87366 0.832728C-9.87366 0.832437 -9.87365 0.832145 -9.87365 0.831854C-9.86572 -0.483322 -9.15889 -1.69553 -8.0177 -2.3544L7.1425 -11.1071C8.28374 -11.766 9.68702 -11.772 10.83 -11.1212C10.8302 -11.1211 10.8304 -11.121 10.8306 -11.1209L25.9249 -2.467L25.9261 -2.46631C27.0671 -1.81633 27.7608 -0.614754 27.7532 0.698394L27.7532 0.699782L27.7006 18.0987C27.7006 18.0989 27.7006 18.0991 27.7006 18.0992C27.6928 19.4145 26.9859 20.6269 25.8446 21.2858L10.6844 30.0386C9.5432 30.6975 8.13995 30.7035 6.99699 30.0527C6.99676 30.0526 6.99653 30.0525 6.9963 30.0523L-8.09795 21.3984L-8.09915 21.3978C-9.24018 20.7478 -9.93391 19.5462 -9.9263 18.2331Z" stroke="#EAF8FF"/>
<path d="M256 38L278 16" stroke="#EAF8FF" stroke-linecap="round"/>
<path d="M286 7L308 -15" stroke="#EAF8FF" stroke-linecap="round"/>
<circle cx="282" cy="12" r="2.5" stroke="#EAF8FF"/>
<path d="M7 185L43 149" stroke="#EAF8FF" stroke-linecap="round"/>
<path d="M-4 175L65.5 105.5" stroke="#0091DA" stroke-opacity="0.1" stroke-linecap="round"/>
<rect x="138" y="140" width="48" height="2" fill="white"/>
<rect x="144" y="125" width="36" height="15" fill="#1D428A"/>
<rect x="100" y="45" width="124" height="80" rx="9" stroke="white" stroke-width="2"/>
<rect x="219" y="59" width="11" height="10" fill="#01A5F7"/>
<g filter="url(#filter0_d_23_171)">
<rect x="109" y="55" width="29" height="4" rx="2" fill="#1D428A"/>
</g>
<g filter="url(#filter1_d_23_171)">
<rect x="188" y="106" width="29" height="4" rx="2" fill="#1D428A"/>
</g>
<g filter="url(#filter2_d_23_171)">
<rect x="109" y="63" width="17" height="4" rx="2" fill="#1D428A"/>
</g>
<g filter="url(#filter3_d_23_171)">
<rect x="188" y="114" width="17" height="4" rx="2" fill="#1D428A"/>
</g>
<path fill-rule="evenodd" clip-rule="evenodd" d="M160.501 105.381C161.167 105.765 162 105.284 162 104.514V85.8841C162 85.5247 161.807 85.193 161.495 85.0151L145.495 75.9029C144.828 75.5232 144 76.0047 144 76.7719V95.2926C144 95.6501 144.191 95.9804 144.501 96.159L160.501 105.381ZM146.05 75.0685C145.379 74.6861 145.376 73.719 146.046 73.3331L162.007 64.1336C162.316 63.9554 162.697 63.9555 163.006 64.1338L178.955 73.3328C179.624 73.7188 179.622 74.6856 178.95 75.068L162.995 84.1549C162.688 84.3297 162.312 84.3297 162.005 84.1549L146.05 75.0685ZM179.505 75.9029C180.172 75.5232 181 76.0047 181 76.7719V95.293C181 95.6504 180.809 95.9806 180.5 96.1592L164.5 105.388C163.833 105.772 163 105.291 163 104.521V85.8841C163 85.5247 163.193 85.193 163.505 85.0152L179.505 75.9029Z" fill="#1D428A"/>
<path d="M237.537 59.084C237.764 59.5938 237.594 60.1035 237.197 60.5L234.762 62.709C234.818 63.1621 234.875 63.6719 234.875 64.125C234.875 64.6348 234.818 65.1445 234.762 65.5977L237.197 67.8066C237.594 68.2031 237.764 68.7129 237.537 69.2227C237.311 69.9023 237.027 70.5254 236.688 71.1484L236.404 71.6016C236.008 72.2246 235.611 72.8477 235.158 73.4141C234.818 73.8105 234.252 73.9238 233.742 73.7539L230.627 72.791C229.834 73.3574 228.984 73.8105 228.135 74.207L227.398 77.4355C227.285 77.9453 226.889 78.3418 226.379 78.4551C225.586 78.5684 224.793 78.625 223.943 78.625C223.15 78.625 222.357 78.5684 221.564 78.4551C221.055 78.3418 220.658 77.9453 220.545 77.4355L219.809 74.207C218.959 73.8105 218.109 73.3574 217.316 72.791L214.201 73.7539C213.691 73.9238 213.125 73.8105 212.785 73.4141C212.332 72.8477 211.936 72.2246 211.539 71.6016L211.256 71.1484C210.916 70.5254 210.633 69.9023 210.406 69.2227C210.18 68.7129 210.35 68.2031 210.746 67.8066L213.182 65.5977C213.125 65.1445 213.125 64.6348 213.125 64.125C213.125 63.6719 213.125 63.1621 213.182 62.709L210.746 60.5C210.35 60.1035 210.18 59.5938 210.406 59.084C210.633 58.4043 210.916 57.7812 211.256 57.1582L211.539 56.7051C211.936 56.082 212.332 55.459 212.785 54.8926C213.125 54.4961 213.691 54.3828 214.201 54.5527L217.316 55.5156C218.109 54.9492 218.959 54.4395 219.809 54.0996L220.545 50.8711C220.658 50.3613 221.055 49.9648 221.564 49.8516C222.357 49.7383 223.15 49.625 224 49.625C224.793 49.625 225.586 49.7383 226.379 49.8516C226.889 49.9648 227.285 50.3613 227.398 50.8711L228.135 54.0996C228.984 54.4395 229.834 54.9492 230.627 55.5156L233.742 54.5527C234.252 54.3828 234.818 54.4961 235.158 54.8926C235.611 55.459 236.008 56.082 236.404 56.7051L236.688 57.1582C237.027 57.7812 237.311 58.4043 237.537 59.084ZM224 68.6562C226.492 68.6562 228.531 66.6738 228.531 64.125C228.531 61.6328 226.492 59.5938 224 59.5938C221.451 59.5938 219.469 61.6328 219.469 64.125C219.469 66.6738 221.451 68.6562 224 68.6562Z" fill="white"/>
<path d="M87.3333 95.5C87.3333 96.9728 88.5272 98.1667 90 98.1667C91.4728 98.1667 92.6667 96.9728 92.6667 95.5C92.6667 94.0272 91.4728 92.8333 90 92.8333C88.5272 92.8333 87.3333 94.0272 87.3333 95.5ZM107.333 136C107.333 137.473 108.527 138.667 110 138.667C111.473 138.667 112.667 137.473 112.667 136C112.667 134.527 111.473 133.333 110 133.333C108.527 133.333 107.333 134.527 107.333 136ZM89.5 95.5V111.5H90.5V95.5H89.5ZM94 116H106V115H94V116ZM109.5 119.5V136H110.5V119.5H109.5ZM106 116C107.933 116 109.5 117.567 109.5 119.5H110.5C110.5 117.015 108.485 115 106 115V116ZM89.5 111.5C89.5 113.985 91.5147 116 94 116V115C92.067 115 90.5 113.433 90.5 111.5H89.5Z" fill="white"/>
<path d="M112.667 85.5C112.667 86.9728 111.473 88.1667 110 88.1667C108.527 88.1667 107.333 86.9728 107.333 85.5C107.333 84.0272 108.527 82.8333 110 82.8333C111.473 82.8333 112.667 84.0272 112.667 85.5ZM90 106C89.7239 106 89.5 105.776 89.5 105.5C89.5 105.224 89.7239 105 90 105V106ZM110.5 85.5V101.5H109.5V85.5H110.5ZM106 106H90V105H106V106ZM110.5 101.5C110.5 103.985 108.485 106 106 106V105C107.933 105 109.5 103.433 109.5 101.5H110.5Z" fill="white"/>
</g>
<defs>
<filter id="filter0_d_23_171" x="97" y="51" width="53" height="28" filterUnits="userSpaceOnUse" color-interpolation-filters="sRGB">
<feFlood flood-opacity="0" result="BackgroundImageFix"/>
<feColorMatrix in="SourceAlpha" type="matrix" values="0 0 0 0 0 0 0 0 0 0 0 0 0 0 0 0 0 0 127 0" result="hardAlpha"/>
<feOffset dy="8"/>
<feGaussianBlur stdDeviation="6"/>
<feComposite in2="hardAlpha" operator="out"/>
<feColorMatrix type="matrix" values="0 0 0 0 0 0 0 0 0 0 0 0 0 0 0 0 0 0 0.32 0"/>
<feBlend mode="normal" in2="BackgroundImageFix" result="effect1_dropShadow_23_171"/>
<feBlend mode="normal" in="SourceGraphic" in2="effect1_dropShadow_23_171" result="shape"/>
</filter>
<filter id="filter1_d_23_171" x="176" y="102" width="53" height="28" filterUnits="userSpaceOnUse" color-interpolation-filters="sRGB">
<feFlood flood-opacity="0" result="BackgroundImageFix"/>
<feColorMatrix in="SourceAlpha" type="matrix" values="0 0 0 0 0 0 0 0 0 0 0 0 0 0 0 0 0 0 127 0" result="hardAlpha"/>
<feOffset dy="8"/>
<feGaussianBlur stdDeviation="6"/>
<feComposite in2="hardAlpha" operator="out"/>
<feColorMatrix type="matrix" values="0 0 0 0 0 0 0 0 0 0 0 0 0 0 0 0 0 0 0.32 0"/>
<feBlend mode="normal" in2="BackgroundImageFix" result="effect1_dropShadow_23_171"/>
<feBlend mode="normal" in="SourceGraphic" in2="effect1_dropShadow_23_171" result="shape"/>
</filter>
<filter id="filter2_d_23_171" x="97" y="59" width="41" height="28" filterUnits="userSpaceOnUse" color-interpolation-filters="sRGB">
<feFlood flood-opacity="0" result="BackgroundImageFix"/>
<feColorMatrix in="SourceAlpha" type="matrix" values="0 0 0 0 0 0 0 0 0 0 0 0 0 0 0 0 0 0 127 0" result="hardAlpha"/>
<feOffset dy="8"/>
<feGaussianBlur stdDeviation="6"/>
<feComposite in2="hardAlpha" operator="out"/>
<feColorMatrix type="matrix" values="0 0 0 0 0 0 0 0 0 0 0 0 0 0 0 0 0 0 0.32 0"/>
<feBlend mode="normal" in2="BackgroundImageFix" result="effect1_dropShadow_23_171"/>
<feBlend mode="normal" in="SourceGraphic" in2="effect1_dropShadow_23_171" result="shape"/>
</filter>
<filter id="filter3_d_23_171" x="176" y="110" width="41" height="28" filterUnits="userSpaceOnUse" color-interpolation-filters="sRGB">
<feFlood flood-opacity="0" result="BackgroundImageFix"/>
<feColorMatrix in="SourceAlpha" type="matrix" values="0 0 0 0 0 0 0 0 0 0 0 0 0 0 0 0 0 0 127 0" result="hardAlpha"/>
<feOffset dy="8"/>
<feGaussianBlur stdDeviation="6"/>
<feComposite in2="hardAlpha" operator="out"/>
<feColorMatrix type="matrix" values="0 0 0 0 0 0 0 0 0 0 0 0 0 0 0 0 0 0 0.32 0"/>
<feBlend mode="normal" in2="BackgroundImageFix" result="effect1_dropShadow_23_171"/>
<feBlend mode="normal" in="SourceGraphic" in2="effect1_dropShadow_23_171" result="shape"/>
</filter>
<linearGradient id="paint0_linear_23_171" x1="148.343" y1="41.4066" x2="214.82" y2="7.30615" gradientUnits="userSpaceOnUse">
<stop stop-color="#1C282E" stop-opacity="0"/>
<stop offset="1" stop-color="#1C282E"/>
</linearGradient>
<linearGradient id="paint1_linear_23_171" x1="51.9704" y1="76.4913" x2="-18.6538" y2="110.079" gradientUnits="userSpaceOnUse">
<stop stop-color="#1C282E" stop-opacity="0"/>
<stop offset="1" stop-color="#1C282E"/>
</linearGradient>
<linearGradient id="paint2_linear_23_171" x1="218.18" y1="0.551243" x2="212.78" y2="188.772" gradientUnits="userSpaceOnUse">
<stop stop-color="#1C282E" stop-opacity="0"/>
<stop offset="1" stop-color="#0091DA"/>
</linearGradient>
<linearGradient id="paint3_linear_23_171" x1="336.921" y1="14.2568" x2="364.93" y2="155.67" gradientUnits="userSpaceOnUse">
<stop stop-color="#1C282E" stop-opacity="0"/>
<stop offset="1" stop-color="#1C282E"/>
</linearGradient>
<clipPath id="clip0_23_171">
<rect width="328" height="184" rx="5" fill="white"/>
</clipPath>
</defs>
</svg>
