<svg width="328" height="184" viewBox="0 0 328 184" fill="none" xmlns="http://www.w3.org/2000/svg">
<g clip-path="url(#clip0_1194_252463)">
<rect width="328" height="184" fill="white"/>
<path opacity="0.1" d="M214.667 -38.9999L129 46.6667L152.503 70.1699L238.17 -15.4968L214.667 -38.9999Z" fill="url(#paint0_linear_1194_252463)"/>
<path opacity="0.1" d="M-1.22525 138.582L58.5117 78.845L43.6668 64.0001L-16.0701 123.737L-1.22525 138.582Z" fill="url(#paint1_linear_1194_252463)"/>
<path opacity="0.2" d="M299.864 -44.2043L56.7607 198.899L136.213 278.351L379.316 35.2475L299.864 -44.2043Z" fill="url(#paint2_linear_1194_252463)"/>
<path opacity="0.1" d="M397.596 -34.5066L154.493 208.597L204.705 258.809L447.808 15.7052L397.596 -34.5066Z" fill="url(#paint3_linear_1194_252463)"/>
<path d="M256 38L278 16" stroke="#0091DA" stroke-linecap="round"/>
<path d="M286 7L308 -15" stroke="#0091DA" stroke-linecap="round"/>
<circle cx="282" cy="12" r="2.5" stroke="#0091DA"/>
<path d="M7 185L43 149" stroke="#0091DA" stroke-linecap="round"/>
<path d="M-4 175L65.5 105.5" stroke="#0091DA" stroke-opacity="0.1" stroke-linecap="round"/>
<path d="M203 186L225 164" stroke="#0091DA" stroke-linecap="round"/>
<path d="M233 155L255 133" stroke="#0091DA" stroke-linecap="round"/>
<circle cx="229" cy="160" r="2.5" stroke="#0091DA"/>
<g clip-path="url(#clip1_1194_252463)">
<path d="M189.262 78.5207L189.215 81.2592L191.889 81.8516C201.45 83.9699 208.599 92.5014 208.599 102.696C208.599 114.488 199.039 124.047 187.247 124.047H116.763C107.7 124.047 100.353 116.7 100.353 107.637C100.353 100.587 104.8 94.5693 111.053 92.2479L113.397 91.3779L113.232 88.8831C113.208 88.5196 113.194 88.189 113.194 87.8734C113.194 79.59 119.909 72.8746 128.193 72.8746C130.85 72.8746 133.336 73.5669 135.497 74.777L139.412 76.9686L140.405 72.5931C142.904 61.5754 152.76 53.3527 164.53 53.3527C178.192 53.3527 189.268 64.4285 189.268 78.0911C189.268 78.1988 189.266 78.3051 189.264 78.4455L189.262 78.5207Z" stroke="#00AAFF" stroke-width="6.70549"/>
</g>
<g clip-path="url(#clip2_1194_252463)">
<path d="M214.713 96.0758C214.716 95.9446 214.718 95.8136 214.718 95.682C214.718 83.1413 204.552 72.975 192.011 72.975C181.204 72.975 172.162 80.5251 169.868 90.6383C167.729 89.4409 165.265 88.7552 162.639 88.7552C154.446 88.7552 147.805 95.3969 147.805 103.589C147.805 103.924 147.82 104.255 147.842 104.585C141.76 106.842 137.425 112.697 137.425 119.565C137.425 128.388 144.577 135.54 153.4 135.54H210.375C221.403 135.54 230.344 126.599 230.344 115.571C230.344 106.032 223.656 98.057 214.713 96.0758Z" fill="#00AAFF"/>
<path d="M198.938 105.438C199.188 106 199 106.562 198.562 107L195.875 109.438C195.938 109.938 196 110.5 196 111C196 111.562 195.938 112.125 195.875 112.625L198.562 115.062C199 115.5 199.188 116.062 198.938 116.625C198.688 117.375 198.375 118.062 198 118.75L197.688 119.25C197.25 119.938 196.812 120.625 196.312 121.25C195.938 121.688 195.312 121.812 194.75 121.625L191.312 120.562C190.438 121.188 189.5 121.688 188.562 122.125L187.75 125.688C187.625 126.25 187.188 126.688 186.625 126.812C185.75 126.938 184.875 127 183.938 127C183.062 127 182.188 126.938 181.312 126.812C180.75 126.688 180.312 126.25 180.188 125.688L179.375 122.125C178.438 121.688 177.5 121.188 176.625 120.562L173.188 121.625C172.625 121.812 172 121.688 171.625 121.25C171.125 120.625 170.688 119.938 170.25 119.25L169.938 118.75C169.562 118.062 169.25 117.375 169 116.625C168.75 116.062 168.938 115.5 169.375 115.062L172.062 112.625C172 112.125 172 111.562 172 111C172 110.5 172 109.938 172.062 109.438L169.375 107C168.938 106.562 168.75 106 169 105.438C169.25 104.688 169.562 104 169.938 103.312L170.25 102.812C170.688 102.125 171.125 101.438 171.625 100.812C172 100.375 172.625 100.25 173.188 100.438L176.625 101.5C177.5 100.875 178.438 100.312 179.375 99.9375L180.188 96.375C180.312 95.8125 180.75 95.375 181.312 95.25C182.188 95.125 183.062 95 184 95C184.875 95 185.75 95.125 186.625 95.25C187.188 95.375 187.625 95.8125 187.75 96.375L188.562 99.9375C189.5 100.312 190.438 100.875 191.312 101.5L194.75 100.438C195.312 100.25 195.938 100.375 196.312 100.812C196.812 101.438 197.25 102.125 197.688 102.812L198 103.312C198.375 104 198.688 104.688 198.938 105.438ZM184 116C186.75 116 189 113.812 189 111C189 108.25 186.75 106 184 106C181.188 106 179 108.25 179 111C179 113.812 181.188 116 184 116Z" fill="#EAF8FF"/>
</g>
<path opacity="0.1" d="M35.9727 59.5977C34.1929 59.5977 32.75 58.1548 32.75 56.375V35.5352C32.75 33.7554 34.1929 32.3125 35.9727 32.3125C37.7524 32.3125 39.1953 33.7554 39.1953 35.5352V56.375C39.1953 58.1548 37.7524 59.5977 35.9727 59.5977Z" fill="#00AAFF"/>
<path opacity="0.1" d="M49.7227 59.5977C47.9429 59.5977 46.5 58.1548 46.5 56.375V45.8477C46.5 44.0679 47.9429 42.625 49.7227 42.625C51.5024 42.625 52.9453 44.0679 52.9453 45.8477V56.375C52.9453 58.1548 51.5024 59.5977 49.7227 59.5977Z" fill="#00AAFF"/>
<path opacity="0.1" d="M22.2227 59.5977C20.4429 59.5977 19 58.1548 19 56.375V25.2227C19 23.4429 20.4429 22 22.2227 22C24.0024 22 25.4453 23.4429 25.4453 25.2227V56.375C25.4453 58.1548 24.0024 59.5977 22.2227 59.5977Z" fill="#00AAFF"/>
<path d="M48.9356 110.764L48.9356 110.762L48.9614 102.237C48.9614 102.236 48.9614 102.236 48.9614 102.236C48.9649 101.683 49.2624 101.172 49.7435 100.894L57.1728 96.6048C57.6539 96.327 58.2449 96.3247 58.7259 96.5984C58.7261 96.5986 58.7263 96.5987 58.7265 96.5988L66.1229 100.839L66.1241 100.84C66.6032 101.113 66.894 101.617 66.8908 102.168L66.8908 102.169L66.865 110.695C66.865 110.695 66.865 110.695 66.865 110.696C66.8616 111.249 66.5641 111.76 66.0829 112.038L58.6536 116.327C58.1725 116.605 57.5814 116.607 57.1003 116.333C57.1002 116.333 57.1 116.333 57.0999 116.333L49.7035 112.092L49.7023 112.092C49.2232 111.819 48.9324 111.315 48.9356 110.764Z" stroke="#00AAFF"/>
<g filter="url(#filter0_f_1194_252463)">
<path d="M221.793 32.1825L221.808 27.2949C221.808 27.2947 221.808 27.2946 221.808 27.2945C221.81 26.9641 221.987 26.6594 222.274 26.4937L226.533 24.0348C226.82 23.8691 227.173 23.8676 227.46 24.0311C227.46 24.0311 227.46 24.0312 227.46 24.0312L231.701 26.4622L231.701 26.4626C231.987 26.6256 232.161 26.9265 232.159 27.2558L232.159 27.2565L232.144 32.1442C232.144 32.1442 232.144 32.1443 232.144 32.1444C232.142 32.4748 231.965 32.7796 231.678 32.9453L227.419 35.4042C227.132 35.5699 226.779 35.5714 226.492 35.4079C226.492 35.4079 226.492 35.4078 226.492 35.4078L222.251 32.9768L222.251 32.9764C221.965 32.8134 221.791 32.5125 221.793 32.1832L221.793 32.1825Z" stroke="#00AAFF" stroke-width="0.5"/>
</g>
</g>
<defs>
<filter id="filter0_f_1194_252463" x="219.543" y="21.6595" width="14.8664" height="16.12" filterUnits="userSpaceOnUse" color-interpolation-filters="sRGB">
<feFlood flood-opacity="0" result="BackgroundImageFix"/>
<feBlend mode="normal" in="SourceGraphic" in2="BackgroundImageFix" result="shape"/>
<feGaussianBlur stdDeviation="1" result="effect1_foregroundBlur_1194_252463"/>
</filter>
<linearGradient id="paint0_linear_1194_252463" x1="148.343" y1="41.4066" x2="214.82" y2="7.30615" gradientUnits="userSpaceOnUse">
<stop stop-color="#0091DA" stop-opacity="0"/>
<stop offset="1" stop-color="#0091DA"/>
</linearGradient>
<linearGradient id="paint1_linear_1194_252463" x1="51.9704" y1="76.4914" x2="-18.6538" y2="110.079" gradientUnits="userSpaceOnUse">
<stop stop-color="#0091DA" stop-opacity="0"/>
<stop offset="1" stop-color="#0091DA"/>
</linearGradient>
<linearGradient id="paint2_linear_1194_252463" x1="218.18" y1="0.551273" x2="212.78" y2="188.772" gradientUnits="userSpaceOnUse">
<stop stop-color="#0091DA" stop-opacity="0"/>
<stop offset="1" stop-color="#0091DA"/>
</linearGradient>
<linearGradient id="paint3_linear_1194_252463" x1="336.921" y1="14.2568" x2="364.93" y2="155.67" gradientUnits="userSpaceOnUse">
<stop stop-color="#0091DA" stop-opacity="0"/>
<stop offset="1" stop-color="#0091DA"/>
</linearGradient>
<clipPath id="clip0_1194_252463">
<rect width="328" height="184" fill="white"/>
</clipPath>
<clipPath id="clip1_1194_252463">
<rect width="117" height="77" fill="white" transform="translate(97 50)"/>
</clipPath>
<clipPath id="clip2_1194_252463">
<rect width="94" height="62" fill="white" transform="translate(137 73)"/>
</clipPath>
</defs>
</svg>
