<svg width="328" height="184" viewBox="0 0 328 184" fill="none" xmlns="http://www.w3.org/2000/svg">
<g clip-path="url(#clip0_1194_254681)">
<rect width="328" height="184" fill="#00AAFF"/>
<path opacity="0.1" d="M214.667 -38.9999L129 46.6667L152.503 70.1699L238.17 -15.4968L214.667 -38.9999Z" fill="url(#paint0_linear_1194_254681)"/>
<path opacity="0.1" d="M-1.22524 138.582L58.5117 78.845L43.6669 64.0001L-16.0701 123.737L-1.22524 138.582Z" fill="url(#paint1_linear_1194_254681)"/>
<path opacity="0.2" d="M299.864 -44.2043L56.7607 198.899L136.213 278.351L379.316 35.2475L299.864 -44.2043Z" fill="url(#paint2_linear_1194_254681)"/>
<path opacity="0.1" d="M397.596 -34.5066L154.493 208.597L204.705 258.809L447.808 15.7052L397.596 -34.5066Z" fill="url(#paint3_linear_1194_254681)"/>
<path opacity="0.1" d="M-9.9263 18.233L-9.92629 18.2316L-9.87366 0.832713C-9.87366 0.832422 -9.87365 0.83213 -9.87365 0.831839C-9.86572 -0.483337 -9.15889 -1.69555 -8.0177 -2.35442L7.1425 -11.1072C8.28374 -11.766 9.68702 -11.772 10.83 -11.1212C10.8302 -11.1211 10.8304 -11.121 10.8306 -11.1209L25.9249 -2.46701L25.9261 -2.46632C27.0671 -1.81634 27.7608 -0.614769 27.7532 0.698379L27.7532 0.699767L27.7006 18.0987C27.7006 18.0989 27.7006 18.099 27.7006 18.0992C27.6928 19.4145 26.9859 20.6269 25.8446 21.2858L10.6844 30.0386C9.5432 30.6975 8.13995 30.7035 6.99699 30.0527C6.99676 30.0526 6.99653 30.0524 6.9963 30.0523L-8.09795 21.3984L-8.09915 21.3977C-9.24018 20.7478 -9.93391 19.5462 -9.9263 18.233Z" stroke="#EAF8FF"/>
<path d="M256 38L278 16" stroke="#EAF8FF" stroke-linecap="round"/>
<path d="M286 7L308 -15" stroke="#EAF8FF" stroke-linecap="round"/>
<circle cx="282" cy="12" r="2.5" stroke="#EAF8FF"/>
<path d="M7 185L43 149" stroke="#EAF8FF" stroke-linecap="round"/>
<path d="M-4 175L65.5 105.5" stroke="#0091DA" stroke-opacity="0.1" stroke-linecap="round"/>
<g filter="url(#filter0_d_1194_254681)">
<rect x="116" y="65" width="96" height="65" rx="2" fill="#8ECAEA"/>
</g>
<path d="M169.5 76.5714C162.58 76.5714 157 74.6183 157 72.1071V52.4643C157 50.0089 162.58 48 169.5 48C176.364 48 182 50.0089 182 52.4643V72.1071C182 74.6183 176.364 76.5714 169.5 76.5714ZM181.107 72.1071V67.0848C180.047 67.7545 178.596 68.3125 176.922 68.7589C174.801 69.2612 172.234 69.5402 169.5 69.5402C166.71 69.5402 164.143 69.2612 162.022 68.7589C160.348 68.3125 158.897 67.7545 157.893 67.0848V72.1071C157.893 72.3862 158.004 72.721 158.507 73.1674C159.065 73.6138 159.846 74.0603 160.906 74.4509C163.083 75.2321 166.096 75.6786 169.5 75.6786C172.848 75.6786 175.862 75.2321 178.038 74.4509C179.098 74.0603 179.879 73.6138 180.437 73.1674C180.94 72.721 181.107 72.3862 181.107 72.1071ZM176.922 60.7232C174.801 61.2254 172.234 61.5045 169.5 61.5045C166.71 61.5045 164.143 61.2254 162.022 60.7232C160.348 60.2768 158.897 59.7188 157.893 59.0491V66.0246C158.786 66.75 160.292 67.3638 162.246 67.8661C164.254 68.3683 166.766 68.6473 169.5 68.6473C172.179 68.6473 174.69 68.3683 176.699 67.8661C178.652 67.3638 180.158 66.75 181.107 66.0246V59.0491C180.047 59.7188 178.596 60.2768 176.922 60.7232ZM181.107 57.9888V52.4643C181.107 52.2411 180.94 51.9063 180.437 51.4598C179.879 51.0134 179.098 50.567 178.038 50.1763C175.862 49.3951 172.848 48.8929 169.5 48.8929C166.096 48.8929 163.083 49.3951 160.906 50.1763C159.846 50.567 159.065 51.0134 158.507 51.4598C158.004 51.9063 157.893 52.2411 157.893 52.4643V57.9888C158.786 58.7143 160.292 59.3281 162.246 59.8304C164.254 60.3326 166.766 60.6116 169.5 60.6116C172.179 60.6116 174.69 60.3326 176.699 59.8304C178.652 59.3281 180.158 58.7143 181.107 57.9888Z" fill="#EAF8FF"/>
<path d="M208.714 59.3929C208.212 59.3929 207.821 59.0022 207.821 58.5V46.8929C207.821 46.4464 208.156 46.0558 208.603 46.0558L208.714 46C215.578 46 221.214 51.6362 221.214 58.5L221.158 58.6116C221.158 59.058 220.768 59.3929 220.321 59.3929H208.714ZM220.321 58.5C220.321 52.1384 215.076 46.8929 208.714 46.8929V58.5H220.321ZM205.143 48.7902V62.0714L213.848 70.8326C214.239 71.2232 214.183 71.8371 213.792 72.1161C211.56 73.6786 208.882 74.5714 206.036 74.5714C198.614 74.5714 192.643 68.6004 192.643 61.1786C192.643 54.4263 197.665 48.846 204.138 47.9531C204.696 47.8415 205.143 48.2879 205.143 48.7902ZM204.473 62.7411C204.306 62.5737 204.25 62.3504 204.25 62.0714V48.846C198.167 49.683 193.536 54.9286 193.536 61.1786C193.536 68.0982 199.116 73.6786 206.036 73.6786C208.658 73.6786 211.17 72.8415 213.179 71.4464L204.473 62.7411ZM218.703 71C218.368 71.279 217.866 71.279 217.531 70.9442L210.221 63.6339C209.663 63.0759 210.054 62.0714 210.835 62.0714H221.996C222.498 62.0714 222.944 62.5179 222.833 63.0201C222.442 66.1451 220.935 68.9353 218.703 71ZM218.145 70.2746C220.154 68.3772 221.549 65.8661 221.94 62.9643H210.835L218.145 70.2746Z" fill="#EAF8FF"/>
<rect opacity="0.5" x="148" y="98" width="57" height="26" rx="2" fill="#EAF8FF"/>
<line x1="154.625" y1="108" x2="154.625" y2="138" stroke="#EAF8FF" stroke-width="1.25"/>
<line x1="159.625" y1="111.75" x2="159.625" y2="138" stroke="#EAF8FF" stroke-width="1.25"/>
<line x1="164.625" y1="110.5" x2="164.625" y2="138" stroke="#EAF8FF" stroke-width="1.25"/>
<line x1="169.625" y1="104.25" x2="169.625" y2="138" stroke="#EAF8FF" stroke-width="1.25"/>
<line x1="174.625" y1="106.75" x2="174.625" y2="138" stroke="#EAF8FF" stroke-width="1.25"/>
<line x1="179.625" y1="105.5" x2="179.625" y2="138" stroke="#EAF8FF" stroke-width="1.25"/>
<line x1="184.625" y1="103" x2="184.625" y2="138" stroke="#EAF8FF" stroke-width="1.25"/>
<line x1="189.625" y1="114.25" x2="189.625" y2="138" stroke="#EAF8FF" stroke-width="1.25"/>
<line x1="194.625" y1="110.5" x2="194.625" y2="138" stroke="#EAF8FF" stroke-width="1.25"/>
<line x1="199.625" y1="115.5" x2="199.625" y2="138" stroke="#EAF8FF" stroke-width="1.25"/>
<line x1="204.625" y1="113" x2="204.625" y2="138" stroke="#EAF8FF" stroke-width="1.25"/>
<line x1="209.625" y1="115.5" x2="209.625" y2="138" stroke="#EAF8FF" stroke-width="1.25"/>
<line x1="214.625" y1="109.25" x2="214.625" y2="138" stroke="#EAF8FF" stroke-width="1.25"/>
<line x1="219.625" y1="111.75" x2="219.625" y2="138" stroke="#EAF8FF" stroke-width="1.25"/>
<line x1="224.625" y1="126" x2="224.625" y2="138" stroke="#EAF8FF" stroke-width="1.25"/>
<rect x="148" y="82" width="57" height="10" rx="2" fill="#EAF8FF"/>
<rect x="105" y="56" width="37" height="82" rx="2" fill="#1D428A"/>
<path d="M112 86H134.5" stroke="#EAF8FF"/>
<path d="M112 94H128" stroke="#EAF8FF"/>
<path d="M112 102H130" stroke="#EAF8FF"/>
<path d="M112 110H131" stroke="#EAF8FF"/>
<path d="M112 118H134.5" stroke="#EAF8FF"/>
<path d="M112 126H130" stroke="#EAF8FF"/>
<path d="M123.5 63L129.995 66.75V74.25L123.5 78L117.005 74.25V66.75L123.5 63Z" fill="#EAF8FF"/>
<line x1="240" y1="140.5" x2="266" y2="140.5" stroke="#EAF8FF"/>
<line x1="240" y1="148.5" x2="256" y2="148.5" stroke="#EAF8FF"/>
<line x1="240" y1="156.5" x2="266" y2="156.5" stroke="#EAF8FF"/>
<g opacity="0.1">
<line x1="48" y1="52.5" x2="74" y2="52.5" stroke="#EAF8FF"/>
<line x1="48" y1="60.5" x2="64" y2="60.5" stroke="#EAF8FF"/>
<line x1="48" y1="68.5" x2="74" y2="68.5" stroke="#EAF8FF"/>
</g>
<g opacity="0.15">
<circle cx="4" cy="4" r="3.5" transform="matrix(1.19249e-08 -1 -1 -1.19249e-08 245.75 130.75)" stroke="#EAF8FF"/>
<path d="M241.75 120.25L241.75 100.25L234.25 92.75" stroke="#EAF8FF"/>
</g>
<path d="M97.5 88H77C77 88 77 68.5 77 66" stroke="#EAF8FF"/>
<rect x="61.5" y="28.5" width="13" height="13" stroke="#EAF8FF"/>
<rect x="79.5" y="28.5" width="13" height="13" stroke="#EAF8FF"/>
<rect x="61.5" y="46.5" width="13" height="13" stroke="#EAF8FF"/>
<rect x="79.5" y="46.5" width="13" height="13" stroke="#EAF8FF"/>
</g>
<defs>
<filter id="filter0_d_1194_254681" x="92" y="57" width="144" height="113" filterUnits="userSpaceOnUse" color-interpolation-filters="sRGB">
<feFlood flood-opacity="0" result="BackgroundImageFix"/>
<feColorMatrix in="SourceAlpha" type="matrix" values="0 0 0 0 0 0 0 0 0 0 0 0 0 0 0 0 0 0 127 0" result="hardAlpha"/>
<feOffset dy="16"/>
<feGaussianBlur stdDeviation="12"/>
<feComposite in2="hardAlpha" operator="out"/>
<feColorMatrix type="matrix" values="0 0 0 0 0 0 0 0 0 0 0 0 0 0 0 0 0 0 0.32 0"/>
<feBlend mode="normal" in2="BackgroundImageFix" result="effect1_dropShadow_1194_254681"/>
<feBlend mode="normal" in="SourceGraphic" in2="effect1_dropShadow_1194_254681" result="shape"/>
</filter>
<linearGradient id="paint0_linear_1194_254681" x1="148.343" y1="41.4066" x2="214.82" y2="7.30613" gradientUnits="userSpaceOnUse">
<stop stop-color="#1C282E" stop-opacity="0"/>
<stop offset="1" stop-color="#1C282E"/>
</linearGradient>
<linearGradient id="paint1_linear_1194_254681" x1="51.9704" y1="76.4913" x2="-18.6538" y2="110.079" gradientUnits="userSpaceOnUse">
<stop stop-color="#1C282E" stop-opacity="0"/>
<stop offset="1" stop-color="#1C282E"/>
</linearGradient>
<linearGradient id="paint2_linear_1194_254681" x1="218.18" y1="0.551243" x2="212.78" y2="188.772" gradientUnits="userSpaceOnUse">
<stop stop-color="#1C282E" stop-opacity="0"/>
<stop offset="1" stop-color="#0091DA"/>
</linearGradient>
<linearGradient id="paint3_linear_1194_254681" x1="336.921" y1="14.2568" x2="364.93" y2="155.67" gradientUnits="userSpaceOnUse">
<stop stop-color="#1C282E" stop-opacity="0"/>
<stop offset="1" stop-color="#1C282E"/>
</linearGradient>
<clipPath id="clip0_1194_254681">
<rect width="328" height="184" fill="white"/>
</clipPath>
</defs>
</svg>
