<svg width="328" height="184" viewBox="0 0 328 184" fill="none" xmlns="http://www.w3.org/2000/svg">
<g clip-path="url(#clip0_1194_255958)">
<path d="M328 -0.209961H0V184.29H328V-0.209961Z" fill="#1C282E"/>
<path opacity="0.1" d="M214.667 -38.9999L129 46.6667L152.503 70.1699L238.17 -15.4968L214.667 -38.9999Z" fill="url(#paint0_linear_1194_255958)"/>
<path opacity="0.1" d="M-1.2253 138.582L58.5117 78.845L43.6668 64.0001L-16.0702 123.737L-1.2253 138.582Z" fill="url(#paint1_linear_1194_255958)"/>
<path opacity="0.2" d="M299.864 -44.2043L56.7607 198.899L136.212 278.351L379.316 35.2475L299.864 -44.2043Z" fill="url(#paint2_linear_1194_255958)"/>
<path opacity="0.1" d="M397.596 -34.5066L154.493 208.597L204.705 258.809L447.808 15.7052L397.596 -34.5066Z" fill="url(#paint3_linear_1194_255958)"/>
<path opacity="0.1" d="M-9.92636 18.233L-9.92635 18.2316L-9.87372 0.832712C-9.87372 0.832514 -9.87371 0.832315 -9.87371 0.832116C-9.86588 -0.483167 -9.15903 -1.6955 -8.01776 -2.35442L7.14244 -11.1072C8.28373 -11.7661 9.68708 -11.772 10.8301 -11.1212C10.8302 -11.1211 10.8304 -11.121 10.8306 -11.1209L25.9248 -2.46701L25.926 -2.46633C27.067 -1.81635 27.7608 -0.614771 27.7532 0.698377L27.7532 0.699765L27.7005 18.0987C27.7005 18.0989 27.7005 18.099 27.7005 18.0992C27.6927 19.4145 26.9859 20.6269 25.8446 21.2858L10.6844 30.0386C9.54314 30.6975 8.13989 30.7035 6.99693 30.0527C6.9967 30.0526 6.99647 30.0524 6.99624 30.0523L-8.09801 21.3984L-8.09922 21.3977C-9.24024 20.7478 -9.93397 19.5462 -9.92636 18.233Z" stroke="#00AAFF"/>
<path d="M276 17L308 -15" stroke="#0091DA" stroke-linecap="round"/>
<path d="M7 185L43 149" stroke="#0091DA" stroke-linecap="round"/>
<path d="M-4 175L65.5 105.5" stroke="#0091DA" stroke-opacity="0.1" stroke-linecap="round"/>
<path d="M203 186L225 164" stroke="#0091DA" stroke-linecap="round"/>
<path d="M233 155L255 133" stroke="#0091DA" stroke-linecap="round"/>
<circle cx="229" cy="160" r="2.5" stroke="#0091DA"/>
<path d="M199.316 68.8309C198.828 67.2674 197.655 65.9971 196.189 65.2153L166.385 50.9484C165.604 50.5576 164.724 50.4598 163.942 50.4598C163.161 50.4598 162.281 50.4598 161.499 50.6553L131.695 65.0199C130.23 65.7039 129.155 66.9742 128.764 68.6354L121.435 100.785C121.142 102.446 121.533 104.107 122.51 105.475L143.128 130.98C144.301 132.152 145.962 132.934 147.623 133.032H180.457C182.216 133.227 183.877 132.446 184.952 130.98L205.57 105.475C206.548 104.107 206.938 102.446 206.743 100.785L199.316 68.8309Z" fill="#0091DA"/>
<path d="M194.724 99.5144C194.626 99.5144 194.528 99.5144 194.528 99.4167C194.528 99.319 194.333 99.319 194.137 99.319C193.747 99.2213 193.356 99.2213 192.965 99.2213C192.769 99.2213 192.574 99.2213 192.378 99.1236H192.281C191.206 99.0258 190.033 98.8304 188.958 98.5372C188.665 98.4395 188.372 98.1464 188.274 97.8532L187.493 97.6578C187.883 94.8239 187.688 91.8924 187.102 89.0586C186.418 86.2247 185.245 83.4886 183.682 81.0457L184.268 80.4594V80.3616C184.268 80.0685 184.366 79.6776 184.561 79.4822C185.44 78.7004 186.32 78.1141 187.297 77.5278C187.493 77.4301 187.688 77.3324 187.883 77.2347C188.274 77.0392 188.567 76.8438 188.958 76.6483C189.056 76.5506 189.154 76.5506 189.251 76.4529C189.349 76.3552 189.251 76.3552 189.251 76.2575C190.131 75.5734 190.326 74.4008 189.642 73.5214C189.349 73.1305 188.763 72.8373 188.274 72.8373C187.786 72.8373 187.297 73.0328 186.906 73.3259L186.809 73.4236C186.711 73.5214 186.613 73.6191 186.515 73.6191C186.222 73.9122 185.929 74.2054 185.734 74.4985C185.636 74.694 185.44 74.7917 185.343 74.8894C184.659 75.6712 183.779 76.4529 182.9 77.0392C182.704 77.1369 182.509 77.2347 182.313 77.2347C182.216 77.2347 182.02 77.2347 181.923 77.1369H181.825L181.043 77.6255C180.261 76.8438 179.382 76.062 178.6 75.2803C174.985 72.4465 170.49 70.6875 165.897 70.1989L165.799 69.4172V69.5149C165.506 69.3195 165.408 69.0263 165.311 68.7332C165.311 67.6583 165.311 66.5834 165.506 65.4107V65.313C165.506 65.1176 165.604 64.9221 165.604 64.7267C165.701 64.3358 165.701 63.945 165.799 63.5541V62.9678C165.897 61.9906 165.115 61.0134 164.138 60.9157C163.552 60.818 162.965 61.1111 162.477 61.5997C162.086 61.9906 161.89 62.4792 161.89 62.9678V63.4564C161.89 63.8472 161.988 64.2381 162.086 64.629C162.184 64.8244 162.184 65.0199 162.184 65.2153V65.313C162.379 66.3879 162.379 67.4628 162.379 68.6354C162.281 68.9286 162.184 69.2218 161.89 69.4172V69.6126L161.793 70.3944C160.718 70.4921 159.643 70.6875 158.47 70.883C153.877 71.8601 149.676 74.3031 146.451 77.7232L145.865 77.3324H145.767C145.669 77.3324 145.571 77.4301 145.376 77.4301C145.181 77.4301 144.985 77.3324 144.79 77.2347C143.91 76.5506 143.031 75.7689 142.347 74.9871C142.249 74.7917 142.054 74.694 141.956 74.5963C141.663 74.3031 141.467 74.0099 141.174 73.7168C141.076 73.6191 140.979 73.6191 140.881 73.5214C140.783 73.4236 140.783 73.4236 140.783 73.4236C140.392 73.1305 139.904 72.935 139.415 72.935C138.829 72.935 138.34 73.1305 138.047 73.6191C137.461 74.4985 137.656 75.6712 138.438 76.3552C138.536 76.3552 138.536 76.4529 138.536 76.4529C138.536 76.4529 138.731 76.6483 138.829 76.6483C139.122 76.8438 139.513 77.0392 139.904 77.2347C140.099 77.3324 140.295 77.4301 140.49 77.5278C141.467 78.1141 142.444 78.7004 143.226 79.4822C143.422 79.6776 143.617 80.0685 143.519 80.3616V80.2639L144.106 80.8502C144.008 81.0457 143.91 81.1434 143.813 81.3388C140.783 86.127 139.513 91.7947 140.392 97.3646L139.611 97.5601C139.611 97.6578 139.513 97.6578 139.513 97.6578C139.415 97.9509 139.122 98.1464 138.829 98.3418C137.754 98.635 136.679 98.8304 135.506 98.9281C135.311 98.9281 135.116 98.9281 134.92 99.0258C134.529 99.0258 134.138 99.1236 133.748 99.1236C133.65 99.1236 133.552 99.2213 133.357 99.2213C133.259 99.2213 133.259 99.2213 133.161 99.319C132.086 99.5144 131.402 100.492 131.598 101.567C131.793 102.446 132.673 103.032 133.552 102.935C133.748 102.935 133.845 102.935 134.041 102.837C134.138 102.837 134.138 102.837 134.138 102.739C134.138 102.641 134.432 102.739 134.529 102.739C134.92 102.641 135.311 102.446 135.604 102.348C135.8 102.251 135.995 102.153 136.19 102.153H136.288C137.363 101.762 138.34 101.469 139.513 101.273H139.611C139.904 101.273 140.197 101.371 140.392 101.567C140.49 101.567 140.49 101.664 140.49 101.664L141.37 101.567C142.835 106.062 145.571 110.068 149.382 113C150.262 113.684 151.044 114.27 152.021 114.758L151.532 115.443C151.532 115.54 151.63 115.54 151.63 115.54C151.825 115.833 151.825 116.224 151.728 116.517C151.337 117.495 150.751 118.472 150.164 119.351V119.449C150.066 119.644 149.969 119.742 149.773 119.938C149.578 120.133 149.382 120.524 149.089 120.915C148.992 121.012 148.992 121.11 148.894 121.208C148.894 121.208 148.894 121.306 148.796 121.306C148.308 122.283 148.698 123.455 149.578 123.944C149.773 124.042 150.066 124.139 150.262 124.139C151.044 124.139 151.728 123.651 152.119 122.967C152.119 122.967 152.119 122.869 152.216 122.869C152.216 122.771 152.314 122.674 152.412 122.576C152.509 122.185 152.705 121.892 152.803 121.501L152.998 120.915C153.291 119.84 153.78 118.863 154.268 117.885C154.464 117.592 154.757 117.397 155.05 117.299C155.148 117.299 155.148 117.299 155.148 117.201L155.539 116.42C158.275 117.495 161.109 117.983 164.04 117.983C165.799 117.983 167.558 117.788 169.317 117.299C170.392 117.104 171.467 116.713 172.444 116.42L172.835 117.104C172.933 117.104 172.933 117.104 172.933 117.201C173.226 117.299 173.519 117.495 173.714 117.788C174.203 118.765 174.691 119.742 174.985 120.817V120.915L175.18 121.501C175.278 121.892 175.375 122.283 175.571 122.576C175.669 122.674 175.669 122.771 175.766 122.869C175.766 122.869 175.766 122.967 175.864 122.967C176.255 123.651 176.939 124.139 177.721 124.139C178.014 124.139 178.209 124.042 178.502 123.944C178.893 123.749 179.284 123.358 179.382 122.869C179.48 122.381 179.48 121.892 179.284 121.403C179.284 121.306 179.187 121.306 179.187 121.306C179.187 121.208 179.089 121.11 178.991 121.012C178.796 120.622 178.6 120.328 178.307 120.035C178.209 119.84 178.112 119.742 177.916 119.547V119.351C177.232 118.472 176.744 117.495 176.353 116.517C176.255 116.224 176.255 115.833 176.45 115.54C176.45 115.443 176.548 115.443 176.548 115.443L176.255 114.661C181.239 111.631 185.05 106.941 186.809 101.371L187.59 101.469C187.688 101.469 187.688 101.371 187.688 101.371C187.883 101.176 188.177 101.078 188.47 101.078H188.567C189.642 101.273 190.717 101.567 191.694 101.957H191.792C191.988 102.055 192.183 102.153 192.378 102.153C192.769 102.348 193.062 102.544 193.453 102.641C193.551 102.641 193.649 102.739 193.844 102.739C193.942 102.739 193.942 102.739 194.04 102.837C194.235 102.935 194.333 102.935 194.528 102.935C195.408 102.935 196.189 102.348 196.483 101.567C196.385 100.492 195.603 99.7099 194.724 99.5144ZM166.483 96.4852L163.845 97.7555L161.206 96.4852L160.522 93.6513L162.379 91.3061H165.311L167.167 93.6513L166.483 96.4852ZM182.411 90.1335C182.9 92.1856 182.998 94.2376 182.802 96.2897L173.519 93.6513C172.639 93.4559 172.151 92.5764 172.346 91.697C172.444 91.4038 172.542 91.2084 172.737 91.0129L180.066 84.3681C181.141 86.127 181.923 88.0814 182.411 90.1335ZM177.134 80.7525L169.122 86.4202C168.438 86.811 167.46 86.7133 166.972 86.0293C166.776 85.8339 166.679 85.6384 166.679 85.3453L166.092 75.4757C170.392 75.9643 174.203 77.821 177.134 80.7525ZM159.447 75.7689L161.402 75.378L160.913 85.1498C160.913 86.0293 160.131 86.7133 159.252 86.7133C158.959 86.7133 158.763 86.6156 158.47 86.5179L150.36 80.7525C152.9 78.3096 156.027 76.5506 159.447 75.7689ZM147.526 84.3681L154.757 90.8175C155.441 91.4038 155.539 92.381 154.952 93.065C154.757 93.3582 154.562 93.4559 154.171 93.5536L144.692 96.2897C144.399 92.1856 145.376 87.9837 147.526 84.3681ZM145.865 100.882L155.539 99.2213C156.32 99.2213 157.102 99.7099 157.2 100.492C157.298 100.785 157.298 101.176 157.102 101.469L153.389 110.459C149.969 108.211 147.233 104.791 145.865 100.882ZM168.047 113C166.679 113.293 165.311 113.488 163.845 113.488C161.793 113.488 159.643 113.097 157.688 112.511L162.477 103.814C162.965 103.228 163.747 103.032 164.431 103.423C164.724 103.619 164.92 103.814 165.213 104.107L169.903 112.609C169.317 112.706 168.731 112.804 168.047 113ZM179.968 104.498C178.502 106.843 176.45 108.895 174.105 110.361L170.294 101.176C170.099 100.394 170.49 99.6121 171.174 99.319C171.467 99.2213 171.76 99.1236 172.053 99.1236L181.825 100.785C181.336 102.153 180.75 103.423 179.968 104.498Z" fill="white"/>
<path d="M86.4566 46.1901L86.4566 46.1886L86.4966 32.9579C86.4966 32.9576 86.4966 32.9574 86.4966 32.9571C86.5023 32.026 87.0028 31.1674 87.8113 30.7006L99.3401 24.0444C100.149 23.5776 101.142 23.5735 101.952 24.0342C101.952 24.0343 101.952 24.0344 101.952 24.0346L113.43 30.6152L113.432 30.616C114.239 31.0757 114.729 31.9248 114.724 32.8535L114.724 32.8551L114.684 46.0857C114.684 46.086 114.684 46.0863 114.684 46.0865C114.678 47.0176 114.177 47.8762 113.369 48.3431L101.84 54.9992C101.032 55.466 100.038 55.4701 99.2285 55.0094C99.2283 55.0093 99.2281 55.0092 99.2279 55.0091L87.7498 48.4284L87.7484 48.4276C86.9414 47.9679 86.4512 47.1188 86.4566 46.1901Z" stroke="#0091DA" stroke-width="1.14724"/>
<path d="M101.387 42.4471C101.795 42.4471 102.14 42.1334 102.14 41.6943V32.6597C102.14 32.2519 101.795 31.9382 101.387 31.9382C100.948 31.9382 100.634 32.2519 100.634 32.6597V41.6943C100.634 42.1334 100.948 42.4471 101.387 42.4471ZM101.387 43.9529C100.823 43.9529 100.383 44.4234 100.383 44.9567C100.383 45.5214 100.823 45.9919 101.387 45.9919C101.921 45.9919 102.391 45.5214 102.391 44.9567C102.391 44.4234 101.921 43.9529 101.387 43.9529Z" fill="white"/>
<path d="M121.34 65.3741L108.147 52.1808" stroke="#0091DA" stroke-width="1.14724" stroke-linecap="round"/>
<path d="M211.972 81.4354L225.739 67.6685" stroke="#0091DA" stroke-width="1.14724" stroke-linecap="round"/>
<path d="M250.418 75.2158V61.9468M250.418 61.9468L246.503 47.3726L238.672 55.8091M250.418 61.9468L238.672 55.8091M250.418 61.9468L231.058 72.6055M238.672 55.8091L226.925 43.6747L220.617 61.9468L230.841 72.6055L238.672 55.8091Z" stroke="#0091DA" stroke-width="1.14724" stroke-linecap="round"/>
<path d="M238.454 55.8561L221.269 61.9468" stroke="#0091DA" stroke-width="1.14724" stroke-linecap="round"/>
<ellipse cx="1.72087" cy="1.72087" rx="1.72087" ry="1.72087" transform="matrix(-1 0 0 1 228.859 42.4291)" fill="#EAF8FF"/>
<ellipse cx="1.72087" cy="1.72087" rx="1.72087" ry="1.72087" transform="matrix(-1 0 0 1 222.297 60.2662)" fill="#EAF8FF"/>
<ellipse cx="1.72087" cy="1.72087" rx="1.72087" ry="1.72087" transform="matrix(-1 0 0 1 232.303 71.1425)" fill="#EAF8FF"/>
<ellipse cx="1.72087" cy="1.72087" rx="1.72087" ry="1.72087" transform="matrix(-1 0 0 1 240.46 53.85)" fill="#EAF8FF"/>
<ellipse cx="1.72087" cy="1.72087" rx="1.72087" ry="1.72087" transform="matrix(-1 0 0 1 248.014 45.149)" fill="#EAF8FF"/>
<ellipse cx="1.72087" cy="1.72087" rx="1.72087" ry="1.72087" transform="matrix(-1 0 0 1 251.881 59.6507)" fill="#EAF8FF"/>
<ellipse cx="1.72087" cy="1.72087" rx="1.72087" ry="1.72087" transform="matrix(-1 0 0 1 251.881 72.6055)" fill="#EAF8FF"/>
<path d="M108.72 139.945L124.782 123.883" stroke="#0091DA" stroke-width="1.14724" stroke-linecap="square"/>
<path d="M101.837 164.84V146.857" stroke="#0091DA" stroke-width="1.14724" stroke-linecap="round"/>
<path d="M116.27 156.766L101.836 146.828" stroke="#0091DA" stroke-width="1.14724" stroke-linecap="round"/>
<path d="M86.922 156.766L101.829 146.828" stroke="#0091DA" stroke-width="1.14724" stroke-linecap="round"/>
<rect x="95.5268" y="134.782" width="12.6197" height="11.4724" rx="1.72087" stroke="#0091DA" stroke-width="1.14724"/>
<ellipse cx="86.9224" cy="156.006" rx="3.44173" ry="3.44173" fill="#EAF8FF"/>
<ellipse cx="101.837" cy="165.184" rx="3.44173" ry="3.44173" fill="#EAF8FF"/>
<ellipse cx="115.604" cy="156.006" rx="3.44173" ry="3.44173" fill="#EAF8FF"/>
</g>
<defs>
<linearGradient id="paint0_linear_1194_255958" x1="148.343" y1="41.4066" x2="214.82" y2="7.30615" gradientUnits="userSpaceOnUse">
<stop stop-color="#0091DA" stop-opacity="0"/>
<stop offset="1" stop-color="#0091DA"/>
</linearGradient>
<linearGradient id="paint1_linear_1194_255958" x1="51.9703" y1="76.4913" x2="-18.6538" y2="110.079" gradientUnits="userSpaceOnUse">
<stop stop-color="#0091DA" stop-opacity="0"/>
<stop offset="1" stop-color="#0091DA"/>
</linearGradient>
<linearGradient id="paint2_linear_1194_255958" x1="218.18" y1="0.551273" x2="212.78" y2="188.772" gradientUnits="userSpaceOnUse">
<stop stop-color="#0091DA" stop-opacity="0"/>
<stop offset="1" stop-color="#0091DA"/>
</linearGradient>
<linearGradient id="paint3_linear_1194_255958" x1="336.921" y1="14.2568" x2="364.93" y2="155.67" gradientUnits="userSpaceOnUse">
<stop stop-color="#0091DA" stop-opacity="0"/>
<stop offset="1" stop-color="#0091DA"/>
</linearGradient>
<clipPath id="clip0_1194_255958">
<rect width="328" height="184" fill="white"/>
</clipPath>
</defs>
</svg>
