<svg width="328" height="184" viewBox="0 0 328 184" fill="none" xmlns="http://www.w3.org/2000/svg">
<g clip-path="url(#clip0_1194_255126)">
<path d="M328 -0.209961H0V184.29H328V-0.209961Z" fill="#1C282E"/>
<path opacity="0.1" d="M214.667 -38.9999L129 46.6667L152.503 70.1699L238.17 -15.4968L214.667 -38.9999Z" fill="url(#paint0_linear_1194_255126)"/>
<path opacity="0.1" d="M-1.22524 138.582L58.5117 78.845L43.6669 64.0001L-16.0701 123.737L-1.22524 138.582Z" fill="url(#paint1_linear_1194_255126)"/>
<path opacity="0.2" d="M299.864 -44.2043L56.7607 198.899L136.213 278.351L379.316 35.2475L299.864 -44.2043Z" fill="url(#paint2_linear_1194_255126)"/>
<path opacity="0.1" d="M397.596 -34.5066L154.493 208.597L204.705 258.809L447.808 15.7052L397.596 -34.5066Z" fill="url(#paint3_linear_1194_255126)"/>
<path opacity="0.1" d="M-9.9263 18.233L-9.92629 18.2316L-9.87366 0.832712C-9.87365 0.832514 -9.87365 0.832315 -9.87365 0.832116C-9.86582 -0.483167 -9.15897 -1.6955 -8.0177 -2.35442L7.14251 -11.1072C8.28379 -11.7661 9.68714 -11.772 10.8301 -11.1212C10.8303 -11.1211 10.8305 -11.121 10.8306 -11.1209L25.9249 -2.46701L25.9261 -2.46633C27.0671 -1.81635 27.7608 -0.614771 27.7532 0.698377L27.7532 0.699765L27.7006 18.0987C27.7006 18.0989 27.7006 18.099 27.7006 18.0992C27.6928 19.4145 26.9859 20.6269 25.8446 21.2858L10.6844 30.0386C9.5432 30.6975 8.13995 30.7035 6.99699 30.0527C6.99676 30.0526 6.99653 30.0524 6.9963 30.0523L-8.09795 21.3984L-8.09915 21.3977C-9.24018 20.7478 -9.93391 19.5462 -9.9263 18.233Z" stroke="#00AAFF"/>
<path d="M286 7L308 -15" stroke="#0091DA" stroke-linecap="round"/>
<circle cx="282" cy="12" r="2.5" stroke="#0091DA"/>
<path d="M7 185L43 149" stroke="#0091DA" stroke-linecap="round"/>
<path d="M-4 175L65.5 105.5" stroke="#0091DA" stroke-opacity="0.1" stroke-linecap="round"/>
<g filter="url(#filter0_f_1194_255126)">
<path d="M190.793 29.1825L190.808 24.2949C190.808 24.2948 190.808 24.2947 190.808 24.2946C190.81 23.9642 190.987 23.6595 191.274 23.4938L195.533 21.0348C195.82 20.8691 196.173 20.8677 196.46 21.0311C196.46 21.0312 196.46 21.0312 196.46 21.0313L200.701 23.4623L200.701 23.4626C200.987 23.6257 201.161 23.9266 201.159 24.2559L201.159 24.2566L201.144 29.1442C201.144 29.1443 201.144 29.1444 201.144 29.1445C201.142 29.4749 200.965 29.7796 200.678 29.9454L196.419 32.4043C196.132 32.57 195.779 32.5714 195.492 32.408C195.492 32.4079 195.492 32.4079 195.492 32.4078L191.251 29.9768L191.251 29.9765C190.965 29.8135 190.791 29.5125 190.793 29.1832L190.793 29.1825Z" stroke="#00AAFF" stroke-width="0.5"/>
</g>
<path d="M229 186L251 164" stroke="#0091DA" stroke-linecap="round"/>
<path d="M259 155L281 133" stroke="#0091DA" stroke-linecap="round"/>
<circle cx="255" cy="160" r="2.5" stroke="#0091DA"/>
<path d="M246.073 88.6453L246.073 88.644L246.097 80.6551C246.097 80.6549 246.097 80.6547 246.097 80.6545C246.101 80.1471 246.373 79.6789 246.815 79.4242L253.776 75.405C254.217 75.1503 254.759 75.1482 255.2 75.3992C255.2 75.3992 255.2 75.3993 255.201 75.3994L262.131 79.3729L262.132 79.3736C262.571 79.6237 262.838 80.085 262.835 80.5903L262.835 80.5917L262.811 88.5805C262.811 88.5807 262.811 88.5809 262.811 88.581C262.808 89.0885 262.535 89.5567 262.094 89.8114L255.132 93.8307C254.691 94.0854 254.149 94.0875 253.708 93.8365C253.708 93.8364 253.708 93.8363 253.708 93.8362L246.777 89.8627L246.776 89.8621C246.337 89.612 246.07 89.1506 246.073 88.6453Z" stroke="#0091DA"/>
<path d="M254.606 75L254.606 59.5" stroke="#0091DA" stroke-linecap="round"/>
<path d="M237.656 103.338L237.656 103.336L237.68 95.3476C237.68 95.3474 237.68 95.3472 237.68 95.347C237.684 94.8396 237.956 94.3714 238.398 94.1167L245.359 90.0975C245.8 89.8428 246.342 89.8407 246.783 90.0917C246.783 90.0918 246.783 90.0918 246.784 90.0919L253.714 94.0654L253.715 94.0661C254.155 94.3162 254.421 94.7775 254.418 95.2828L254.418 95.2842L254.394 103.273C254.394 103.273 254.394 103.273 254.394 103.274C254.391 103.781 254.118 104.249 253.677 104.504L246.715 108.523C246.274 108.778 245.732 108.78 245.291 108.529C245.291 108.529 245.291 108.529 245.291 108.529L238.36 104.555L238.359 104.555C237.92 104.304 237.653 103.843 237.656 103.338Z" stroke="#0091DA"/>
<line x1="218" y1="94.5" x2="238" y2="94.5" stroke="#0091DA"/>
<path d="M254.49 103.338L254.49 103.336L254.514 95.3476C254.514 95.3474 254.514 95.3472 254.514 95.347C254.517 94.8396 254.79 94.3714 255.231 94.1167L262.193 90.0975C262.634 89.8428 263.176 89.8407 263.617 90.0917C263.617 90.0918 263.617 90.0918 263.617 90.0919L270.548 94.0654L270.549 94.0661C270.988 94.3162 271.254 94.7775 271.251 95.2828L271.251 95.2842L271.227 103.273C271.227 103.273 271.227 103.273 271.227 103.274C271.224 103.781 270.951 104.249 270.51 104.504L263.549 108.523C263.107 108.778 262.566 108.78 262.125 108.529C262.124 108.529 262.124 108.529 262.124 108.529L255.193 104.555L255.192 104.555C254.753 104.304 254.487 103.843 254.49 103.338Z" stroke="#0091DA"/>
<rect x="236.5" y="34.5" width="26" height="25" stroke="#0091DA"/>
<rect x="220.5" y="67.5" width="10" height="9" rx="2.5" stroke="#0091DA"/>
<circle cx="4" cy="4" r="3.5" transform="matrix(-1 -8.74228e-08 -8.74228e-08 1 112 38)" stroke="#0091DA"/>
<path d="M84 42L95.5 53.5L115.5 53.5L125 62.5" stroke="#0091DA"/>
<path d="M101.5 42L74 42" stroke="#0091DA"/>
<line x1="201" y1="134.5" x2="227" y2="134.5" stroke="#0091DA"/>
<line x1="201" y1="142.5" x2="217" y2="142.5" stroke="#0091DA"/>
<line x1="201" y1="150.5" x2="222" y2="150.5" stroke="#0091DA"/>
<line x1="201" y1="158.5" x2="209" y2="158.5" stroke="#0091DA"/>
<path d="M89.0733 139.645L89.0733 139.644L89.0975 131.655C89.0975 131.655 89.0975 131.655 89.0975 131.655C89.1006 131.147 89.3734 130.679 89.8145 130.424L96.7761 126.405C97.2173 126.15 97.7591 126.148 98.2002 126.399C98.2003 126.399 98.2005 126.399 98.2006 126.399L105.131 130.373L105.132 130.374C105.571 130.624 105.838 131.085 105.835 131.59L105.835 131.592L105.811 139.581C105.811 139.581 105.811 139.581 105.811 139.581C105.808 140.088 105.535 140.557 105.094 140.811L98.1321 144.831C97.691 145.085 97.149 145.087 96.708 144.836C96.7079 144.836 96.7077 144.836 96.7076 144.836L89.777 140.863L89.7758 140.862C89.3367 140.612 89.0704 140.151 89.0733 139.645Z" stroke="#0091DA"/>
<path d="M80.6563 154.338L80.6563 154.336L80.6805 146.348C80.6805 146.347 80.6805 146.347 80.6805 146.347C80.6837 145.84 80.9564 145.371 81.3975 145.117L88.3591 141.097C88.8003 140.843 89.3421 140.841 89.7832 141.092C89.7833 141.092 89.7835 141.092 89.7836 141.092L96.7143 145.065L96.7155 145.066C97.1545 145.316 97.4209 145.778 97.4179 146.283L97.4179 146.284L97.3938 154.273C97.3938 154.273 97.3938 154.273 97.3937 154.274C97.3906 154.781 97.1179 155.249 96.6767 155.504L89.7151 159.523C89.274 159.778 88.7321 159.78 88.291 159.529C88.2909 159.529 88.2907 159.529 88.2906 159.529L81.36 155.555L81.3588 155.555C80.9197 155.304 80.6534 154.843 80.6563 154.338Z" stroke="#0091DA"/>
<path d="M97.4898 154.338L97.4898 154.336L97.514 146.348C97.514 146.347 97.514 146.347 97.514 146.347C97.5171 145.84 97.7899 145.371 98.231 145.117L105.193 141.097C105.634 140.843 106.176 140.841 106.617 141.092C106.617 141.092 106.617 141.092 106.617 141.092L113.548 145.065L113.549 145.066C113.988 145.316 114.254 145.778 114.251 146.283L114.251 146.284L114.227 154.273C114.227 154.273 114.227 154.273 114.227 154.274C114.224 154.781 113.951 155.249 113.51 155.504L106.549 159.523C106.107 159.778 105.566 159.78 105.125 159.529C105.124 159.529 105.124 159.529 105.124 159.529L98.1935 155.555L98.1923 155.555C97.7532 155.304 97.4869 154.843 97.4898 154.338Z" stroke="#0091DA"/>
<path d="M106 131L121 116" stroke="#0091DA" stroke-linecap="round"/>
<path d="M89 131L74 116" stroke="#0091DA" stroke-linecap="round"/>
<path d="M84.9303 97.0682L84.9232 97.4775L85.3231 97.5652C89.4326 98.4667 92.5 102.094 92.5 106.425C92.5 111.432 88.3987 115.5 83.3291 115.5H55.7367C51.7353 115.5 48.5 112.29 48.5 108.34C48.5 105.265 50.4596 102.64 53.2173 101.626L53.5686 101.497L53.5437 101.124C53.5335 100.972 53.5269 100.825 53.5269 100.68C53.5269 97.0321 56.5147 94.0666 60.211 94.0666C61.3953 94.0666 62.5054 94.3726 63.4693 94.9069L64.0506 95.2291L64.1991 94.5812C65.2584 89.9573 69.437 86.5 74.4358 86.5C80.2377 86.5 84.9326 91.1556 84.9326 96.888C84.9326 96.9456 84.9314 97.0027 84.9303 97.0682Z" stroke="#0091DA"/>
<circle cx="86" cy="64" r="3.5" stroke="#0091DA"/>
<path d="M92.5 64H112.5L120 71.5" stroke="#0091DA"/>
<path d="M181.742 52.0001L145.754 52.1091C142.664 52.1271 139.818 53.7872 138.272 56.4648L120.169 87.8202C118.623 90.4978 118.608 93.7925 120.138 96.4772L138.038 127.699C139.567 130.383 142.398 132.018 145.488 132L181.476 131.891C184.566 131.873 187.412 130.213 188.958 127.535L207.061 96.1798C208.607 93.5022 208.622 90.2075 207.092 87.5228L189.192 56.3014C187.663 53.6167 184.832 51.9822 181.742 52.0001Z" fill="#8ECAEA"/>
<path d="M157.703 71.7812L150.203 68.6562C149.969 68.5781 149.734 68.5391 149.5 68.5391C149.227 68.5391 148.992 68.5781 148.758 68.6562L141.258 71.7812C140.555 72.0938 140.125 72.7578 140.125 73.5C140.125 83.5781 147.508 88.5 149.461 88.5C151.414 88.5 158.875 83.6562 158.875 73.5C158.875 72.7578 158.406 72.0938 157.703 71.7812ZM157.586 73.5391C157.586 82.3281 151.102 87.25 149.5 87.25C147.82 87.25 141.375 82.2891 141.375 73.5C141.375 73.2656 141.492 73.0312 141.727 72.9531L149.227 69.8281C149.305 69.7891 149.383 69.75 149.5 69.75C149.578 69.75 149.656 69.7891 149.734 69.8281L157.234 72.9531C157.586 73.1094 157.586 73.4219 157.586 73.5391ZM152.625 75.6094C152.43 75.6094 152.273 75.6484 152.156 75.7656L148.445 79.5156L146.805 77.875C146.688 77.7578 146.531 77.6797 146.375 77.6797C145.984 77.6797 145.75 77.9922 145.75 78.3047C145.75 78.4609 145.789 78.6172 145.906 78.7734L148.016 80.8438C148.133 80.9609 148.289 81 148.445 81C148.602 81 148.758 80.9609 148.875 80.8438L153.055 76.6641C153.172 76.5469 153.25 76.3906 153.25 76.2344C153.25 75.8828 152.977 75.6094 152.625 75.6094Z" fill="#EAF8FF"/>
<path d="M174.062 78.5C174.062 76.625 175.586 75.0625 177.5 75.0625C179.375 75.0625 180.938 76.625 180.938 78.5C180.938 80.4141 179.375 81.9375 177.5 81.9375C175.586 81.9375 174.062 80.4141 174.062 78.5ZM177.5 76.3125C176.289 76.3125 175.312 77.3281 175.312 78.5C175.312 79.7109 176.289 80.6875 177.5 80.6875C178.672 80.6875 179.688 79.7109 179.688 78.5C179.688 77.3281 178.672 76.3125 177.5 76.3125ZM170.039 77.5234L168.477 76.0781C168.047 75.6875 167.93 75.0625 168.242 74.5547L169.414 72.4844C169.688 71.9766 170.312 71.7422 170.859 71.9375L172.891 72.5625C173.438 72.1719 174.023 71.8203 174.609 71.5859L175.078 69.5156C175.195 68.9297 175.703 68.5 176.289 68.5H178.672C179.258 68.5 179.766 68.9297 179.883 69.5156L180.352 71.5859C180.938 71.8203 181.523 72.1719 182.07 72.5625L184.102 71.9375C184.648 71.7422 185.273 71.9766 185.547 72.4844L186.719 74.5547C187.031 75.0625 186.914 75.6875 186.484 76.0781L184.922 77.5234C184.961 77.8359 185 78.1875 185 78.5C185 78.8516 184.961 79.2031 184.922 79.5156L186.484 80.9609C186.914 81.3516 187.031 81.9766 186.719 82.4844L185.547 84.5547C185.273 85.0625 184.648 85.2969 184.102 85.1016L182.07 84.4766C181.523 84.8672 180.938 85.1797 180.352 85.4531L179.883 87.5234C179.766 88.1094 179.258 88.5 178.672 88.5H176.289C175.703 88.5 175.195 88.1094 175.078 87.5234L174.609 85.4531C174.023 85.1797 173.438 84.8672 172.891 84.4766L170.859 85.1016C170.312 85.2969 169.688 85.0625 169.414 84.5547L168.242 82.4844C167.93 81.9766 168.047 81.3516 168.477 80.9609L170.039 79.5156C170 79.2031 170 78.8516 170 78.5C170 78.1875 170 77.8359 170.039 77.5234ZM173.672 73.5781L173.164 73.9688L170.508 73.1094L169.297 75.1797L171.367 77.0547L171.289 77.6797C171.25 77.9531 171.25 78.2266 171.25 78.5C171.25 78.8125 171.25 79.0859 171.289 79.3594L171.367 79.9844L169.297 81.8594L170.508 83.9297L173.164 83.0703L173.672 83.4609C174.102 83.8125 174.57 84.0859 175.117 84.2812L175.703 84.5547L176.289 87.25H178.672L179.258 84.5547L179.844 84.2812C180.391 84.0859 180.859 83.8125 181.289 83.4609L181.797 83.0703L184.453 83.9297L185.664 81.8594L183.594 79.9844L183.672 79.3594C183.711 79.0859 183.75 78.8125 183.75 78.5C183.75 78.2266 183.711 77.9531 183.672 77.6797L183.594 77.0547L185.664 75.1797L184.453 73.1094L181.797 73.9688L181.289 73.5781C180.859 73.2266 180.391 72.9531 179.844 72.7188L179.258 72.4844L178.672 69.75H176.289L175.703 72.4844L175.117 72.7188C174.57 72.9531 174.102 73.2266 173.672 73.5781Z" fill="#EAF8FF"/>
<path d="M142.25 104V101.5C142.25 98.7656 144.477 96.5 147.25 96.5C149.984 96.5 152.25 98.7656 152.25 101.5V104H152.875C154.594 104 156 105.406 156 107.125V113.375C156 115.133 154.594 116.5 152.875 116.5H141.625C139.867 116.5 138.5 115.133 138.5 113.375V107.125C138.5 105.406 139.867 104 141.625 104H142.25ZM143.5 104H151V101.5C151 99.4297 149.32 97.75 147.25 97.75C145.141 97.75 143.5 99.4297 143.5 101.5V104ZM139.75 113.375C139.75 114.43 140.57 115.25 141.625 115.25H152.875C153.891 115.25 154.75 114.43 154.75 113.375V107.125C154.75 106.109 153.891 105.25 152.875 105.25H141.625C140.57 105.25 139.75 106.109 139.75 107.125V113.375Z" fill="#EAF8FF"/>
<path d="M189 105.875C189 106.227 188.688 106.5 188.375 106.5H183.141L180.797 112.359C180.719 112.633 180.484 112.789 180.172 112.75C179.938 112.75 179.703 112.555 179.625 112.281L176.539 99.9766L173.336 116.031C173.297 116.305 173.023 116.5 172.75 116.5C172.438 116.5 172.203 116.305 172.125 116.031L169.742 106.5H164.625C164.273 106.5 164 106.227 164 105.875C164 105.562 164.273 105.289 164.625 105.289H170.25C170.523 105.289 170.758 105.484 170.836 105.797L172.672 113.102L175.875 97.0469C175.914 96.7344 176.188 96.5391 176.461 96.5C176.773 96.5391 177.008 96.6953 177.086 97.0078L180.367 110.133L182.164 105.68C182.242 105.406 182.477 105.25 182.75 105.25H188.375C188.688 105.25 189 105.562 189 105.875Z" fill="#EAF8FF"/>
</g>
<defs>
<filter id="filter0_f_1194_255126" x="188.543" y="18.6595" width="14.8662" height="16.1201" filterUnits="userSpaceOnUse" color-interpolation-filters="sRGB">
<feFlood flood-opacity="0" result="BackgroundImageFix"/>
<feBlend mode="normal" in="SourceGraphic" in2="BackgroundImageFix" result="shape"/>
<feGaussianBlur stdDeviation="1" result="effect1_foregroundBlur_1194_255126"/>
</filter>
<linearGradient id="paint0_linear_1194_255126" x1="148.343" y1="41.4066" x2="214.82" y2="7.30615" gradientUnits="userSpaceOnUse">
<stop stop-color="#0091DA" stop-opacity="0"/>
<stop offset="1" stop-color="#0091DA"/>
</linearGradient>
<linearGradient id="paint1_linear_1194_255126" x1="51.9704" y1="76.4913" x2="-18.6538" y2="110.079" gradientUnits="userSpaceOnUse">
<stop stop-color="#0091DA" stop-opacity="0"/>
<stop offset="1" stop-color="#0091DA"/>
</linearGradient>
<linearGradient id="paint2_linear_1194_255126" x1="218.18" y1="0.551273" x2="212.78" y2="188.772" gradientUnits="userSpaceOnUse">
<stop stop-color="#0091DA" stop-opacity="0"/>
<stop offset="1" stop-color="#0091DA"/>
</linearGradient>
<linearGradient id="paint3_linear_1194_255126" x1="336.921" y1="14.2568" x2="364.93" y2="155.67" gradientUnits="userSpaceOnUse">
<stop stop-color="#0091DA" stop-opacity="0"/>
<stop offset="1" stop-color="#0091DA"/>
</linearGradient>
<clipPath id="clip0_1194_255126">
<rect width="328" height="184" fill="white"/>
</clipPath>
</defs>
</svg>
