<svg width="328" height="184" viewBox="0 0 328 184" fill="none" xmlns="http://www.w3.org/2000/svg">
<g clip-path="url(#clip0_1194_252721)">
<path d="M328 -0.210022H0V184.29H328V-0.210022Z" fill="#1C282E"/>
<path opacity="0.1" d="M214.667 -39L129 46.6666L152.503 70.1698L238.17 -15.4969L214.667 -39Z" fill="url(#paint0_linear_1194_252721)"/>
<path opacity="0.1" d="M-1.22524 138.582L58.5117 78.8448L43.6669 64L-16.0701 123.737L-1.22524 138.582Z" fill="url(#paint1_linear_1194_252721)"/>
<path opacity="0.2" d="M299.864 -44.2044L56.7607 198.899L136.213 278.351L379.316 35.2474L299.864 -44.2044Z" fill="url(#paint2_linear_1194_252721)"/>
<path opacity="0.1" d="M397.596 -34.5067L154.493 208.597L204.705 258.808L447.808 15.7051L397.596 -34.5067Z" fill="url(#paint3_linear_1194_252721)"/>
<path d="M256 38L278 16" stroke="#0091DA" stroke-linecap="round"/>
<path d="M286 7L308 -15" stroke="#0091DA" stroke-linecap="round"/>
<circle cx="282" cy="12" r="2.5" stroke="#0091DA"/>
<path d="M7 185L43 149" stroke="#0091DA" stroke-linecap="round"/>
<path d="M-4 175L65.5 105.5" stroke="#0091DA" stroke-opacity="0.1" stroke-linecap="round"/>
<path d="M203 186L225 164" stroke="#0091DA" stroke-linecap="round"/>
<path d="M233 155L255 133" stroke="#0091DA" stroke-linecap="round"/>
<circle cx="229" cy="160" r="2.5" stroke="#0091DA"/>
<path d="M177.75 143.24H150.25C148.255 143.24 146.745 141.45 147.07 139.487L150.508 118.862C150.768 117.309 152.113 116.17 153.687 116.17H174.312C175.887 116.17 177.232 117.309 177.492 118.862L180.93 139.487C181.254 141.447 179.748 143.24 177.75 143.24Z" fill="#8ECAEA"/>
<path d="M177.75 143.24H164V116.17H174.312C175.887 116.17 177.232 117.309 177.492 118.862L180.93 139.487C181.254 141.447 179.748 143.24 177.75 143.24Z" fill="#8ECAEA"/>
<path d="M187.848 140.018C187.848 141.796 186.404 143.24 184.625 143.24H143.375C141.596 143.24 140.152 141.796 140.152 140.018C140.152 138.239 141.596 136.795 143.375 136.795H184.625C186.404 136.795 187.848 138.239 187.848 140.018Z" fill="#8ECAEA"/>
<path d="M187.848 140.018C187.848 141.796 186.404 143.24 184.625 143.24H164V136.795H184.625C186.404 136.795 187.848 138.239 187.848 140.018Z" fill="#8ECAEA"/>
<path d="M215.777 50.4277V112.947C215.777 116.507 212.892 119.393 209.332 119.393H118.668C115.108 119.393 112.223 116.507 112.223 112.947V50.4277C112.223 46.8678 115.108 43.9824 118.668 43.9824H209.332C212.892 43.9824 215.777 46.8678 215.777 50.4277Z" fill="#1C282E"/>
<path d="M215.777 50.4277V112.947C215.777 116.507 212.892 119.393 209.332 119.393H164V43.9824H209.332C212.892 43.9824 215.777 46.8678 215.777 50.4277Z" fill="#193645"/>
<path d="M209.332 40.7598H118.668C113.338 40.7598 109 45.0975 109 50.4277V112.947C109 118.278 113.338 122.615 118.668 122.615H209.332C214.662 122.615 219 118.278 219 112.947V50.4277C219 45.0975 214.662 40.7598 209.332 40.7598ZM212.555 112.947C212.555 114.724 211.109 116.17 209.332 116.17H118.668C116.891 116.17 115.445 114.724 115.445 112.947V50.4277C115.445 48.651 116.891 47.2051 118.668 47.2051H209.332C211.109 47.2051 212.555 48.651 212.555 50.4277V112.947Z" fill="#8ECAEA"/>
<path d="M219 50.4277V112.947C219 118.278 214.662 122.615 209.332 122.615H164V116.17H209.332C211.109 116.17 212.555 114.724 212.555 112.947V50.4277C212.555 48.651 211.109 47.2051 209.332 47.2051H164V40.7598H209.332C214.662 40.7598 219 45.0975 219 50.4277Z" fill="#8ECAEA"/>
<path d="M167.223 43.9824V50.8574C167.223 52.6363 165.779 54.0801 164 54.0801C162.221 54.0801 160.777 52.6363 160.777 50.8574V43.9824C160.777 42.2035 162.221 40.7598 164 40.7598C165.779 40.7598 167.223 42.2035 167.223 43.9824Z" fill="#8ECAEA"/>
<path d="M167.223 43.9824V50.8574C167.223 52.6363 165.779 54.0801 164 54.0801V40.7598C165.779 40.7598 167.223 42.2035 167.223 43.9824Z" fill="#8ECAEA"/>
<path d="M139.938 98.9824C138.158 98.9824 136.715 97.5395 136.715 95.7598V74.9199C136.715 73.1402 138.158 71.6973 139.938 71.6973C141.717 71.6973 143.16 73.1402 143.16 74.9199V95.7598C143.16 97.5395 141.717 98.9824 139.938 98.9824Z" fill="#ECF9FF"/>
<path d="M153.688 98.9824C151.908 98.9824 150.465 97.5395 150.465 95.7598V85.2324C150.465 83.4527 151.908 82.0098 153.688 82.0098C155.467 82.0098 156.91 83.4527 156.91 85.2324V95.7598C156.91 97.5395 155.467 98.9824 153.688 98.9824Z" fill="#B9E7FF"/>
<path d="M186.344 100.486C196.667 100.486 205.035 92.1179 205.035 81.7949C205.035 71.4719 196.667 63.1035 186.344 63.1035C176.021 63.1035 167.652 71.4719 167.652 81.7949C167.652 92.1179 176.021 100.486 186.344 100.486Z" fill="#ECF9FF"/>
<path d="M205.035 81.7949C205.035 92.101 196.65 100.486 186.344 100.486C181.351 100.486 176.659 98.542 173.127 95.0121L186.344 81.7949V78.5723H201.813C203.591 78.5723 205.035 80.016 205.035 81.7949Z" fill="#B9E7FF"/>
<path d="M205.035 81.7949H186.344V63.1035C196.65 63.1035 205.035 71.4889 205.035 81.7949Z" fill="#8ECAEA"/>
<path d="M126.188 98.9824C124.408 98.9824 122.965 97.5395 122.965 95.7598V64.6074C122.965 62.8277 124.408 61.3848 126.188 61.3848C127.967 61.3848 129.41 62.8277 129.41 64.6074V95.7598C129.41 97.5395 127.967 98.9824 126.188 98.9824Z" fill="#8ECAEA"/>
<path d="M122.965 95.7598V98.9824C122.965 100.762 124.408 102.205 126.188 102.205H153.688C155.467 102.205 156.91 100.762 156.91 98.9824V95.7598C152.624 95.7598 127.234 95.7598 122.965 95.7598Z" fill="#193645"/>
<path d="M103 102H61V79.5" stroke="#0091DA"/>
<path d="M61 37L61 -51" stroke="#0091DA"/>
<path d="M74.435 54.6992L74.4282 55.1052L74.8241 55.1952C78.6354 56.0611 81.5 59.5529 81.5 63.7439C81.5 68.5917 77.6709 72.5 72.9738 72.5H47.2209C43.5209 72.5 40.5 69.4205 40.5 65.5952C40.5 62.6198 42.3305 60.0919 44.8863 59.119L45.2312 58.9877L45.2074 58.6194C45.198 58.4731 45.1918 58.3312 45.1918 58.1903C45.1918 54.6571 47.9816 51.8144 51.3969 51.8144C52.4931 51.8144 53.5214 52.1077 54.4153 52.6209L55.0055 52.9597L55.1524 52.2952C56.1416 47.8234 60.0363 44.5 64.6734 44.5C70.054 44.5 74.4371 48.9765 74.4371 54.5251C74.4371 54.5727 74.4363 54.62 74.4354 54.6723L74.435 54.6992Z" stroke="#0091DA"/>
<path opacity="0.1" d="M284.137 85.7305C284.34 86.1875 284.188 86.6445 283.832 87L281.648 88.9805C281.699 89.3867 281.75 89.8438 281.75 90.25C281.75 90.707 281.699 91.1641 281.648 91.5703L283.832 93.5508C284.188 93.9063 284.34 94.3633 284.137 94.8203C283.934 95.4297 283.68 95.9883 283.375 96.5469L283.121 96.9531C282.766 97.5117 282.41 98.0703 282.004 98.5781C281.699 98.9336 281.191 99.0352 280.734 98.8828L277.941 98.0195C277.23 98.5273 276.469 98.9336 275.707 99.2891L275.047 102.184C274.945 102.641 274.59 102.996 274.133 103.098C273.422 103.199 272.711 103.25 271.949 103.25C271.238 103.25 270.527 103.199 269.816 103.098C269.359 102.996 269.004 102.641 268.902 102.184L268.242 99.2891C267.48 98.9336 266.719 98.5273 266.008 98.0195L263.215 98.8828C262.758 99.0352 262.25 98.9336 261.945 98.5781C261.539 98.0703 261.184 97.5117 260.828 96.9531L260.574 96.5469C260.27 95.9883 260.016 95.4297 259.813 94.8203C259.609 94.3633 259.762 93.9063 260.117 93.5508L262.301 91.5703C262.25 91.1641 262.25 90.707 262.25 90.25C262.25 89.8438 262.25 89.3867 262.301 88.9805L260.117 87C259.762 86.6445 259.609 86.1875 259.813 85.7305C260.016 85.1211 260.27 84.5625 260.574 84.0039L260.828 83.5977C261.184 83.0391 261.539 82.4805 261.945 81.9727C262.25 81.6172 262.758 81.5156 263.215 81.668L266.008 82.5313C266.719 82.0234 267.48 81.5664 268.242 81.2617L268.902 78.3672C269.004 77.9102 269.359 77.5547 269.816 77.4531C270.527 77.3516 271.238 77.25 272 77.25C272.711 77.25 273.422 77.3516 274.133 77.4531C274.59 77.5547 274.945 77.9102 275.047 78.3672L275.707 81.2617C276.469 81.5664 277.23 82.0234 277.941 82.5313L280.734 81.668C281.191 81.5156 281.699 81.6172 282.004 81.9727C282.41 82.4805 282.766 83.0391 283.121 83.5977L283.375 84.0039C283.68 84.5625 283.934 85.1211 284.137 85.7305ZM272 94.3125C274.234 94.3125 276.063 92.5352 276.063 90.25C276.063 88.0156 274.234 86.1875 272 86.1875C269.715 86.1875 267.938 88.0156 267.938 90.25C267.938 92.5352 269.715 94.3125 272 94.3125Z" fill="#0091DA"/>
<path d="M255.656 123.375C255.656 120.711 257.775 118.531 260.5 118.531C263.164 118.531 265.344 120.711 265.344 123.375C265.344 126.1 263.164 128.219 260.5 128.219C257.775 128.219 255.656 126.1 255.656 123.375ZM260.5 119.5C258.32 119.5 256.625 121.256 256.625 123.375C256.625 125.555 258.32 127.25 260.5 127.25C262.619 127.25 264.375 125.555 264.375 123.375C264.375 121.256 262.619 119.5 260.5 119.5ZM270.732 113.203C271.58 112.9 272.549 113.264 272.973 114.051L274.789 117.26C275.273 118.047 275.092 119.016 274.426 119.621L272.004 121.861C272.064 122.346 272.125 122.891 272.125 123.375C272.125 123.92 272.064 124.465 272.004 124.949L274.426 127.189C275.092 127.795 275.273 128.764 274.789 129.551L272.973 132.76C272.549 133.547 271.58 133.91 270.732 133.607L267.584 132.639C266.736 133.244 265.828 133.729 264.92 134.152L264.193 137.361C264.012 138.27 263.225 138.875 262.316 138.875H258.623C257.715 138.875 256.928 138.27 256.746 137.361L256.02 134.152C255.111 133.729 254.203 133.244 253.355 132.639L250.207 133.607C249.359 133.91 248.391 133.547 247.967 132.76L246.15 129.551C245.666 128.764 245.848 127.795 246.514 127.189L248.936 124.949C248.875 124.465 248.875 123.92 248.875 123.375C248.875 122.891 248.875 122.346 248.936 121.861L246.514 119.621C245.848 119.016 245.666 118.047 246.15 117.26L247.967 114.051C248.391 113.264 249.359 112.9 250.207 113.203L253.355 114.172C254.203 113.566 255.111 113.021 256.02 112.658L256.746 109.449C256.928 108.541 257.715 107.875 258.623 107.875H262.316C263.225 107.875 264.012 108.541 264.193 109.449L264.92 112.658C265.828 113.021 266.736 113.566 267.584 114.172L270.732 113.203ZM253.961 114.959L253.537 115.262L249.904 114.111C249.48 113.99 249.057 114.172 248.814 114.535L246.998 117.744C246.756 118.107 246.816 118.592 247.18 118.895L249.965 121.498L249.904 121.982C249.844 122.467 249.844 122.951 249.844 123.375C249.844 123.859 249.844 124.344 249.904 124.828L249.965 125.313L247.18 127.855C246.816 128.158 246.756 128.703 246.998 129.066L248.814 132.275C249.057 132.639 249.48 132.82 249.904 132.699L253.537 131.549L253.961 131.852C254.688 132.396 255.535 132.881 256.383 133.244L256.867 133.426L257.715 137.18C257.775 137.604 258.199 137.906 258.623 137.906H262.316C262.74 137.906 263.164 137.604 263.225 137.18L264.072 133.426L264.557 133.244C265.404 132.881 266.252 132.396 266.979 131.852L267.402 131.549L271.035 132.699C271.459 132.82 271.883 132.639 272.125 132.275L273.941 129.066C274.184 128.703 274.123 128.158 273.76 127.855L270.975 125.313L271.035 124.828C271.096 124.344 271.156 123.859 271.156 123.375C271.156 122.951 271.096 122.467 271.035 121.982L270.975 121.498L273.76 118.895C274.123 118.592 274.184 118.107 273.941 117.744L272.125 114.535C271.883 114.172 271.459 113.99 271.035 114.111L267.402 115.262L266.979 114.959C266.252 114.414 265.404 113.93 264.557 113.566L264.072 113.385L263.225 109.631C263.164 109.207 262.74 108.844 262.316 108.844H258.623C258.199 108.844 257.775 109.207 257.715 109.631L256.867 113.385L256.383 113.566C255.535 113.93 254.688 114.414 253.961 114.959Z" fill="#0091DA"/>
</g>
<defs>
<linearGradient id="paint0_linear_1194_252721" x1="148.343" y1="41.4065" x2="214.82" y2="7.30603" gradientUnits="userSpaceOnUse">
<stop stop-color="#0091DA" stop-opacity="0"/>
<stop offset="1" stop-color="#0091DA"/>
</linearGradient>
<linearGradient id="paint1_linear_1194_252721" x1="51.9704" y1="76.4912" x2="-18.6538" y2="110.079" gradientUnits="userSpaceOnUse">
<stop stop-color="#0091DA" stop-opacity="0"/>
<stop offset="1" stop-color="#0091DA"/>
</linearGradient>
<linearGradient id="paint2_linear_1194_252721" x1="239.036" y1="2.23662e-05" x2="239.036" y2="189.525" gradientUnits="userSpaceOnUse">
<stop stop-color="#0091DA" stop-opacity="0"/>
<stop offset="1" stop-color="#0091DA"/>
</linearGradient>
<linearGradient id="paint3_linear_1194_252721" x1="336.921" y1="14.2567" x2="364.93" y2="155.67" gradientUnits="userSpaceOnUse">
<stop stop-color="#0091DA" stop-opacity="0"/>
<stop offset="1" stop-color="#0091DA"/>
</linearGradient>
<clipPath id="clip0_1194_252721">
<rect width="328" height="184" fill="white"/>
</clipPath>
</defs>
</svg>
