<svg width="328" height="184" viewBox="0 0 328 184" fill="none" xmlns="http://www.w3.org/2000/svg">
<g clip-path="url(#clip0_1194_253917)">
<path d="M328 -0.209961H0V184.29H328V-0.209961Z" fill="#1C282E"/>
<path opacity="0.1" d="M214.667 -38.9999L129 46.6667L152.503 70.1699L238.17 -15.4968L214.667 -38.9999Z" fill="url(#paint0_linear_1194_253917)"/>
<path opacity="0.1" d="M-1.22524 138.582L58.5117 78.845L43.6669 64.0001L-16.0701 123.737L-1.22524 138.582Z" fill="url(#paint1_linear_1194_253917)"/>
<path opacity="0.2" d="M299.864 -44.2043L56.7607 198.899L136.213 278.351L379.316 35.2475L299.864 -44.2043Z" fill="url(#paint2_linear_1194_253917)"/>
<path opacity="0.1" d="M397.596 -34.5066L154.493 208.597L204.705 258.809L447.808 15.7052L397.596 -34.5066Z" fill="url(#paint3_linear_1194_253917)"/>
<path opacity="0.1" d="M-9.9263 18.233L-9.92629 18.2316L-9.87366 0.832712C-9.87365 0.832514 -9.87365 0.832315 -9.87365 0.832116C-9.86582 -0.483167 -9.15897 -1.6955 -8.0177 -2.35442L7.14251 -11.1072C8.28379 -11.7661 9.68714 -11.772 10.8301 -11.1212C10.8303 -11.1211 10.8305 -11.121 10.8306 -11.1209L25.9249 -2.46701L25.9261 -2.46633C27.0671 -1.81635 27.7608 -0.614771 27.7532 0.698377L27.7532 0.699765L27.7006 18.0987C27.7006 18.0989 27.7006 18.099 27.7006 18.0992C27.6928 19.4145 26.9859 20.6269 25.8446 21.2858L10.6844 30.0386C9.5432 30.6975 8.13995 30.7035 6.99699 30.0527C6.99676 30.0526 6.99653 30.0524 6.9963 30.0523L-8.09795 21.3984L-8.09915 21.3977C-9.24018 20.7478 -9.93391 19.5462 -9.9263 18.233Z" stroke="#00AAFF"/>
<path d="M256 38L278 16" stroke="#0091DA" stroke-linecap="round"/>
<path d="M286 7L308 -15" stroke="#0091DA" stroke-linecap="round"/>
<circle cx="282" cy="12" r="2.5" stroke="#0091DA"/>
<path d="M7 185L43 149" stroke="#0091DA" stroke-linecap="round"/>
<path d="M-4 175L65.5 105.5" stroke="#0091DA" stroke-opacity="0.1" stroke-linecap="round"/>
<path d="M168.625 26.0625C168.875 25.875 169.062 25.75 169.312 25.625C170.125 25.25 171 25 172 25C175.312 25 178 27.6875 178 31C178 31.4375 177.938 31.8125 177.875 32.25C177.812 32.5625 177.688 32.875 177.562 33.1875C177.875 33.25 178.25 33.3125 178.562 33.4375C181.688 34.5 184 37.5 184 41C184 45.4375 180.375 49 176 49H153C148 49 144 45 144 40C144 36.125 146.5 32.75 150 31.5625C150 31.375 150 31.1875 150 31C150 25.5 154.438 21 160 21C163.312 21 166.25 22.6875 168.125 25.1875C168.312 25.4375 168.5 25.75 168.625 26.0625ZM176.688 33.6875C176.562 33.4375 176.5 33.125 176.625 32.8125C176.875 32.25 177 31.6875 177 31C177 28.25 174.75 26 172 26C170.938 26 170 26.3125 169.188 26.875C168.938 27 168.688 27.0625 168.438 27C168.125 26.9375 167.938 26.75 167.75 26.5625C166.188 23.8125 163.312 22 160 22C155 22 151 26.0625 151 31C151 31.1875 151 31.3125 151 31.5C151 31.9375 150.75 32.3125 150.312 32.5C147.188 33.5625 145 36.5625 145 40C145 44.4375 148.562 48 153 48H176C179.812 48 183 44.875 183 41C183 37.625 180.562 34.8125 177.375 34.1875C177.062 34.125 176.812 33.9375 176.688 33.6875Z" fill="#0091DA"/>
<path d="M88.5 69.5C89.3125 69.5 90 70.1875 90 71V73C90 73.875 89.3125 74.5 88.5 74.5H86.5C85.625 74.5 85 73.875 85 73V71C85 70.1875 85.625 69.5 86.5 69.5H88.5ZM86 73C86 73.3125 86.1875 73.5 86.5 73.5H88.5C88.75 73.5 89 73.3125 89 73V71C89 70.75 88.75 70.5 88.5 70.5H86.5C86.1875 70.5 86 70.75 86 71V73ZM94 71C94 70.1875 94.625 69.5 95.5 69.5H97.5C98.3125 69.5 99 70.1875 99 71V73C99 73.875 98.3125 74.5 97.5 74.5H95.5C94.625 74.5 94 73.875 94 73V71ZM95.5 70.5C95.1875 70.5 95 70.75 95 71V73C95 73.3125 95.1875 73.5 95.5 73.5H97.5C97.75 73.5 98 73.3125 98 73V71C98 70.75 97.75 70.5 97.5 70.5H95.5ZM88.5 61.5C89.3125 61.5 90 62.1875 90 63V65C90 65.875 89.3125 66.5 88.5 66.5H86.5C85.625 66.5 85 65.875 85 65V63C85 62.1875 85.625 61.5 86.5 61.5H88.5ZM86 65C86 65.3125 86.1875 65.5 86.5 65.5H88.5C88.75 65.5 89 65.3125 89 65V63C89 62.75 88.75 62.5 88.5 62.5H86.5C86.1875 62.5 86 62.75 86 63V65ZM94 63C94 62.1875 94.625 61.5 95.5 61.5H97.5C98.3125 61.5 99 62.1875 99 63V65C99 65.875 98.3125 66.5 97.5 66.5H95.5C94.625 66.5 94 65.875 94 65V63ZM95.5 62.5C95.1875 62.5 95 62.75 95 63V65C95 65.3125 95.1875 65.5 95.5 65.5H97.5C97.75 65.5 98 65.3125 98 65V63C98 62.75 97.75 62.5 97.5 62.5H95.5ZM83 87C81.3125 87 80 85.6875 80 84V58C80 56.375 81.3125 55 83 55H101C102.625 55 104 56.375 104 58V84C104 85.6875 102.625 87 101 87H83ZM81 58V84C81 85.125 81.875 86 83 86H89V81C89 79.375 90.3125 78 92 78C93.625 78 95 79.375 95 81V86H101C102.062 86 103 85.125 103 84V58C103 56.9375 102.062 56 101 56H83C81.875 56 81 56.9375 81 58ZM90 86H94V81C94 79.9375 93.0625 79 92 79C90.875 79 90 79.9375 90 81V86Z" fill="#0091DA"/>
<path d="M239 87C231.25 87 225 84.8125 225 82V60C225 57.25 231.25 55 239 55C246.688 55 253 57.25 253 60V82C253 84.8125 246.688 87 239 87ZM252 82V76.375C250.812 77.125 249.188 77.75 247.312 78.25C244.938 78.8125 242.062 79.125 239 79.125C235.875 79.125 233 78.8125 230.625 78.25C228.75 77.75 227.125 77.125 226 76.375V82C226 82.3125 226.125 82.6875 226.688 83.1875C227.312 83.6875 228.188 84.1875 229.375 84.625C231.812 85.5 235.188 86 239 86C242.75 86 246.125 85.5 248.562 84.625C249.75 84.1875 250.625 83.6875 251.25 83.1875C251.812 82.6875 252 82.3125 252 82ZM247.312 69.25C244.938 69.8125 242.062 70.125 239 70.125C235.875 70.125 233 69.8125 230.625 69.25C228.75 68.75 227.125 68.125 226 67.375V75.1875C227 76 228.688 76.6875 230.875 77.25C233.125 77.8125 235.938 78.125 239 78.125C242 78.125 244.812 77.8125 247.062 77.25C249.25 76.6875 250.938 76 252 75.1875V67.375C250.812 68.125 249.188 68.75 247.312 69.25ZM252 66.1875V60C252 59.75 251.812 59.375 251.25 58.875C250.625 58.375 249.75 57.875 248.562 57.4375C246.125 56.5625 242.75 56 239 56C235.188 56 231.812 56.5625 229.375 57.4375C228.188 57.875 227.312 58.375 226.688 58.875C226.125 59.375 226 59.75 226 60V66.1875C227 67 228.688 67.6875 230.875 68.25C233.125 68.8125 235.938 69.125 239 69.125C242 69.125 244.812 68.8125 247.062 68.25C249.25 67.6875 250.938 67 252 66.1875Z" fill="#0091DA"/>
<path d="M213 128C213.188 128 213.375 128.188 213.438 128.375L213.875 130H242.812C244.125 130 245.125 131.312 244.75 132.562L241.375 144.562C241.125 145.438 240.375 146 239.438 146H218.062L219.375 151H240C240.25 151 240.5 151.25 240.5 151.5C240.5 151.812 240.25 152 240 152H218.938C218.75 152 218.562 151.875 218.5 151.625L212.562 129H209.5C209.188 129 209 128.812 209 128.5C209 128.25 209.188 128 209.5 128H213ZM214.125 131L217.812 145H239.438C239.875 145 240.312 144.75 240.438 144.312L243.812 132.312C244 131.688 243.5 131 242.812 131H214.125ZM217 157C217 155.375 218.312 154 220 154C221.625 154 223 155.375 223 157C223 158.688 221.625 160 220 160C218.312 160 217 158.688 217 157ZM220 159C221.062 159 222 158.125 222 157C222 155.938 221.062 155 220 155C218.875 155 218 155.938 218 157C218 158.125 218.875 159 220 159ZM241 157C241 158.688 239.625 160 238 160C236.312 160 235 158.688 235 157C235 155.375 236.312 154 238 154C239.625 154 241 155.375 241 157ZM238 155C236.875 155 236 155.938 236 157C236 158.125 236.875 159 238 159C239.062 159 240 158.125 240 157C240 155.938 239.062 155 238 155Z" fill="#0091DA"/>
<path d="M88 150H116V132H88V150ZM89 133H115V149H89V133ZM117 128H87C85.3125 128 84 129.375 84 131V151C84 152.688 85.3125 154 87 154H98.25L96.625 159H92.5C92.1875 159 92 159.25 92 159.5C92 159.812 92.1875 160 92.5 160H111.5C111.75 160 112 159.812 112 159.5C112 159.25 111.75 159 111.5 159H107.312L105.688 154H117C118.625 154 120 152.688 120 151V131C120 129.375 118.625 128 117 128ZM106.25 159H97.6875L99.3125 154H104.625L106.25 159ZM119 151C119 152.125 118.062 153 117 153H87C85.875 153 85 152.125 85 151V131C85 129.938 85.875 129 87 129H117C118.062 129 119 129.938 119 131V151Z" fill="#0091DA"/>
<path d="M113.5 76L165 98.5" stroke="#0091DA"/>
<path d="M164 54V98M164 98L219.5 76.5M164 98L201.5 126M164 98C164 98 138.997 124.175 126.5 135.5" stroke="#0091DA"/>
<path opacity="0.2" d="M222.793 28.1825L222.808 23.2949C222.808 23.2948 222.808 23.2947 222.808 23.2946C222.81 22.9642 222.987 22.6595 223.274 22.4938L227.533 20.0348C227.82 19.8691 228.173 19.8677 228.46 20.0311C228.46 20.0312 228.46 20.0312 228.46 20.0313L232.701 22.4623L232.701 22.4626C232.987 22.6257 233.161 22.9266 233.159 23.2559L233.159 23.2566L233.144 28.1442C233.144 28.1443 233.144 28.1444 233.144 28.1445C233.142 28.4749 232.965 28.7796 232.678 28.9454L228.419 31.4043C228.132 31.57 227.779 31.5714 227.492 31.408C227.492 31.4079 227.492 31.4079 227.492 31.4078L223.251 28.9768L223.251 28.9765C222.965 28.8135 222.791 28.5125 222.793 28.1832L222.793 28.1825Z" stroke="#00AAFF" stroke-width="0.5"/>
<path opacity="0.2" d="M54.7928 42.1825L54.8076 37.2949C54.8076 37.2948 54.8076 37.2947 54.8076 37.2946C54.8096 36.9642 54.9872 36.6595 55.2742 36.4938L59.5332 34.0348C59.8202 33.8691 60.1729 33.8677 60.4601 34.0311C60.4601 34.0312 60.4602 34.0312 60.4603 34.0313L64.7005 36.4623L64.7011 36.4626C64.9873 36.6257 65.161 36.9266 65.1591 37.2559L65.1591 37.2566L65.1443 42.1442C65.1443 42.1443 65.1443 42.1444 65.1443 42.1445C65.1423 42.4749 64.9647 42.7796 64.6777 42.9454L60.4187 45.4043C60.1317 45.57 59.779 45.5714 59.4918 45.408C59.4918 45.4079 59.4917 45.4079 59.4916 45.4078L55.2514 42.9768L55.2508 42.9765C54.9646 42.8135 54.7909 42.5125 54.7928 42.1832L54.7928 42.1825Z" stroke="#00AAFF" stroke-width="0.5"/>
<path opacity="0.2" d="M177.793 164.183L177.808 159.295C177.808 159.295 177.808 159.295 177.808 159.295C177.81 158.964 177.987 158.659 178.274 158.494L182.533 156.035C182.82 155.869 183.173 155.868 183.46 156.031C183.46 156.031 183.46 156.031 183.46 156.031L187.701 158.462L187.701 158.463C187.987 158.626 188.161 158.927 188.159 159.256L188.159 159.257L188.144 164.144C188.144 164.144 188.144 164.144 188.144 164.144C188.142 164.475 187.965 164.78 187.678 164.945L183.419 167.404C183.132 167.57 182.779 167.571 182.492 167.408C182.492 167.408 182.492 167.408 182.492 167.408L178.251 164.977L178.251 164.976C177.965 164.813 177.791 164.513 177.793 164.183L177.793 164.183Z" stroke="#00AAFF" stroke-width="0.5"/>
<path d="M194.856 76.7022C194.438 75.3658 193.436 74.28 192.183 73.6119L166.709 61.4176C166.04 61.0835 165.289 61 164.621 61C163.952 61 163.201 61 162.532 61.167L137.058 73.4448C135.805 74.0295 134.887 75.1153 134.553 76.5351L128.288 104.014C128.038 105.434 128.372 106.854 129.207 108.023L146.83 129.822C147.833 130.825 149.252 131.493 150.672 131.576H178.736C180.239 131.743 181.659 131.075 182.578 129.822L200.201 108.023C201.036 106.854 201.37 105.434 201.203 104.014L194.856 76.7022Z" fill="#8ECAEA"/>
<path d="M186.727 102.089C186.656 102.089 186.585 102.089 186.585 102.018C186.585 101.947 186.444 101.947 186.302 101.947C186.019 101.876 185.736 101.876 185.453 101.876C185.312 101.876 185.17 101.876 185.029 101.804H184.958C184.18 101.733 183.331 101.591 182.552 101.378C182.34 101.307 182.128 101.094 182.057 100.88L181.491 100.738C181.774 98.6771 181.633 96.5448 181.208 94.4836C180.713 92.4224 179.864 90.4322 178.732 88.6553L179.157 88.2289V88.1578C179.157 87.9446 179.227 87.6603 179.369 87.5181C180.006 86.9495 180.642 86.5231 181.35 86.0966C181.491 86.0255 181.633 85.9544 181.774 85.8834C182.057 85.7412 182.27 85.5991 182.552 85.4569C182.623 85.3858 182.694 85.3858 182.765 85.3148C182.835 85.2437 182.765 85.2437 182.765 85.1726C183.401 84.6751 183.543 83.8222 183.048 83.1825C182.835 82.8982 182.411 82.6849 182.057 82.6849C181.704 82.6849 181.35 82.8271 181.067 83.0403L180.996 83.1114C180.925 83.1825 180.855 83.2535 180.784 83.2535C180.572 83.4668 180.359 83.68 180.218 83.8932C180.147 84.0354 180.006 84.1065 179.935 84.1775C179.44 84.7461 178.803 85.3148 178.166 85.7412C178.025 85.8123 177.883 85.8834 177.742 85.8834C177.671 85.8834 177.529 85.8834 177.459 85.8123H177.388L176.822 86.1677C176.256 85.5991 175.619 85.0304 175.053 84.4618C172.436 82.4006 169.181 81.1213 165.856 80.7659L165.785 80.1973V80.2683C165.573 80.1262 165.503 79.913 165.432 79.6997C165.432 78.9179 165.432 78.136 165.573 77.2831V77.2121C165.573 77.0699 165.644 76.9277 165.644 76.7856C165.715 76.5013 165.715 76.217 165.785 75.9327V75.5062C165.856 74.7955 165.29 74.0847 164.583 74.0136C164.158 73.9425 163.734 74.1558 163.38 74.5112C163.097 74.7955 162.956 75.1508 162.956 75.5062V75.8616C162.956 76.1459 163.026 76.4302 163.097 76.7145C163.168 76.8567 163.168 76.9988 163.168 77.141V77.2121C163.309 77.9939 163.309 78.7757 163.309 79.6286C163.239 79.8419 163.168 80.0551 162.956 80.1973V80.3394L162.885 80.908C162.107 80.9791 161.328 81.1213 160.479 81.2634C157.154 81.9742 154.112 83.7511 151.778 86.2387L151.353 85.9544H151.282C151.212 85.9544 151.141 86.0255 150.999 86.0255C150.858 86.0255 150.716 85.9544 150.575 85.8834C149.938 85.3858 149.301 84.8172 148.806 84.2486C148.735 84.1065 148.594 84.0354 148.523 83.9643C148.311 83.7511 148.17 83.5378 147.957 83.3246C147.887 83.2535 147.816 83.2535 147.745 83.1825C147.674 83.1114 147.674 83.1114 147.674 83.1114C147.391 82.8982 147.038 82.756 146.684 82.756C146.259 82.756 145.906 82.8982 145.693 83.2535C145.269 83.8932 145.41 84.7461 145.976 85.2437C146.047 85.2437 146.047 85.3148 146.047 85.3148C146.047 85.3148 146.189 85.4569 146.259 85.4569C146.472 85.5991 146.755 85.7412 147.038 85.8834C147.179 85.9544 147.321 86.0255 147.462 86.0966C148.17 86.5231 148.877 86.9495 149.443 87.5181C149.584 87.6603 149.726 87.9446 149.655 88.1578V88.0867L150.08 88.5132C150.009 88.6553 149.938 88.7264 149.867 88.8686C147.674 92.3513 146.755 96.4737 147.391 100.525L146.825 100.667C146.825 100.738 146.755 100.738 146.755 100.738C146.684 100.952 146.472 101.094 146.259 101.236C145.481 101.449 144.703 101.591 143.854 101.662C143.712 101.662 143.571 101.662 143.429 101.733C143.146 101.733 142.864 101.804 142.581 101.804C142.51 101.804 142.439 101.876 142.298 101.876C142.227 101.876 142.227 101.876 142.156 101.947C141.378 102.089 140.883 102.8 141.024 103.581C141.166 104.221 141.802 104.648 142.439 104.576C142.581 104.576 142.651 104.576 142.793 104.505C142.864 104.505 142.864 104.505 142.864 104.434C142.864 104.363 143.076 104.434 143.146 104.434C143.429 104.363 143.712 104.221 143.925 104.15C144.066 104.079 144.208 104.008 144.349 104.008H144.42C145.198 103.724 145.906 103.51 146.755 103.368H146.825C147.038 103.368 147.25 103.439 147.391 103.581C147.462 103.581 147.462 103.652 147.462 103.652L148.099 103.581C149.16 106.851 151.141 109.765 153.9 111.897C154.537 112.395 155.103 112.821 155.81 113.177L155.456 113.674C155.456 113.745 155.527 113.745 155.527 113.745C155.669 113.959 155.669 114.243 155.598 114.456C155.315 115.167 154.89 115.878 154.466 116.517V116.588C154.395 116.73 154.324 116.802 154.183 116.944C154.042 117.086 153.9 117.37 153.688 117.654C153.617 117.726 153.617 117.797 153.546 117.868C153.546 117.868 153.546 117.939 153.476 117.939C153.122 118.65 153.405 119.502 154.042 119.858C154.183 119.929 154.395 120 154.537 120C155.103 120 155.598 119.645 155.881 119.147C155.881 119.147 155.881 119.076 155.952 119.076C155.952 119.005 156.022 118.934 156.093 118.863C156.164 118.578 156.305 118.365 156.376 118.081L156.518 117.654C156.73 116.873 157.084 116.162 157.437 115.451C157.579 115.238 157.791 115.096 158.003 115.025C158.074 115.025 158.074 115.025 158.074 114.954L158.357 114.385C160.338 115.167 162.39 115.522 164.512 115.522C165.785 115.522 167.059 115.38 168.332 115.025C169.111 114.883 169.889 114.598 170.596 114.385L170.879 114.882C170.95 114.882 170.95 114.883 170.95 114.954C171.162 115.025 171.374 115.167 171.516 115.38C171.87 116.091 172.223 116.802 172.436 117.583V117.654L172.577 118.081C172.648 118.365 172.719 118.65 172.86 118.863C172.931 118.934 172.931 119.005 173.002 119.076C173.002 119.076 173.002 119.147 173.072 119.147C173.355 119.645 173.851 120 174.417 120C174.629 120 174.77 119.929 174.983 119.858C175.266 119.716 175.549 119.431 175.619 119.076C175.69 118.721 175.69 118.365 175.549 118.01C175.549 117.939 175.478 117.939 175.478 117.939C175.478 117.868 175.407 117.797 175.336 117.726C175.195 117.441 175.053 117.228 174.841 117.015C174.77 116.873 174.7 116.802 174.558 116.659V116.517C174.063 115.878 173.709 115.167 173.426 114.456C173.355 114.243 173.355 113.959 173.497 113.745C173.497 113.674 173.568 113.674 173.568 113.674L173.355 113.106C176.963 110.902 179.723 107.491 180.996 103.439L181.562 103.51C181.633 103.51 181.633 103.439 181.633 103.439C181.774 103.297 181.987 103.226 182.199 103.226H182.27C183.048 103.368 183.826 103.581 184.533 103.866H184.604C184.746 103.937 184.887 104.008 185.029 104.008C185.312 104.15 185.524 104.292 185.807 104.363C185.878 104.363 185.948 104.434 186.09 104.434C186.161 104.434 186.161 104.434 186.231 104.505C186.373 104.576 186.444 104.576 186.585 104.576C187.222 104.576 187.788 104.15 188 103.581C187.929 102.8 187.363 102.231 186.727 102.089ZM166.281 99.8854L164.371 100.809L162.46 99.8854L161.965 97.8242L163.309 96.1184H165.432L166.776 97.8242L166.281 99.8854ZM177.812 95.2654C178.166 96.758 178.237 98.2506 178.095 99.7432L171.374 97.8242C170.738 97.682 170.384 97.0423 170.526 96.4027C170.596 96.1894 170.667 96.0473 170.809 95.9051L176.115 91.0719C176.893 92.3513 177.459 93.7728 177.812 95.2654ZM173.992 88.4421L168.191 92.5645C167.696 92.8488 166.988 92.7778 166.634 92.2802C166.493 92.1381 166.422 91.9959 166.422 91.7827L165.998 84.604C169.111 84.9594 171.87 86.3098 173.992 88.4421ZM161.187 84.8172L162.602 84.5329L162.248 91.6405C162.248 92.2802 161.682 92.7778 161.045 92.7778C160.833 92.7778 160.692 92.7067 160.479 92.6356L154.607 88.4421C156.447 86.6652 158.711 85.3858 161.187 84.8172ZM152.556 91.0719L157.791 95.763C158.286 96.1894 158.357 96.9002 157.933 97.3977C157.791 97.611 157.65 97.682 157.367 97.7531L150.504 99.7432C150.292 96.758 150.999 93.7018 152.556 91.0719ZM151.353 103.084L158.357 101.876C158.923 101.876 159.489 102.231 159.56 102.8C159.631 103.013 159.631 103.297 159.489 103.51L156.801 110.049C154.324 108.415 152.344 105.927 151.353 103.084ZM167.413 111.897C166.422 112.111 165.432 112.253 164.371 112.253C162.885 112.253 161.328 111.968 159.913 111.542L163.38 105.216C163.734 104.79 164.3 104.648 164.795 104.932C165.007 105.074 165.149 105.216 165.361 105.429L168.757 111.613C168.332 111.684 167.908 111.755 167.413 111.897ZM176.044 105.714C174.983 107.419 173.497 108.912 171.799 109.978L169.04 103.297C168.898 102.728 169.181 102.16 169.677 101.947C169.889 101.876 170.101 101.804 170.313 101.804L177.388 103.013C177.034 104.008 176.61 104.932 176.044 105.714Z" fill="white"/>
</g>
<defs>
<linearGradient id="paint0_linear_1194_253917" x1="148.343" y1="41.4066" x2="214.82" y2="7.30615" gradientUnits="userSpaceOnUse">
<stop stop-color="#0091DA" stop-opacity="0"/>
<stop offset="1" stop-color="#0091DA"/>
</linearGradient>
<linearGradient id="paint1_linear_1194_253917" x1="51.9704" y1="76.4913" x2="-18.6538" y2="110.079" gradientUnits="userSpaceOnUse">
<stop stop-color="#0091DA" stop-opacity="0"/>
<stop offset="1" stop-color="#0091DA"/>
</linearGradient>
<linearGradient id="paint2_linear_1194_253917" x1="218.18" y1="0.551273" x2="212.78" y2="188.772" gradientUnits="userSpaceOnUse">
<stop stop-color="#0091DA" stop-opacity="0"/>
<stop offset="1" stop-color="#0091DA"/>
</linearGradient>
<linearGradient id="paint3_linear_1194_253917" x1="336.921" y1="14.2568" x2="364.93" y2="155.67" gradientUnits="userSpaceOnUse">
<stop stop-color="#0091DA" stop-opacity="0"/>
<stop offset="1" stop-color="#0091DA"/>
</linearGradient>
<clipPath id="clip0_1194_253917">
<rect width="328" height="184" fill="white"/>
</clipPath>
</defs>
</svg>
