<svg width="328" height="184" viewBox="0 0 328 184" fill="none" xmlns="http://www.w3.org/2000/svg">
<g clip-path="url(#clip0_1194_254244)">
<rect width="328" height="184" fill="white"/>
<path opacity="0.1" d="M214.667 -38.9999L129 46.6667L152.503 70.1699L238.17 -15.4968L214.667 -38.9999Z" fill="url(#paint0_linear_1194_254244)"/>
<path opacity="0.1" d="M-1.22524 138.582L58.5117 78.845L43.6669 64.0001L-16.0701 123.737L-1.22524 138.582Z" fill="url(#paint1_linear_1194_254244)"/>
<path opacity="0.2" d="M299.864 -44.2043L56.7607 198.899L136.213 278.351L379.316 35.2475L299.864 -44.2043Z" fill="url(#paint2_linear_1194_254244)"/>
<path opacity="0.1" d="M397.596 -34.5066L154.493 208.597L204.705 258.809L447.808 15.7052L397.596 -34.5066Z" fill="url(#paint3_linear_1194_254244)"/>
<path opacity="0.1" d="M-9.9263 18.2331L-9.92629 18.2317L-9.87366 0.832743C-9.87365 0.832544 -9.87365 0.832345 -9.87365 0.832147C-9.86582 -0.483136 -9.15897 -1.69547 -8.0177 -2.35439L7.14251 -11.1071C8.28379 -11.766 9.68714 -11.772 10.8301 -11.1211C10.8303 -11.121 10.8305 -11.121 10.8306 -11.1209L25.9249 -2.46698L25.9261 -2.4663C27.0671 -1.81632 27.7608 -0.61474 27.7532 0.698407L27.7532 0.699795L27.7006 18.0987C27.7006 18.0989 27.7006 18.0991 27.7006 18.0992C27.6928 19.4146 26.9859 20.6269 25.8446 21.2859L10.6844 30.0386C9.5432 30.6975 8.13995 30.7035 6.99699 30.0527C6.99676 30.0526 6.99653 30.0525 6.9963 30.0523L-8.09795 21.3985L-8.09915 21.3978C-9.24018 20.7478 -9.93391 19.5462 -9.9263 18.2331Z" stroke="#00AAFF"/>
<path d="M287 102L309 80" stroke="#0091DA" stroke-linecap="round"/>
<path d="M317 71L339 49" stroke="#0091DA" stroke-linecap="round"/>
<circle cx="313" cy="76" r="2.5" stroke="#0091DA"/>
<path d="M7 185L43 149" stroke="#0091DA" stroke-linecap="round"/>
<path d="M-4 175L65.5 105.5" stroke="#0091DA" stroke-opacity="0.1" stroke-linecap="round"/>
<rect x="129" y="92" width="76" height="16" rx="2" fill="#8ECAEA"/>
<rect x="129" y="109" width="76" height="16" rx="2" fill="#8ECAEA"/>
<rect x="129" y="126" width="76" height="16" rx="2" fill="#8ECAEA"/>
<path d="M138.044 65.3504L131.981 67.6695C131.463 67.8676 131.088 68.3246 130.998 68.8711L129.961 75.2406C129.871 75.7872 130.08 76.3347 130.512 76.6813L135.535 80.7335C135.967 81.0802 136.551 81.1707 137.068 80.9727L143.132 78.6536C143.65 78.4555 144.024 77.9986 144.115 77.452L145.152 71.0825C145.242 70.536 145.033 69.9885 144.601 69.6418L139.578 65.5896C139.146 65.2429 138.562 65.1524 138.044 65.3504Z" fill="#0091DA"/>
<path d="M153.198 67.7697L147.134 70.0888C146.616 70.2868 146.242 70.7438 146.151 71.2904L145.115 77.6598C145.024 78.2064 145.233 78.7539 145.666 79.1006L150.688 83.1527C151.12 83.4994 151.704 83.5899 152.222 83.3919L158.286 81.0728C158.803 80.8748 159.178 80.4178 159.268 79.8712L160.305 73.5018C160.395 72.9552 160.186 72.4077 159.754 72.061L154.732 68.0088C154.299 67.6621 153.716 67.5716 153.198 67.7697Z" fill="#0091DA"/>
<path d="M168.351 70.1889L162.287 72.508C161.769 72.706 161.395 73.163 161.304 73.7096L160.267 80.079C160.177 80.6256 160.386 81.1731 160.818 81.5198L165.841 85.572C166.273 85.9187 166.857 86.0092 167.375 85.8111L173.438 83.492C173.956 83.294 174.331 82.837 174.421 82.2904L175.458 75.921C175.548 75.3744 175.339 74.8269 174.907 74.4802L169.884 70.428C169.452 70.0813 168.868 69.9908 168.351 70.1889Z" fill="#0091DA"/>
<path d="M183.504 72.6081L177.44 74.9272C176.922 75.1252 176.548 75.5822 176.457 76.1288L175.421 82.4982C175.33 83.0448 175.54 83.5923 175.972 83.939L180.994 87.9912C181.426 88.3378 182.01 88.4284 182.528 88.2303L188.592 85.9112C189.11 85.7132 189.484 85.2562 189.574 84.7096L190.611 78.3402C190.702 77.7936 190.492 77.2461 190.06 76.8994L185.038 72.8472C184.606 72.5005 184.022 72.41 183.504 72.6081Z" fill="#0091DA"/>
<path d="M198.657 75.0273L192.593 77.3464C192.075 77.5444 191.701 78.0014 191.61 78.548L190.574 84.9174C190.483 85.464 190.692 86.0115 191.125 86.3582L196.147 90.4104C196.579 90.7571 197.163 90.8476 197.681 90.6495L203.745 88.3304C204.262 88.1324 204.637 87.6754 204.727 87.1288L205.764 80.7594C205.854 80.2128 205.645 79.6653 205.213 79.3186L200.191 75.2665C199.758 74.9198 199.175 74.8292 198.657 75.0273Z" fill="#0091DA"/>
<path d="M223.937 31.5262L229.758 28.1653L235.579 31.5262V38.248L229.758 41.6089L223.937 38.248V31.5262Z" stroke="#0091DA" stroke-width="0.677419"/>
<path d="M212.421 24.752L218.242 21.3911L224.063 24.752V31.4738L218.242 34.8347L212.421 31.4738V24.752Z" stroke="#0091DA" stroke-width="0.677419"/>
<g opacity="0.25">
<path d="M60.9067 122.539L69.5 117.577L78.0933 122.539V132.461L69.5 137.423L60.9067 132.461V122.539Z" stroke="#0091DA"/>
<path d="M69.9067 137.539L78.5 132.577L87.0933 137.539V147.461L78.5 152.423L69.9067 147.461V137.539Z" stroke="#0091DA"/>
<path d="M77.9067 122.539L86.5 117.577L95.0933 122.539V132.461L86.5 137.423L77.9067 132.461V122.539Z" stroke="#0091DA"/>
</g>
<circle cx="241.5" cy="123" r="3.5" transform="rotate(90 241.5 123)" stroke="#0091DA"/>
<path d="M241.5 147L230 135.5L230 115.5L225.5 110.75L221 106" stroke="#0091DA"/>
<path d="M241.5 129.5L241.5 156.75M241.5 184L241.5 156.75M241.5 156.75L257.25 141" stroke="#0091DA"/>
<path d="M108 67.5L92.5 63C92.5 63 92.5 26.1414 92.5 -1" stroke="#0091DA"/>
<path fill-rule="evenodd" clip-rule="evenodd" d="M136.354 65.5934C135.178 59.0792 129.271 54.3469 122.509 54.7932C115.747 55.2395 110.513 60.7072 110.203 67.3195L109.199 67.3857C109.477 60.2209 115.13 54.2781 122.443 53.7954C129.757 53.3127 136.141 58.461 137.358 65.5272L136.354 65.5934Z" fill="#0091DA"/>
<path fill-rule="evenodd" clip-rule="evenodd" d="M133.536 79.7942C129.962 85.3658 122.695 87.4839 116.616 84.4894C110.537 81.495 107.787 74.443 110.026 68.2134L109.123 67.7689C106.644 74.497 109.599 82.1477 116.174 85.3865C122.749 88.6252 130.616 86.3048 134.439 80.2388L133.536 79.7942Z" fill="#0091DA"/>
<circle cx="109.033" cy="67.751" r="4.7882" transform="rotate(11.2238 109.033 67.751)" fill="#0091DA"/>
<circle cx="109.033" cy="67.751" r="2.3941" transform="rotate(11.2238 109.033 67.751)" fill="#0091DA"/>
</g>
<defs>
<linearGradient id="paint0_linear_1194_254244" x1="148.343" y1="41.4066" x2="214.82" y2="7.30615" gradientUnits="userSpaceOnUse">
<stop stop-color="#0091DA" stop-opacity="0"/>
<stop offset="1" stop-color="#0091DA"/>
</linearGradient>
<linearGradient id="paint1_linear_1194_254244" x1="51.9704" y1="76.4914" x2="-18.6538" y2="110.079" gradientUnits="userSpaceOnUse">
<stop stop-color="#0091DA" stop-opacity="0"/>
<stop offset="1" stop-color="#0091DA"/>
</linearGradient>
<linearGradient id="paint2_linear_1194_254244" x1="218.18" y1="0.551273" x2="212.78" y2="188.772" gradientUnits="userSpaceOnUse">
<stop stop-color="#0091DA" stop-opacity="0"/>
<stop offset="1" stop-color="#0091DA"/>
</linearGradient>
<linearGradient id="paint3_linear_1194_254244" x1="336.921" y1="14.2568" x2="364.93" y2="155.67" gradientUnits="userSpaceOnUse">
<stop stop-color="#0091DA" stop-opacity="0"/>
<stop offset="1" stop-color="#0091DA"/>
</linearGradient>
<clipPath id="clip0_1194_254244">
<rect width="328" height="184" fill="white"/>
</clipPath>
</defs>
</svg>
