<svg width="328" height="184" viewBox="0 0 328 184" fill="none" xmlns="http://www.w3.org/2000/svg">
<g clip-path="url(#clip0_1194_252603)">
<rect width="328" height="184" fill="white"/>
<path opacity="0.1" d="M214.667 -38.9999L129 46.6667L152.503 70.1699L238.17 -15.4968L214.667 -38.9999Z" fill="url(#paint0_linear_1194_252603)"/>
<path opacity="0.1" d="M-1.22524 138.582L58.5117 78.845L43.6669 64.0001L-16.0701 123.737L-1.22524 138.582Z" fill="url(#paint1_linear_1194_252603)"/>
<path opacity="0.2" d="M299.864 -44.2043L56.7607 198.899L136.213 278.351L379.316 35.2475L299.864 -44.2043Z" fill="url(#paint2_linear_1194_252603)"/>
<path opacity="0.1" d="M397.596 -34.5066L154.493 208.597L204.705 258.809L447.808 15.7052L397.596 -34.5066Z" fill="url(#paint3_linear_1194_252603)"/>
<path d="M256 38L278 16" stroke="#0091DA" stroke-linecap="round"/>
<path d="M286 7L308 -15" stroke="#0091DA" stroke-linecap="round"/>
<circle cx="282" cy="12" r="2.5" stroke="#0091DA"/>
<path d="M7 185L43 149" stroke="#0091DA" stroke-linecap="round"/>
<path d="M-4 175L65.5 105.5" stroke="#0091DA" stroke-opacity="0.1" stroke-linecap="round"/>
<path d="M203 186L225 164" stroke="#0091DA" stroke-linecap="round"/>
<path d="M233 155L255 133" stroke="#0091DA" stroke-linecap="round"/>
<circle cx="229" cy="160" r="2.5" stroke="#0091DA"/>
<path d="M202.277 77.9961C202.918 79.4375 202.438 80.8789 201.316 82L194.43 88.2461C194.59 89.5273 194.75 90.9688 194.75 92.25C194.75 93.6914 194.59 95.1328 194.43 96.4141L201.316 102.66C202.438 103.781 202.918 105.223 202.277 106.664C201.637 108.586 200.836 110.348 199.875 112.109L199.074 113.391C197.953 115.152 196.832 116.914 195.551 118.516C194.59 119.637 192.988 119.957 191.547 119.477L182.738 116.754C180.496 118.355 178.094 119.637 175.691 120.758L173.609 129.887C173.289 131.328 172.168 132.449 170.727 132.77C168.484 133.09 166.242 133.25 163.84 133.25C161.598 133.25 159.355 133.09 157.113 132.77C155.672 132.449 154.551 131.328 154.23 129.887L152.148 120.758C149.746 119.637 147.344 118.355 145.102 116.754L136.293 119.477C134.852 119.957 133.25 119.637 132.289 118.516C131.008 116.914 129.887 115.152 128.766 113.391L127.965 112.109C127.004 110.348 126.203 108.586 125.562 106.664C124.922 105.223 125.402 103.781 126.523 102.66L133.41 96.4141C133.25 95.1328 133.25 93.6914 133.25 92.25C133.25 90.9688 133.25 89.5273 133.41 88.2461L126.523 82C125.402 80.8789 124.922 79.4375 125.562 77.9961C126.203 76.0742 127.004 74.3125 127.965 72.5508L128.766 71.2695C129.887 69.5078 131.008 67.7461 132.289 66.1445C133.25 65.0234 134.852 64.7031 136.293 65.1836L145.102 67.9062C147.344 66.3047 149.746 64.8633 152.148 63.9023L154.23 54.7734C154.551 53.332 155.672 52.2109 157.113 51.8906C159.355 51.5703 161.598 51.25 164 51.25C166.242 51.25 168.484 51.5703 170.727 51.8906C172.168 52.2109 173.289 53.332 173.609 54.7734L175.691 63.9023C178.094 64.8633 180.496 66.3047 182.738 67.9062L191.547 65.1836C192.988 64.7031 194.59 65.0234 195.551 66.1445C196.832 67.7461 197.953 69.5078 199.074 71.2695L199.875 72.5508C200.836 74.3125 201.637 76.0742 202.277 77.9961ZM164 105.062C171.047 105.062 176.812 99.457 176.812 92.25C176.812 85.2031 171.047 79.4375 164 79.4375C156.793 79.4375 151.188 85.2031 151.188 92.25C151.188 99.457 156.793 105.062 164 105.062Z" fill="#0091DA"/>
<circle cx="164" cy="92" r="17" stroke="#8ECAEA" stroke-width="10"/>
<path d="M90 65.5V92.5H124" stroke="#0091DA"/>
<path d="M107.253 36.9278C107.254 36.8544 107.255 36.7811 107.255 36.7074C107.255 29.6893 101.566 24 94.5481 24C88.5001 24 83.4395 28.2252 82.1557 33.8849C80.9587 33.2148 79.5799 32.831 78.1105 32.831C73.5256 32.831 69.8089 36.5479 69.8089 41.1326C69.8089 41.32 69.8173 41.5053 69.8295 41.6896C66.4258 42.9531 64 46.2293 64 50.0729C64 55.0104 68.0027 59.0131 72.9402 59.0131H104.825C110.997 59.0131 116 54.0097 116 47.8378C116 42.4997 112.257 38.0365 107.253 36.9278Z" fill="#8ECAEA"/>
<path d="M90.125 55.25C85.7656 55.25 82.25 54.0195 82.25 52.4375V40.0625C82.25 38.5156 85.7656 37.25 90.125 37.25C94.4492 37.25 98 38.5156 98 40.0625V52.4375C98 54.0195 94.4492 55.25 90.125 55.25ZM96.875 40.0977C96.8398 40.0625 96.8047 39.9922 96.6289 39.8516C96.3828 39.6406 95.9258 39.3945 95.293 39.1484C94.0273 38.6914 92.1992 38.375 90.125 38.375C88.0156 38.375 86.1875 38.6914 84.9219 39.1484C84.2891 39.3945 83.832 39.6406 83.5859 39.8516C83.4102 39.9922 83.375 40.0625 83.375 40.0977V43.6836C83.8672 44.0352 84.6758 44.3867 85.7656 44.668C86.9961 44.9492 88.4727 45.125 90.125 45.125C91.7422 45.125 93.2188 44.9492 94.4492 44.668C95.5391 44.3867 96.3477 44.0352 96.875 43.6836V40.0977ZM96.875 44.9844C96.2422 45.3008 95.5039 45.5469 94.6953 45.7578C93.3945 46.0742 91.8125 46.25 90.125 46.25C88.4023 46.25 86.8203 46.0742 85.5195 45.7578C84.7109 45.5469 83.9727 45.3008 83.375 44.9844V48.1836C83.8672 48.5352 84.6758 48.8867 85.7656 49.168C86.9961 49.4492 88.4727 49.625 90.125 49.625C91.7422 49.625 93.2188 49.4492 94.4492 49.168C95.5391 48.8867 96.3477 48.5352 96.875 48.1836V44.9844ZM83.5859 52.6836C83.832 52.8945 84.2891 53.1406 84.9219 53.3867C86.1875 53.8438 88.0156 54.125 90.125 54.125C92.1992 54.125 94.0273 53.8438 95.293 53.3867C95.9258 53.1406 96.3828 52.8945 96.6289 52.6836C96.8047 52.543 96.8398 52.4727 96.875 52.4375V49.4844C96.2422 49.8008 95.5039 50.0469 94.6953 50.2578C93.3945 50.5742 91.8125 50.75 90.125 50.75C88.4023 50.75 86.8203 50.5742 85.5195 50.2578C84.7109 50.0469 83.9727 49.8008 83.375 49.4844V52.4375C83.375 52.4727 83.4102 52.543 83.5859 52.6836Z" fill="#EAF8FF"/>
<path d="M235 95L235 68L207 68" stroke="#0091DA"/>
<path d="M257.253 95.9278C257.254 95.8544 257.255 95.7811 257.255 95.7074C257.255 88.6893 251.566 83 244.548 83C238.5 83 233.44 87.2252 232.156 92.8849C230.959 92.2148 229.58 91.831 228.11 91.831C223.526 91.831 219.809 95.5479 219.809 100.133C219.809 100.32 219.817 100.505 219.83 100.69C216.426 101.953 214 105.229 214 109.073C214 114.01 218.003 118.013 222.94 118.013H254.825C260.997 118.013 266 113.01 266 106.838C266 101.5 262.257 97.0365 257.253 95.9278Z" fill="#8ECAEA"/>
<path d="M241 100.227C239.98 100.262 239.137 100.578 238.469 101.246C237.871 101.844 237.484 102.723 237.52 103.602C237.555 105.359 237.379 107.152 237.062 108.84C236.992 109.156 237.203 109.473 237.484 109.508C237.801 109.543 238.082 109.367 238.152 109.051C238.539 107.258 238.68 105.395 238.68 103.566C238.645 103.004 238.855 102.441 239.277 102.02C239.91 101.387 240.754 101.352 241 101.352C242.301 101.387 243.32 102.441 243.32 103.707C243.32 105.465 243.25 107.223 242.934 108.945C242.863 109.227 243.074 109.508 243.391 109.578C243.426 109.578 243.426 109.578 243.461 109.578C243.742 109.578 243.988 109.402 244.023 109.121C244.34 107.363 244.445 105.465 244.445 103.637C244.445 101.809 242.898 100.262 241 100.227ZM240.965 103.25C240.684 103.285 240.438 103.531 240.438 103.848C240.473 106.414 240.156 108.91 239.453 111.406L239.418 111.547C239.348 111.793 239.453 112.25 239.945 112.25C240.156 112.25 240.402 112.109 240.473 111.863L240.543 111.723C241.246 109.121 241.598 106.52 241.562 103.812C241.562 103.496 241.281 103.25 240.965 103.25ZM235.938 99.5234C235.059 100.613 234.602 101.984 234.602 103.391C234.637 104.797 234.531 106.203 234.285 107.539C234.215 107.855 234.426 108.137 234.707 108.207C234.707 108.207 234.777 108.207 234.812 108.207C235.094 108.207 235.34 107.996 235.375 107.75C235.621 106.309 235.762 104.867 235.727 103.391C235.727 102.23 236.078 101.141 236.816 100.227C237.027 100.016 236.992 99.6641 236.746 99.4531C236.5 99.2422 236.148 99.2773 235.938 99.5234ZM249.965 103.145C249.965 102.582 249.895 101.984 249.789 101.422C249.719 101.141 249.402 100.93 249.121 101C248.805 101.07 248.594 101.352 248.664 101.668C248.805 102.125 248.84 102.688 248.84 103.18C248.875 103.461 248.875 103.707 248.875 103.988C248.84 104.305 249.086 104.551 249.402 104.551C249.719 104.551 249.93 104.305 250 103.988C250 103.707 250 103.426 249.965 103.145ZM240.859 94.2852C238.398 94.2148 236.148 95.1289 234.461 96.8164C232.844 98.4688 231.965 100.613 232 102.934C232 103.18 232 103.461 232 103.707C231.965 104.023 232.211 104.305 232.527 104.305H232.562C232.844 104.305 233.09 104.059 233.09 103.742C233.09 103.461 233.09 103.18 233.09 102.898C233.09 100.895 233.828 99.0312 235.27 97.625C236.711 96.1484 238.715 95.375 240.859 95.4102C243.461 95.4453 245.922 96.7461 247.434 98.8906C247.609 99.1367 247.961 99.207 248.242 99.0312C248.488 98.8906 248.559 98.5039 248.348 98.2227C246.66 95.7969 243.848 94.3203 240.859 94.2852ZM240.895 97.2734C240.367 97.2383 239.84 97.3086 239.312 97.4141C239.031 97.4844 238.855 97.8008 238.891 98.1172C238.961 98.3984 239.277 98.6094 239.594 98.5391C240.016 98.4336 240.438 98.3633 240.895 98.3984C243.812 98.4688 246.203 100.789 246.238 103.602C246.273 105.008 246.203 106.414 246.062 107.785C246.027 108.102 246.238 108.383 246.52 108.418C246.52 108.418 246.555 108.418 246.59 108.418C246.836 108.418 247.082 108.242 247.117 107.926C247.293 106.484 247.363 105.043 247.328 103.602C247.328 100.121 244.41 97.3086 240.895 97.2734Z" fill="#EAF8FF"/>
<path d="M144.5 127L116.5 155" stroke="#0091DA"/>
<path d="M128.253 137.928C128.254 137.854 128.255 137.781 128.255 137.707C128.255 130.689 122.566 125 115.548 125C109.5 125 104.44 129.225 103.156 134.885C101.959 134.215 100.58 133.831 99.1105 133.831C94.5256 133.831 90.8089 137.548 90.8089 142.133C90.8089 142.32 90.8173 142.505 90.8295 142.69C87.4258 143.953 85 147.229 85 151.073C85 156.01 89.0027 160.013 93.9402 160.013H125.825C131.997 160.013 137 155.01 137 148.838C137 143.5 133.257 139.037 128.253 137.928Z" fill="#8ECAEA"/>
<path d="M117.715 138.25H104.215C102.949 138.25 101.965 139.27 101.965 140.5V150.59C101.965 151.82 102.949 152.805 104.215 152.805H107.59V155.758C107.59 156.109 107.977 156.285 108.258 156.074L112.652 152.805H117.715C118.945 152.805 119.965 151.785 119.965 150.59V140.5C119.965 139.27 118.98 138.25 117.715 138.25ZM118.875 150.625C118.875 151.258 118.348 151.75 117.75 151.75H112.652C112.406 151.75 112.195 151.855 111.984 151.996L108.75 154.422V152.312C108.75 152.031 108.469 151.75 108.188 151.75H104.25C103.617 151.75 103.125 151.258 103.125 150.625V140.5C103.125 139.902 103.617 139.375 104.25 139.375H117.75C118.348 139.375 118.875 139.902 118.875 140.5V150.625Z" fill="#EAF8FF"/>
<path opacity="0.1" d="M34.5391 6.85156L33.5904 7.16779L33.6056 7.21359L33.6253 7.2577L34.5391 6.85156ZM34.0234 9L34.6953 9.74072L34.7133 9.72434L34.7305 9.70711L34.0234 9ZM30.3281 12.3516L29.6563 11.6108L29.2714 11.96L29.3358 12.4756L30.3281 12.3516ZM30.3281 16.7344L29.3358 16.6103L29.2714 17.126L29.6563 17.4751L30.3281 16.7344ZM34.0234 20.0859L34.7305 19.3788L34.7133 19.3616L34.6953 19.3452L34.0234 20.0859ZM34.5391 22.2344L33.6253 21.8282L33.6056 21.8724L33.5904 21.9181L34.5391 22.2344ZM33.25 25.1562L34.098 25.6862L34.1137 25.6611L34.1279 25.6351L33.25 25.1562ZM32.8203 25.8438L33.664 26.3806L33.6683 26.3737L32.8203 25.8438ZM30.9297 28.5938L31.6889 29.2445L31.7 29.2317L31.7106 29.2184L30.9297 28.5938ZM28.7812 29.1094L29.0975 28.1607L29.0871 28.1572L29.0766 28.154L28.7812 29.1094ZM24.0547 27.6484L24.35 26.693L23.8766 26.5467L23.4734 26.8347L24.0547 27.6484ZM20.2734 29.7969L19.8506 28.8907L19.4073 29.0976L19.2985 29.5745L20.2734 29.7969ZM19.1563 34.6953L18.1813 34.4729L18.1801 34.4784L19.1563 34.6953ZM17.6094 36.2422L17.7508 37.2321L17.7888 37.2267L17.8263 37.2184L17.6094 36.2422ZM10.3047 36.2422L10.0878 37.2184L10.1252 37.2267L10.1633 37.2321L10.3047 36.2422ZM8.75781 34.6953L9.73402 34.4784L9.73278 34.4729L8.75781 34.6953ZM7.64063 29.7969L8.61559 29.5745L8.50681 29.0976L8.06351 28.8907L7.64063 29.7969ZM3.85938 27.6484L4.44062 26.8347L4.03744 26.5467L3.56407 26.693L3.85938 27.6484ZM-0.867184 29.1094L-1.16249 28.154L-1.17299 28.1572L-1.18341 28.1607L-0.867184 29.1094ZM-3.01562 28.5938L-3.79649 29.2184L-3.78591 29.2317L-3.77488 29.2445L-3.01562 28.5938ZM-4.90625 25.8438L-5.75427 26.3738L-5.74991 26.3806L-4.90625 25.8438ZM-5.33593 25.1562L-6.21383 25.6351L-6.19964 25.6611L-6.18393 25.6862L-5.33593 25.1562ZM-6.625 22.2344L-5.67631 21.9181L-5.69158 21.8724L-5.71118 21.8282L-6.625 22.2344ZM-6.10937 20.0859L-6.78119 19.3452L-6.79924 19.3616L-6.81648 19.3788L-6.10937 20.0859ZM-2.41406 16.7344L-1.74224 17.4751L-1.35733 17.126L-1.42178 16.6103L-2.41406 16.7344ZM-2.41406 12.3516L-1.42178 12.4756L-1.35733 11.96L-1.74224 11.6108L-2.41406 12.3516ZM-6.10937 9L-6.81648 9.70711L-6.79924 9.72434L-6.78119 9.74072L-6.10937 9ZM-6.625 6.85156L-5.71118 7.2577L-5.69158 7.21359L-5.67631 7.16779L-6.625 6.85156ZM-5.33593 3.92969L-6.18393 3.39969L-6.19964 3.42482L-6.21383 3.45084L-5.33593 3.92969ZM-4.90625 3.24219L-5.74994 2.7053L-5.75424 2.71219L-4.90625 3.24219ZM-3.01562 0.49219L-3.77488 -0.158601L-3.78591 -0.145736L-3.79649 -0.132505L-3.01562 0.49219ZM-0.867184 -0.0234346L-1.18341 0.925248L-1.17299 0.928723L-1.16249 0.931968L-0.867184 -0.0234346ZM3.85938 1.4375L3.56407 2.39291L4.03744 2.53922L4.44062 2.25124L3.85938 1.4375ZM7.64063 -0.710935L8.01202 0.217542L8.49897 0.0227604L8.61559 -0.488575L7.64063 -0.710935ZM8.75781 -5.60937L9.73279 -5.38701L9.734 -5.39244L8.75781 -5.60937ZM10.3047 -7.15625L10.1633 -8.1462L10.1252 -8.14076L10.0878 -8.13243L10.3047 -7.15625ZM17.6094 -7.15625L17.8263 -8.13243L17.7888 -8.14076L17.7508 -8.1462L17.6094 -7.15625ZM19.1563 -5.60937L18.18 -5.39244L18.1813 -5.38701L19.1563 -5.60937ZM20.2734 -0.710935L19.2985 -0.488575L19.4151 0.0227604L19.902 0.217542L20.2734 -0.710935ZM24.0547 1.4375L23.4734 2.25124L23.8766 2.53922L24.35 2.39291L24.0547 1.4375ZM28.7812 -0.0234346L29.0766 0.931968L29.0871 0.928723L29.0975 0.925248L28.7812 -0.0234346ZM30.9297 0.49219L31.7106 -0.132505L31.7 -0.145736L31.6889 -0.158601L30.9297 0.49219ZM32.8203 3.24219L33.6683 2.71217L33.664 2.70531L32.8203 3.24219ZM33.25 3.92969L34.1279 3.45084L34.1137 3.42482L34.098 3.39969L33.25 3.92969ZM33.6253 7.2577C33.7543 7.54809 33.7159 7.8933 33.3163 8.29289L34.7305 9.70711C35.5341 8.90358 36.0113 7.70192 35.4529 6.44543L33.6253 7.2577ZM33.3516 8.25928L29.6563 11.6108L30.9999 13.0923L34.6953 9.74072L33.3516 8.25928ZM29.3358 12.4756C29.4218 13.1633 29.5 13.8813 29.5 14.5H31.5C31.5 13.7437 31.4063 12.9148 31.3204 12.2275L29.3358 12.4756ZM29.5 14.5C29.5 15.2067 29.4212 15.9273 29.3358 16.6103L31.3204 16.8584C31.4069 16.1665 31.5 15.3402 31.5 14.5H29.5ZM29.6563 17.4751L33.3516 20.8267L34.6953 19.3452L30.9999 15.9937L29.6563 17.4751ZM33.3163 20.793C33.7159 21.1926 33.7543 21.5379 33.6253 21.8282L35.4529 22.6405C36.0113 21.384 35.5341 20.1824 34.7305 19.3788L33.3163 20.793ZM33.5904 21.9181C33.2685 22.8839 32.8645 23.7747 32.3721 24.6774L34.1279 25.6351C34.6668 24.6472 35.1222 23.6474 35.4877 22.5506L33.5904 21.9181ZM32.402 24.6263L31.9723 25.3138L33.6683 26.3737L34.098 25.6862L32.402 24.6263ZM31.9767 25.3069C31.3698 26.2605 30.7968 27.1591 30.1488 27.9691L31.7106 29.2184C32.4376 28.3096 33.0677 27.3177 33.664 26.3806L31.9767 25.3069ZM30.1704 27.943C29.9654 28.1822 29.5569 28.3138 29.0975 28.1607L28.465 30.0581C29.5525 30.4206 30.8628 30.2084 31.6889 29.2445L30.1704 27.943ZM29.0766 28.154L24.35 26.693L23.7594 28.6038L28.4859 30.0648L29.0766 28.154ZM23.4734 26.8347C22.3383 27.6455 21.1088 28.3035 19.8506 28.8907L20.6963 30.7031C22.0162 30.0871 23.3649 29.3701 24.6359 28.4622L23.4734 26.8347ZM19.2985 29.5745L18.1813 34.4729L20.1312 34.9177L21.2484 30.0192L19.2985 29.5745ZM18.1801 34.4784C18.0924 34.8728 17.7869 35.1784 17.3924 35.266L17.8263 37.2184C18.9788 36.9623 19.8763 36.0647 20.1324 34.9122L18.1801 34.4784ZM17.468 35.2522C16.3128 35.4173 15.157 35.5 13.9141 35.5V37.5C15.2493 37.5 16.4997 37.4109 17.7508 37.2321L17.468 35.2522ZM13.9141 35.5C12.7587 35.5 11.6029 35.4175 10.4461 35.2522L10.1633 37.2321C11.4128 37.4106 12.6631 37.5 13.9141 37.5V35.5ZM10.5216 35.266C10.1272 35.1784 9.82165 34.8728 9.734 34.4784L7.78163 34.9122C8.03773 36.0647 8.9353 36.9623 10.0878 37.2184L10.5216 35.266ZM9.73278 34.4729L8.61559 29.5745L6.66566 30.0192L7.78285 34.9177L9.73278 34.4729ZM8.06351 28.8907C6.8053 28.3035 5.5758 27.6455 4.44062 26.8347L3.27814 28.4622C4.54921 29.3701 5.89783 30.0871 7.21774 30.7031L8.06351 28.8907ZM3.56407 26.693L-1.16249 28.154L-0.571878 30.0648L4.15468 28.6038L3.56407 26.693ZM-1.18341 28.1607C-1.64281 28.3138 -2.05129 28.1822 -2.25636 27.943L-3.77488 29.2445C-2.9487 30.2084 -1.63844 30.4206 -0.550957 30.0581L-1.18341 28.1607ZM-2.23475 27.9691C-2.8827 27.1591 -3.45576 26.2605 -4.06258 25.3069L-5.74991 26.3806C-5.15361 27.3177 -4.52354 28.3096 -3.79649 29.2184L-2.23475 27.9691ZM-4.05825 25.3138L-4.48794 24.6263L-6.18393 25.6862L-5.75424 26.3737L-4.05825 25.3138ZM-4.45804 24.6774C-4.95043 23.7747 -5.3544 22.8839 -5.67631 21.9181L-7.57368 22.5506C-7.20809 23.6474 -6.75269 24.6472 -6.21383 25.6351L-4.45804 24.6774ZM-5.71118 21.8282C-5.84024 21.5379 -5.80186 21.1926 -5.40226 20.793L-6.81648 19.3788C-7.62001 20.1824 -8.09725 21.384 -7.53881 22.6405L-5.71118 21.8282ZM-5.43756 20.8267L-1.74224 17.4751L-3.08587 15.9937L-6.78119 19.3452L-5.43756 20.8267ZM-1.42178 16.6103C-1.49851 15.9965 -1.5 15.289 -1.5 14.5H-3.5C-3.5 15.2579 -3.50148 16.0972 -3.40634 16.8584L-1.42178 16.6103ZM-1.5 14.5C-1.5 13.7987 -1.49858 13.09 -1.42178 12.4756L-3.40634 12.2275C-3.50142 12.9882 -3.5 13.8263 -3.5 14.5H-1.5ZM-1.74224 11.6108L-5.43756 8.25928L-6.78119 9.74072L-3.08587 13.0923L-1.74224 11.6108ZM-5.40226 8.29289C-5.80186 7.8933 -5.84024 7.54809 -5.71118 7.2577L-7.53881 6.44543C-8.09725 7.70192 -7.62001 8.90358 -6.81648 9.70711L-5.40226 8.29289ZM-5.67631 7.16779C-5.3544 6.20207 -4.95043 5.31126 -4.45804 4.40854L-6.21383 3.45084C-6.75269 4.43875 -7.20809 5.43856 -7.57368 6.53534L-5.67631 7.16779ZM-4.48794 4.45969L-4.05825 3.77219L-5.75424 2.71219L-6.18393 3.39969L-4.48794 4.45969ZM-4.06258 3.77907C-3.45576 2.82548 -2.8827 1.92682 -2.23475 1.11689L-3.79649 -0.132505C-4.52354 0.776309 -5.15361 1.76828 -5.74991 2.70531L-4.06258 3.77907ZM-2.25636 1.14298C-2.05129 0.903728 -1.64281 0.772118 -1.18341 0.925248L-0.550957 -0.972118C-1.63844 -1.33461 -2.9487 -1.12247 -3.77488 -0.158601L-2.25636 1.14298ZM-1.16249 0.931968L3.56407 2.39291L4.15468 0.4821L-0.571878 -0.978837L-1.16249 0.931968ZM4.44062 2.25124C5.6054 1.41925 6.82259 0.693315 8.01202 0.217542L7.26924 -1.63941C5.88054 -1.08393 4.5196 -0.262991 3.27814 0.623769L4.44062 2.25124ZM8.61559 -0.488575L9.73278 -5.38701L7.78285 -5.83173L6.66566 -0.933295L8.61559 -0.488575ZM9.734 -5.39244C9.82165 -5.78686 10.1272 -6.09241 10.5216 -6.18006L10.0878 -8.13243C8.9353 -7.87633 8.03773 -6.97876 7.78163 -5.8263L9.734 -5.39244ZM10.4461 -6.1663C11.658 -6.33942 12.7928 -6.5 14 -6.5V-8.5C12.6291 -8.5 11.3576 -8.31682 10.1633 -8.1462L10.4461 -6.1663ZM14 -6.5C15.12 -6.5 16.2524 -6.33995 17.468 -6.1663L17.7508 -8.1462C16.5601 -8.3163 15.2862 -8.5 14 -8.5V-6.5ZM17.3924 -6.18006C17.7869 -6.09241 18.0924 -5.78686 18.1801 -5.39244L20.1324 -5.8263C19.8763 -6.97876 18.9788 -7.87633 17.8263 -8.13243L17.3924 -6.18006ZM18.1813 -5.38701L19.2985 -0.488575L21.2484 -0.933295L20.1312 -5.83173L18.1813 -5.38701ZM19.902 0.217542C21.0915 0.693315 22.3087 1.41925 23.4734 2.25124L24.6359 0.623769C23.3945 -0.262991 22.0335 -1.08393 20.6448 -1.63941L19.902 0.217542ZM24.35 2.39291L29.0766 0.931968L28.4859 -0.978837L23.7594 0.4821L24.35 2.39291ZM29.0975 0.925248C29.5569 0.772118 29.9654 0.903728 30.1704 1.14298L31.6889 -0.158601C30.8628 -1.12247 29.5525 -1.33461 28.465 -0.972118L29.0975 0.925248ZM30.1488 1.11689C30.7968 1.92682 31.3698 2.82548 31.9767 3.77907L33.664 2.70531C33.0677 1.76828 32.4376 0.776309 31.7106 -0.132505L30.1488 1.11689ZM31.9723 3.77219L32.402 4.45969L34.098 3.39969L33.6683 2.71219L31.9723 3.77219ZM32.3721 4.40854C32.8645 5.31126 33.2685 6.20207 33.5904 7.16779L35.4877 6.53534C35.1222 5.43856 34.6668 4.43875 34.1279 3.45084L32.3721 4.40854ZM14 22.375C18.3254 22.375 21.875 18.9276 21.875 14.5H19.875C19.875 17.8068 17.2371 20.375 14 20.375V22.375ZM21.875 14.5C21.875 10.1665 18.3335 6.625 14 6.625V8.625C17.229 8.625 19.875 11.271 19.875 14.5H21.875ZM14 6.625C9.57239 6.625 6.125 10.1746 6.125 14.5H8.125C8.125 11.2629 10.6932 8.625 14 8.625V6.625ZM6.125 14.5C6.125 18.9195 9.58053 22.375 14 22.375V20.375C10.6851 20.375 8.125 17.8149 8.125 14.5H6.125Z" fill="#00AAFF"/>
</g>
<defs>
<linearGradient id="paint0_linear_1194_252603" x1="148.343" y1="41.4066" x2="214.82" y2="7.30615" gradientUnits="userSpaceOnUse">
<stop stop-color="#0091DA" stop-opacity="0"/>
<stop offset="1" stop-color="#0091DA"/>
</linearGradient>
<linearGradient id="paint1_linear_1194_252603" x1="51.9704" y1="76.4914" x2="-18.6538" y2="110.079" gradientUnits="userSpaceOnUse">
<stop stop-color="#0091DA" stop-opacity="0"/>
<stop offset="1" stop-color="#0091DA"/>
</linearGradient>
<linearGradient id="paint2_linear_1194_252603" x1="218.18" y1="0.551273" x2="212.78" y2="188.772" gradientUnits="userSpaceOnUse">
<stop stop-color="#0091DA" stop-opacity="0"/>
<stop offset="1" stop-color="#0091DA"/>
</linearGradient>
<linearGradient id="paint3_linear_1194_252603" x1="336.921" y1="14.2568" x2="364.93" y2="155.67" gradientUnits="userSpaceOnUse">
<stop stop-color="#0091DA" stop-opacity="0"/>
<stop offset="1" stop-color="#0091DA"/>
</linearGradient>
<clipPath id="clip0_1194_252603">
<rect width="328" height="184" fill="white"/>
</clipPath>
</defs>
</svg>
