<svg width="328" height="184" viewBox="0 0 328 184" fill="none" xmlns="http://www.w3.org/2000/svg">
<g clip-path="url(#clip0_1194_253313)">
<rect width="328" height="184" fill="#00AAFF"/>
<path opacity="0.1" d="M214.667 -38.9999L129 46.6668L152.503 70.1699L238.17 -15.4967L214.667 -38.9999Z" fill="url(#paint0_linear_1194_253313)"/>
<path opacity="0.1" d="M-1.22524 138.582L58.5117 78.845L43.6669 64.0001L-16.0701 123.737L-1.22524 138.582Z" fill="url(#paint1_linear_1194_253313)"/>
<path opacity="0.2" d="M299.864 -44.2043L56.7607 198.899L136.213 278.351L379.316 35.2475L299.864 -44.2043Z" fill="url(#paint2_linear_1194_253313)"/>
<path opacity="0.1" d="M397.596 -34.5065L154.493 208.597L204.705 258.809L447.808 15.7053L397.596 -34.5065Z" fill="url(#paint3_linear_1194_253313)"/>
<g filter="url(#filter0_f_1194_253313)">
<path d="M219.793 32.1825L219.808 27.2949C219.808 27.2948 219.808 27.2947 219.808 27.2945C219.81 26.9642 219.987 26.6595 220.274 26.4937L224.533 24.0348C224.82 23.8691 225.173 23.8677 225.46 24.0311C225.46 24.0312 225.46 24.0312 225.46 24.0313L229.701 26.4623L229.701 26.4626C229.987 26.6256 230.161 26.9266 230.159 27.2559L230.159 27.2566L230.144 32.1442C230.144 32.1443 230.144 32.1444 230.144 32.1444C230.142 32.4748 229.965 32.7796 229.678 32.9453L225.419 35.4043C225.132 35.57 224.779 35.5714 224.492 35.408C224.492 35.4079 224.492 35.4079 224.492 35.4078L220.251 32.9768L220.251 32.9765C219.965 32.8134 219.791 32.5125 219.793 32.1832L219.793 32.1825Z" stroke="#EAF8FF" stroke-width="0.5"/>
</g>
<path d="M256 38L278 16" stroke="#EAF8FF" stroke-linecap="round"/>
<path d="M286 7L308 -15" stroke="#EAF8FF" stroke-linecap="round"/>
<circle cx="282" cy="12" r="2.5" stroke="#EAF8FF"/>
<path d="M7 185L43 149" stroke="#EAF8FF" stroke-linecap="round"/>
<path d="M-4 175L65.5 105.5" stroke="#0091DA" stroke-opacity="0.1" stroke-linecap="round"/>
<path d="M203 186L225 164" stroke="#EAF8FF" stroke-linecap="round"/>
<path d="M233 155L255 133" stroke="#EAF8FF" stroke-linecap="round"/>
<circle cx="229" cy="160" r="2.5" stroke="#EAF8FF"/>
<g opacity="0.1" clip-path="url(#clip1_1194_253313)">
<path d="M0.500061 12.9645C6.87866 12.7049 11.9882 7.43412 11.9882 0.993092C11.9882 -5.44794 6.87865 -10.7186 0.500061 -10.9782V-20.6146C2.59751 -20.8445 4.30974 -22.5036 4.58634 -24.6477C4.58634 -24.6477 4.58634 -24.6477 4.58634 -24.6477L4.69691 -25.5045C4.78447 -26.1829 5.44574 -26.632 6.10891 -26.4637C6.10896 -26.4637 6.109 -26.4637 6.10905 -26.4637L6.94603 -26.2509L0.500061 12.9645ZM0.500061 12.9645V22.6151M0.500061 12.9645V22.6151M0.500061 22.6151C2.59758 22.845 4.30984 24.504 4.58634 26.6482C4.58634 26.6482 4.58634 26.6482 4.58634 26.6483L4.69691 27.5051C4.78447 28.1833 5.44574 28.6326 6.10883 28.4643C6.10891 28.4643 6.10898 28.4643 6.10905 28.4643L6.94591 28.2514C9.55827 27.5869 12.0522 26.554 14.3593 25.1813C14.3594 25.1813 14.3594 25.1812 14.3595 25.1812L15.1013 24.7395L15.1014 24.7395C15.6885 24.39 15.8383 23.6046 15.4208 23.0632L14.8933 22.3795C14.8933 22.3795 14.8932 22.3795 14.8932 22.3795C13.4688 20.5337 13.624 17.906 15.2647 16.2649L15.2648 16.2649C16.1333 15.3964 17.2906 14.9172 18.5187 14.9172C19.5484 14.9172 20.5633 15.2636 21.3794 15.8935L22.0632 16.4211L22.0633 16.4212C22.6041 16.8386 23.3897 16.6891 23.7395 16.1015C23.7395 16.1015 23.7396 16.1014 23.7396 16.1014L24.1811 15.3594L24.1811 15.3593C25.5539 13.0526 26.5869 10.5586 27.251 7.94642L27.251 7.94633L27.4641 7.10896C27.6326 6.44651 27.183 5.78448 26.5049 5.69707L26.5688 5.20117L26.5048 5.69706L25.6481 5.58659C23.3359 5.28831 21.5877 3.32042 21.5877 1.00031C21.5877 -1.31977 23.3358 -3.28781 25.6481 -3.58598L26.5049 -3.69655C27.1831 -3.78405 27.6327 -4.4458 27.4641 -5.10846L27.251 -5.94545L27.251 -5.94557C26.5868 -8.55785 25.5538 -11.0519 24.1811 -13.3587L24.1811 -13.3588L23.7395 -14.1008C23.7395 -14.1008 23.7395 -14.1009 23.7395 -14.1009C23.39 -14.6881 22.6046 -14.8381 22.0629 -14.4204L21.3795 -13.8929L21.3795 -13.8929C20.5634 -13.2631 19.5484 -12.9166 18.5186 -12.9166C17.2906 -12.9166 16.1333 -13.3959 15.2648 -14.2644L15.2647 -14.2644C13.6241 -15.9052 13.4688 -18.533 14.8934 -20.3791L15.2892 -20.0737L14.8934 -20.3791L15.4208 -21.0626C15.4208 -21.0627 15.4209 -21.0627 15.4209 -21.0627C15.8382 -21.6038 15.6887 -22.3892 15.1014 -22.739L0.500061 22.6151ZM14.3592 -23.1807L15.1013 -22.739L6.94606 -26.2509C9.55844 -25.5865 12.0524 -24.5535 14.3592 -23.1807C14.3592 -23.1807 14.3592 -23.1807 14.3592 -23.1807Z" stroke="#EAF8FF"/>
<path d="M8.70793 0.993043C8.70793 -3.63706 5.07306 -7.43375 0.507019 -7.69367V-13.2599C8.14026 -12.9956 14.2686 -6.70345 14.2686 0.993043C14.2686 8.68954 8.14026 14.9817 0.507019 15.246V9.67975C5.07316 9.41984 8.70793 5.62314 8.70793 0.993043Z" stroke="#EAF8FF"/>
</g>
<path d="M177.75 143.24H150.25C148.255 143.24 146.745 141.45 147.07 139.487L150.508 118.862C150.768 117.309 152.113 116.17 153.687 116.17H174.312C175.887 116.17 177.232 117.309 177.492 118.862L180.93 139.487C181.254 141.447 179.748 143.24 177.75 143.24Z" fill="#1D428A"/>
<path d="M177.75 143.24H164V116.17H174.312C175.887 116.17 177.232 117.309 177.492 118.862L180.93 139.487C181.254 141.447 179.748 143.24 177.75 143.24Z" fill="#1D428A"/>
<path d="M187.848 140.018C187.848 141.796 186.404 143.24 184.625 143.24H143.375C141.596 143.24 140.152 141.796 140.152 140.018C140.152 138.239 141.596 136.795 143.375 136.795H184.625C186.404 136.795 187.848 138.239 187.848 140.018Z" fill="#1D428A"/>
<path d="M187.848 140.018C187.848 141.796 186.404 143.24 184.625 143.24H164V136.795H184.625C186.404 136.795 187.848 138.239 187.848 140.018Z" fill="#1D428A"/>
<path d="M215.777 50.4277V112.947C215.777 116.507 212.892 119.393 209.332 119.393H118.668C115.108 119.393 112.223 116.507 112.223 112.947V50.4277C112.223 46.8678 115.108 43.9824 118.668 43.9824H209.332C212.892 43.9824 215.777 46.8678 215.777 50.4277Z" fill="#EAF8FF"/>
<path d="M209.332 40.7598H118.668C113.338 40.7598 109 45.0975 109 50.4277V112.947C109 118.278 113.338 122.615 118.668 122.615H209.332C214.662 122.615 219 118.278 219 112.947V50.4277C219 45.0975 214.662 40.7598 209.332 40.7598ZM212.555 112.947C212.555 114.724 211.109 116.17 209.332 116.17H118.668C116.891 116.17 115.445 114.724 115.445 112.947V50.4277C115.445 48.651 116.891 47.2051 118.668 47.2051H209.332C211.109 47.2051 212.555 48.651 212.555 50.4277V112.947Z" fill="#1D428A"/>
<path d="M219 50.4277V112.947C219 118.278 214.662 122.615 209.332 122.615H164V116.17H209.332C211.109 116.17 212.555 114.724 212.555 112.947V50.4277C212.555 48.651 211.109 47.2051 209.332 47.2051H164V40.7598H209.332C214.662 40.7598 219 45.0975 219 50.4277Z" fill="#1D428A"/>
<path d="M167.223 43.9824V50.8574C167.223 52.6363 165.779 54.0801 164 54.0801C162.221 54.0801 160.777 52.6363 160.777 50.8574V43.9824C160.777 42.2035 162.221 40.7598 164 40.7598C165.779 40.7598 167.223 42.2035 167.223 43.9824Z" fill="#1D428A"/>
<path d="M167.223 43.9824V50.8574C167.223 52.6363 165.779 54.0801 164 54.0801V40.7598C165.779 40.7598 167.223 42.2035 167.223 43.9824Z" fill="#1D428A"/>
<rect x="127" y="61" width="8" height="8" rx="4" fill="#1D428A"/>
<rect x="172" y="61" width="34" height="43" rx="2" fill="#00AAFF"/>
<path d="M187 97H199" stroke="#1D428A" stroke-width="3"/>
<rect x="127" y="75" width="37" height="2" rx="1" fill="#00AAFF"/>
<rect x="127" y="83" width="37" height="2" rx="1" fill="#00AAFF"/>
<rect x="127" y="91" width="37" height="2" rx="1" fill="#00AAFF"/>
<path d="M226.986 109.155C226.232 109.513 225.736 110.026 225.387 110.653C224.187 109.098 222.146 108.496 220.411 109.319C219.054 109.964 218.281 111.255 218.178 112.597C216.978 111.041 214.937 110.44 213.202 111.263C212.222 111.728 211.572 112.499 211.255 113.389L205.921 102.153C205.133 100.494 203.132 99.7806 201.473 100.568C199.738 101.391 199.101 103.357 199.888 105.016L211.45 129.374L204.543 125.723C203.581 125.255 202.462 125.232 201.481 125.697C199.898 126.449 199.185 128.451 200.008 130.185C200.295 130.788 200.732 131.32 201.435 131.633L212.664 137.576C215.767 139.245 219.574 139.285 222.817 137.746L230.056 134.31C236.014 131.482 238.624 124.329 235.76 118.296L232.324 111.057C231.393 109.096 228.947 108.224 226.986 109.155ZM221.221 128.155C221.543 128.833 221.19 129.648 220.587 129.934C219.908 130.256 219.13 129.979 218.808 129.3L215.371 122.061C215.085 121.457 215.326 120.604 216.005 120.281C216.608 119.995 217.498 120.312 217.784 120.915L221.221 128.155ZM226.047 125.864C226.369 126.542 226.016 127.357 225.413 127.643C224.734 127.965 223.956 127.688 223.634 127.009L220.197 119.77C219.911 119.167 220.153 118.313 220.831 117.99C221.434 117.704 222.324 118.021 222.611 118.624L226.047 125.864ZM230.873 123.573C231.195 124.251 230.843 125.066 230.239 125.352C229.561 125.674 228.782 125.397 228.46 124.718L225.024 117.479C224.737 116.876 224.979 116.022 225.657 115.7C226.261 115.413 227.15 115.73 227.437 116.333L230.873 123.573Z" fill="#EAF8FF"/>
<path d="M225.387 110.653L224.596 111.264L225.523 112.467L226.261 111.139L225.387 110.653ZM218.178 112.597L217.387 113.208L218.978 115.27L219.176 112.673L218.178 112.597ZM211.255 113.389L210.351 113.817L211.387 115.998L212.197 113.724L211.255 113.389ZM211.45 129.374L210.983 130.258L213.645 131.665L212.354 128.945L211.45 129.374ZM204.543 125.723L205.01 124.838L204.995 124.831L204.98 124.823L204.543 125.723ZM201.435 131.633L201.902 130.749L201.873 130.733L201.842 130.72L201.435 131.633ZM212.664 137.576L213.138 136.695L213.132 136.692L212.664 137.576ZM226.557 108.252C225.6 108.706 224.955 109.372 224.513 110.167L226.261 111.139C226.517 110.679 226.864 110.32 227.415 110.058L226.557 108.252ZM226.179 110.042C224.727 108.162 222.193 107.366 219.982 108.416L220.84 110.223C222.098 109.626 223.646 110.034 224.596 111.264L226.179 110.042ZM219.982 108.416C218.274 109.227 217.308 110.852 217.181 112.521L219.176 112.673C219.253 111.657 219.834 110.7 220.84 110.223L219.982 108.416ZM218.97 111.986C217.519 110.105 214.984 109.31 212.774 110.359L213.631 112.166C214.889 111.569 216.438 111.978 217.387 113.208L218.97 111.986ZM212.774 110.359C211.549 110.941 210.717 111.919 210.313 113.053L212.197 113.724C212.426 113.079 212.895 112.516 213.631 112.166L212.774 110.359ZM212.158 112.96L206.824 101.724L205.018 102.581L210.351 113.817L212.158 112.96ZM206.824 101.724C205.8 99.5659 203.202 98.6404 201.044 99.6647L201.902 101.471C203.062 100.921 204.467 101.421 205.018 102.581L206.824 101.724ZM201.044 99.6647C198.796 100.732 197.967 103.302 198.985 105.445L200.792 104.588C200.234 103.413 200.681 102.051 201.902 101.471L201.044 99.6647ZM198.985 105.445L210.547 129.802L212.354 128.945L200.792 104.588L198.985 105.445ZM211.918 128.49L205.01 124.838L204.075 126.607L210.983 130.258L211.918 128.49ZM204.98 124.823C203.755 124.227 202.316 124.194 201.053 124.794L201.91 126.601C202.607 126.27 203.408 126.283 204.105 126.622L204.98 124.823ZM201.053 124.794C198.941 125.796 198.059 128.41 199.105 130.614L200.912 129.756C200.311 128.491 200.855 127.102 201.91 126.601L201.053 124.794ZM199.105 130.614C199.466 131.376 200.055 132.113 201.028 132.547L201.842 130.72C201.408 130.527 201.123 130.201 200.912 129.756L199.105 130.614ZM200.967 132.517L212.196 138.46L213.132 136.692L201.902 130.749L200.967 132.517ZM212.19 138.456C215.586 140.283 219.729 140.318 223.246 138.649L222.388 136.843C219.419 138.252 215.947 138.206 213.138 136.695L212.19 138.456ZM223.246 138.649L230.485 135.213L229.627 133.406L222.388 136.843L223.246 138.649ZM230.485 135.213C236.937 132.15 239.766 124.403 236.664 117.867L234.857 118.725C237.482 124.254 235.09 130.813 229.627 133.406L230.485 135.213ZM236.664 117.867L233.227 110.628L231.421 111.485L234.857 118.725L236.664 117.867ZM233.227 110.628C232.06 108.168 229.017 107.084 226.557 108.252L227.415 110.058C228.877 109.365 230.727 110.024 231.421 111.485L233.227 110.628ZM220.317 128.583C220.347 128.646 220.355 128.733 220.316 128.836C220.274 128.946 220.202 129.01 220.158 129.031L221.016 130.837C222.081 130.331 222.7 128.939 222.124 127.726L220.317 128.583ZM220.158 129.031C220.059 129.078 219.97 129.075 219.899 129.05C219.829 129.025 219.758 128.971 219.711 128.871L217.904 129.729C218.463 130.907 219.838 131.396 221.016 130.837L220.158 129.031ZM219.711 128.871L216.275 121.632L214.468 122.49L217.904 129.729L219.711 128.871ZM216.275 121.632C216.254 121.588 216.238 121.493 216.275 121.381C216.31 121.277 216.371 121.215 216.434 121.185L215.576 119.378C214.363 119.954 213.962 121.424 214.468 122.49L216.275 121.632ZM216.434 121.185C216.442 121.181 216.531 121.155 216.678 121.207C216.825 121.259 216.877 121.336 216.881 121.344L218.688 120.486C218.405 119.891 217.87 119.508 217.349 119.323C216.828 119.137 216.172 119.095 215.576 119.378L216.434 121.185ZM216.881 121.344L220.317 128.583L222.124 127.726L218.688 120.486L216.881 121.344ZM225.144 126.292C225.173 126.355 225.182 126.442 225.142 126.545C225.1 126.655 225.028 126.719 224.984 126.74L225.842 128.546C226.908 128.04 227.526 126.648 226.95 125.435L225.144 126.292ZM224.984 126.74C224.885 126.787 224.796 126.784 224.725 126.759C224.655 126.734 224.584 126.68 224.537 126.58L222.73 127.438C223.289 128.616 224.664 129.105 225.842 128.546L224.984 126.74ZM224.537 126.58L221.101 119.341L219.294 120.199L222.73 127.438L224.537 126.58ZM221.101 119.341C221.08 119.297 221.064 119.202 221.101 119.09C221.136 118.986 221.197 118.924 221.26 118.894L220.402 117.087C219.189 117.663 218.788 119.133 219.294 120.199L221.101 119.341ZM221.26 118.894C221.268 118.89 221.358 118.864 221.504 118.916C221.651 118.968 221.703 119.045 221.707 119.053L223.514 118.195C223.231 117.6 222.696 117.217 222.175 117.032C221.655 116.846 220.998 116.804 220.402 117.087L221.26 118.894ZM221.707 119.053L225.144 126.292L226.95 125.435L223.514 118.195L221.707 119.053ZM229.97 124.001C230 124.064 230.008 124.151 229.969 124.254C229.927 124.364 229.854 124.428 229.811 124.449L230.668 126.255C231.734 125.75 232.353 124.357 231.777 123.144L229.97 124.001ZM229.811 124.449C229.711 124.496 229.622 124.493 229.552 124.468C229.481 124.443 229.411 124.389 229.363 124.289L227.557 125.147C228.116 126.325 229.491 126.814 230.668 126.255L229.811 124.449ZM229.363 124.289L225.927 117.05L224.12 117.908L227.557 125.147L229.363 124.289ZM225.927 117.05C225.906 117.006 225.89 116.911 225.928 116.799C225.962 116.695 226.024 116.633 226.086 116.603L225.229 114.796C224.015 115.372 223.614 116.842 224.12 117.908L225.927 117.05ZM226.086 116.603C226.094 116.599 226.184 116.573 226.33 116.625C226.477 116.677 226.53 116.754 226.533 116.762L228.34 115.905C228.057 115.309 227.522 114.926 227.001 114.741C226.481 114.555 225.824 114.513 225.229 114.796L226.086 116.603ZM226.533 116.762L229.97 124.001L231.777 123.144L228.34 115.905L226.533 116.762Z" fill="#00AAFF"/>
<path d="M131.5 100H69.5V85" stroke="#EAF8FF"/>
<rect x="46.5" y="53.5" width="46" height="31" rx="3.5" stroke="#EAF8FF"/>
<rect x="51.5" y="59.5" width="36" height="3" rx="1.5" stroke="#EAF8FF"/>
<path d="M51 68H76" stroke="#EAF8FF"/>
<path d="M51 72H82" stroke="#EAF8FF"/>
<path d="M51 76H69" stroke="#EAF8FF"/>
<rect x="282" y="111" width="47" height="30" rx="4" transform="rotate(180 282 111)" fill="#EAF8FF"/>
<path d="M240 89H265" stroke="#00AAFF"/>
<path d="M240 93H271" stroke="#00AAFF"/>
<path d="M265 104H277" stroke="#00AAFF" stroke-width="3"/>
<path d="M197 68H258.5V81" stroke="#EAF8FF"/>
</g>
<defs>
<filter id="filter0_f_1194_253313" x="217.543" y="21.6595" width="14.8665" height="16.12" filterUnits="userSpaceOnUse" color-interpolation-filters="sRGB">
<feFlood flood-opacity="0" result="BackgroundImageFix"/>
<feBlend mode="normal" in="SourceGraphic" in2="BackgroundImageFix" result="shape"/>
<feGaussianBlur stdDeviation="1" result="effect1_foregroundBlur_1194_253313"/>
</filter>
<linearGradient id="paint0_linear_1194_253313" x1="148.343" y1="41.4066" x2="214.82" y2="7.30616" gradientUnits="userSpaceOnUse">
<stop stop-color="#1C282E" stop-opacity="0"/>
<stop offset="1" stop-color="#1C282E"/>
</linearGradient>
<linearGradient id="paint1_linear_1194_253313" x1="51.9704" y1="76.4914" x2="-18.6538" y2="110.079" gradientUnits="userSpaceOnUse">
<stop stop-color="#1C282E" stop-opacity="0"/>
<stop offset="1" stop-color="#1C282E"/>
</linearGradient>
<linearGradient id="paint2_linear_1194_253313" x1="218.18" y1="0.551273" x2="212.78" y2="188.772" gradientUnits="userSpaceOnUse">
<stop stop-color="#1C282E" stop-opacity="0"/>
<stop offset="1" stop-color="#0091DA"/>
</linearGradient>
<linearGradient id="paint3_linear_1194_253313" x1="336.921" y1="14.2568" x2="364.93" y2="155.67" gradientUnits="userSpaceOnUse">
<stop stop-color="#1C282E" stop-opacity="0"/>
<stop offset="1" stop-color="#1C282E"/>
</linearGradient>
<clipPath id="clip0_1194_253313">
<rect width="328" height="184" fill="white"/>
</clipPath>
<clipPath id="clip1_1194_253313">
<rect width="56" height="56" fill="white" transform="translate(-28 -27)"/>
</clipPath>
</defs>
</svg>
