<svg width="328" height="184" viewBox="0 0 328 184" fill="none" xmlns="http://www.w3.org/2000/svg">
<g clip-path="url(#clip0_1194_255568)">
<rect width="328" height="184" fill="#00AAFF"/>
<path opacity="0.1" d="M214.667 -38.9999L129 46.6667L152.503 70.1699L238.17 -15.4968L214.667 -38.9999Z" fill="url(#paint0_linear_1194_255568)"/>
<path opacity="0.1" d="M-1.22524 138.582L58.5117 78.845L43.6669 64.0001L-16.0701 123.737L-1.22524 138.582Z" fill="url(#paint1_linear_1194_255568)"/>
<path opacity="0.2" d="M299.864 -44.2043L56.7607 198.899L136.213 278.351L379.316 35.2475L299.864 -44.2043Z" fill="url(#paint2_linear_1194_255568)"/>
<path opacity="0.1" d="M397.596 -34.5066L154.493 208.597L204.705 258.809L447.808 15.7052L397.596 -34.5066Z" fill="url(#paint3_linear_1194_255568)"/>
<path opacity="0.1" d="M-9.9263 18.233L-9.92629 18.2316L-9.87366 0.832713C-9.87366 0.832422 -9.87365 0.83213 -9.87365 0.831839C-9.86572 -0.483337 -9.15889 -1.69555 -8.0177 -2.35442L7.1425 -11.1072C8.28374 -11.766 9.68702 -11.772 10.83 -11.1212C10.8302 -11.1211 10.8304 -11.121 10.8306 -11.1209L25.9249 -2.46701L25.9261 -2.46632C27.0671 -1.81634 27.7608 -0.614769 27.7532 0.698379L27.7532 0.699767L27.7006 18.0987C27.7006 18.0989 27.7006 18.099 27.7006 18.0992C27.6928 19.4145 26.9859 20.6269 25.8446 21.2858L10.6844 30.0386C9.5432 30.6975 8.13995 30.7035 6.99699 30.0527C6.99676 30.0526 6.99653 30.0524 6.9963 30.0523L-8.09795 21.3984L-8.09915 21.3977C-9.24018 20.7478 -9.93391 19.5462 -9.9263 18.233Z" stroke="#EAF8FF"/>
<path d="M286 7L308 -15" stroke="#EAF8FF" stroke-linecap="round"/>
<circle cx="282" cy="12" r="2.5" stroke="#EAF8FF"/>
<path d="M7 185L43 149" stroke="#EAF8FF" stroke-linecap="round"/>
<path d="M-4 175L65.5 105.5" stroke="#0091DA" stroke-opacity="0.1" stroke-linecap="round"/>
<path d="M230 186L252 164" stroke="#EAF8FF" stroke-linecap="round"/>
<path d="M260 155L282 133" stroke="#EAF8FF" stroke-linecap="round"/>
<circle cx="256" cy="160" r="2.5" stroke="#EAF8FF"/>
<path opacity="0.15" d="M145.297 118.992H106.074C104.498 118.992 103.273 120.305 103.273 121.794V133C103.273 134.576 104.498 135.802 106.074 135.802H145.297C146.785 135.802 148.098 134.576 148.098 133V121.794C148.098 120.305 146.785 118.992 145.297 118.992ZM134.09 129.498C132.864 129.498 131.989 128.623 131.989 127.397C131.989 126.259 132.864 125.296 134.09 125.296C135.228 125.296 136.191 126.259 136.191 127.397C136.191 128.623 135.228 129.498 134.09 129.498ZM139.693 129.498C138.468 129.498 137.592 128.623 137.592 127.397C137.592 126.259 138.468 125.296 139.693 125.296C140.831 125.296 141.795 126.259 141.795 127.397C141.795 128.623 140.831 129.498 139.693 129.498ZM145.297 96.5792H106.074C104.498 96.5792 103.273 97.8925 103.273 99.3808V110.587C103.273 112.163 104.498 113.389 106.074 113.389H145.297C146.785 113.389 148.098 112.163 148.098 110.587V99.3808C148.098 97.8925 146.785 96.5792 145.297 96.5792ZM134.09 107.085C132.864 107.085 131.989 106.21 131.989 104.984C131.989 103.846 132.864 102.883 134.09 102.883C135.228 102.883 136.191 103.846 136.191 104.984C136.191 106.21 135.228 107.085 134.09 107.085ZM139.693 107.085C138.468 107.085 137.592 106.21 137.592 104.984C137.592 103.846 138.468 102.883 139.693 102.883C140.831 102.883 141.795 103.846 141.795 104.984C141.795 106.21 140.831 107.085 139.693 107.085Z" fill="#EAF8FF"/>
<path d="M192.114 120.078H136.331C134.089 120.078 132.346 121.945 132.346 124.062V140C132.346 142.241 134.089 143.984 136.331 143.984H192.114C194.23 143.984 196.098 142.241 196.098 140V124.062C196.098 121.945 194.23 120.078 192.114 120.078ZM176.176 135.019C174.432 135.019 173.187 133.774 173.187 132.031C173.187 130.412 174.432 129.043 176.176 129.043C177.794 129.043 179.164 130.412 179.164 132.031C179.164 133.774 177.794 135.019 176.176 135.019ZM184.145 135.019C182.401 135.019 181.156 133.774 181.156 132.031C181.156 130.412 182.401 129.043 184.145 129.043C185.763 129.043 187.133 130.412 187.133 132.031C187.133 133.774 185.763 135.019 184.145 135.019ZM192.114 88.2015H136.331C134.089 88.2015 132.346 90.0693 132.346 92.186V108.124C132.346 110.365 134.089 112.109 136.331 112.109H192.114C194.23 112.109 196.098 110.365 196.098 108.124V92.186C196.098 90.0693 194.23 88.2015 192.114 88.2015ZM176.176 103.143C174.432 103.143 173.187 101.898 173.187 100.155C173.187 98.5363 174.432 97.1666 176.176 97.1666C177.794 97.1666 179.164 98.5363 179.164 100.155C179.164 101.898 177.794 103.143 176.176 103.143ZM184.145 103.143C182.401 103.143 181.156 101.898 181.156 100.155C181.156 98.5363 182.401 97.1666 184.145 97.1666C185.763 97.1666 187.133 98.5363 187.133 100.155C187.133 101.898 185.763 103.143 184.145 103.143Z" fill="#1D428A"/>
<path opacity="0.1" d="M222.297 118.289H183.074V119.695H222.297V118.289ZM183.074 118.289C181.096 118.289 179.569 119.931 179.569 121.794H180.976C180.976 120.679 181.901 119.695 183.074 119.695V118.289ZM179.569 121.794V133H180.976V121.794H179.569ZM179.569 133C179.569 134.964 181.11 136.505 183.074 136.505V135.098C181.887 135.098 180.976 134.188 180.976 133H179.569ZM183.074 136.505H222.297V135.098H183.074V136.505ZM222.297 136.505C224.159 136.505 225.801 134.978 225.801 133H224.395C224.395 134.173 223.411 135.098 222.297 135.098V136.505ZM225.801 133V121.794H224.395V133H225.801ZM225.801 121.794C225.801 119.917 224.173 118.289 222.297 118.289V119.695C223.397 119.695 224.395 120.694 224.395 121.794H225.801ZM211.09 128.795C210.253 128.795 209.692 128.234 209.692 127.397H208.286C208.286 129.011 209.476 130.201 211.09 130.201V128.795ZM209.692 127.397C209.692 126.628 210.272 125.999 211.09 125.999V124.592C209.457 124.592 208.286 125.89 208.286 127.397H209.692ZM211.09 125.999C211.84 125.999 212.488 126.647 212.488 127.397H213.894C213.894 125.87 212.617 124.592 211.09 124.592V125.999ZM212.488 127.397C212.488 128.215 211.859 128.795 211.09 128.795V130.201C212.597 130.201 213.894 129.03 213.894 127.397H212.488ZM216.693 128.795C215.856 128.795 215.295 128.234 215.295 127.397H213.889C213.889 129.011 215.079 130.201 216.693 130.201V128.795ZM215.295 127.397C215.295 126.628 215.875 125.999 216.693 125.999V124.592C215.06 124.592 213.889 125.89 213.889 127.397H215.295ZM216.693 125.999C217.443 125.999 218.091 126.647 218.091 127.397H219.498C219.498 125.87 218.22 124.592 216.693 124.592V125.999ZM218.091 127.397C218.091 128.215 217.463 128.795 216.693 128.795V130.201C218.2 130.201 219.498 129.03 219.498 127.397H218.091ZM222.297 95.8761H183.074V97.2823H222.297V95.8761ZM183.074 95.8761C181.096 95.8761 179.569 97.5185 179.569 99.3808H180.976C180.976 98.2664 181.901 97.2823 183.074 97.2823V95.8761ZM179.569 99.3808V110.587H180.976V99.3808H179.569ZM179.569 110.587C179.569 112.551 181.11 114.092 183.074 114.092V112.686C181.887 112.686 180.976 111.775 180.976 110.587H179.569ZM183.074 114.092H222.297V112.686H183.074V114.092ZM222.297 114.092C224.159 114.092 225.801 112.566 225.801 110.587H224.395C224.395 111.761 223.411 112.686 222.297 112.686V114.092ZM225.801 110.587V99.3808H224.395V110.587H225.801ZM225.801 99.3808C225.801 97.5041 224.173 95.8761 222.297 95.8761V97.2823C223.397 97.2823 224.395 98.2808 224.395 99.3808H225.801ZM211.09 106.382C210.253 106.382 209.692 105.821 209.692 104.984H208.286C208.286 106.598 209.476 107.788 211.09 107.788V106.382ZM209.692 104.984C209.692 104.215 210.272 103.586 211.09 103.586V102.18C209.457 102.18 208.286 103.477 208.286 104.984H209.692ZM211.09 103.586C211.84 103.586 212.488 104.234 212.488 104.984H213.894C213.894 103.458 212.617 102.18 211.09 102.18V103.586ZM212.488 104.984C212.488 105.802 211.859 106.382 211.09 106.382V107.788C212.597 107.788 213.894 106.617 213.894 104.984H212.488ZM216.693 106.382C215.856 106.382 215.295 105.821 215.295 104.984H213.889C213.889 106.598 215.079 107.788 216.693 107.788V106.382ZM215.295 104.984C215.295 104.215 215.875 103.586 216.693 103.586V102.18C215.06 102.18 213.889 103.477 213.889 104.984H215.295ZM216.693 103.586C217.443 103.586 218.091 104.234 218.091 104.984H219.498C219.498 103.458 218.22 102.18 216.693 102.18V103.586ZM218.091 104.984C218.091 105.802 217.463 106.382 216.693 106.382V107.788C218.2 107.788 219.498 106.617 219.498 104.984H218.091Z" fill="#1D428A"/>
<path d="M183.903 51.4816L183.881 52.7096L185.081 52.9727C190.48 54.1571 194.5 58.9207 194.5 64.5946C194.5 71.1557 189.124 76.5 182.461 76.5H143.831C138.664 76.5 134.5 72.3561 134.5 67.2757C134.5 63.3219 137.02 59.936 140.58 58.6276L141.634 58.2401L141.559 57.1195C141.546 56.9183 141.538 56.7317 141.538 56.5515C141.538 51.8943 145.355 48.0933 150.095 48.0933C151.614 48.0933 153.035 48.4853 154.269 49.1693L156.013 50.136L156.458 48.1924C157.859 42.0795 163.388 37.5 170.01 37.5C177.698 37.5 183.906 43.6671 183.906 51.2432C183.906 51.3045 183.905 51.365 183.903 51.441L183.903 51.4816Z" stroke="#EAF8FF" stroke-width="3"/>
<path d="M120.945 119C121.221 118.991 121.438 118.76 121.429 118.484L121.284 113.986C121.275 113.71 121.044 113.494 120.768 113.503C120.492 113.512 120.275 113.743 120.284 114.019L120.413 118.016L116.415 118.146C116.139 118.155 115.923 118.386 115.932 118.662C115.941 118.938 116.172 119.154 116.448 119.145L120.945 119ZM121.271 118.135C113.884 111.211 109.5 102.475 109.5 93H108.5C108.5 102.802 113.039 111.789 120.587 118.865L121.271 118.135ZM109.5 93C109.5 83.5249 113.884 74.7888 121.271 67.8648L120.587 67.1352C113.039 74.2108 108.5 83.1981 108.5 93H109.5Z" fill="#EAF8FF"/>
<path d="M207.055 67.0003C206.779 67.0092 206.562 67.2402 206.571 67.5162L206.716 72.0138C206.725 72.2898 206.956 72.5063 207.232 72.4974C207.508 72.4885 207.725 72.2575 207.716 71.9815L207.587 67.9836L211.585 67.8543C211.861 67.8454 212.077 67.6144 212.068 67.3384C212.059 67.0624 211.828 66.8459 211.552 66.8548L207.055 67.0003ZM206.729 67.8648C214.116 74.7888 218.5 83.5249 218.5 93H219.5C219.5 83.1981 214.961 74.2108 207.413 67.1352L206.729 67.8648ZM218.5 93C218.5 102.475 214.116 111.211 206.729 118.135L207.413 118.865C214.961 111.789 219.5 102.802 219.5 93H218.5Z" fill="#EAF8FF"/>
<path d="M98.0556 69.2318L98.0556 69.2318L98.0556 69.2304L98.0647 66.2412C98.0647 66.2411 98.0647 66.2409 98.0647 66.2407C98.0653 66.1625 98.1074 66.0896 98.1766 66.0496L100.782 64.5453C100.851 64.5054 100.936 64.5054 101.004 64.5439C101.004 64.544 101.004 64.5441 101.004 64.5442L103.597 66.0309L103.598 66.0316C103.665 66.0692 103.704 66.1373 103.703 66.2133L103.703 66.2147L103.694 69.2039C103.694 69.204 103.694 69.2042 103.694 69.2044C103.694 69.2826 103.652 69.3555 103.582 69.3954L100.977 70.8998C100.908 70.9397 100.823 70.9397 100.755 70.9011C100.755 70.9011 100.755 70.901 100.755 70.9009L98.1617 69.4142L98.1617 69.4142L98.1605 69.4135C98.0944 69.3758 98.0552 69.3078 98.0556 69.2318Z" stroke="#EAF8FF"/>
<path d="M84.0265 86.2037L84.0265 86.2023L84.0412 81.3466C84.0412 81.3464 84.0412 81.3462 84.0412 81.346C84.0428 81.1076 84.1711 80.8871 84.3791 80.767L88.6109 78.3238C88.8189 78.2036 89.074 78.2028 89.2813 78.3207C89.2814 78.3208 89.2816 78.3209 89.2818 78.321L93.4943 80.7361L93.4955 80.7368C93.7008 80.8538 93.8249 81.0686 93.8235 81.3049L93.8235 81.3063L93.8088 86.162C93.8088 86.1622 93.8088 86.1624 93.8088 86.1626C93.8072 86.401 93.679 86.6215 93.4709 86.7416L89.2391 89.1848C89.0311 89.3049 88.7761 89.3058 88.5688 89.1879C88.5686 89.1878 88.5684 89.1877 88.5683 89.1876L84.3558 86.7725L84.3545 86.7718C84.1492 86.6549 84.0252 86.44 84.0265 86.2037Z" stroke="#EAF8FF"/>
<path d="M78.5238 108.003L78.5238 108.001L78.5414 102.19C78.5414 102.19 78.5414 102.189 78.5414 102.189C78.5435 101.869 78.7158 101.573 78.995 101.411L84.0597 98.4873C84.3389 98.3261 84.6815 98.3249 84.9601 98.4834C84.9603 98.4835 84.9604 98.4836 84.9606 98.4836L90.0025 101.374L90.0037 101.375C90.2803 101.533 90.4478 101.823 90.4459 102.141L90.4459 102.142L90.4284 107.954C90.4284 107.954 90.4284 107.955 90.4284 107.955C90.4263 108.275 90.254 108.571 89.9748 108.732L84.9101 111.657C84.6309 111.818 84.2884 111.819 84.0098 111.661C84.0096 111.66 84.0094 111.66 84.0092 111.66L78.9673 108.77L78.9661 108.769C78.6895 108.611 78.522 108.321 78.5238 108.003Z" stroke="#EAF8FF"/>
<path d="M87.6994 134.892L87.6994 134.891L87.7239 126.819C87.7239 126.819 87.7239 126.819 87.7239 126.818C87.7271 126.304 88.0036 125.829 88.451 125.571L95.4847 121.51C95.932 121.252 96.4815 121.249 96.9287 121.504C96.9288 121.504 96.929 121.504 96.9292 121.504L103.932 125.519L103.933 125.52C104.378 125.773 104.648 126.241 104.645 126.754L104.645 126.755L104.621 134.827C104.621 134.827 104.621 134.827 104.621 134.827C104.618 135.342 104.341 135.817 103.894 136.075L96.86 140.136C96.4127 140.394 95.8633 140.396 95.4161 140.142C95.4159 140.142 95.4157 140.141 95.4156 140.141L88.413 136.127L88.4118 136.126C87.9666 135.872 87.6965 135.404 87.6994 134.892Z" stroke="#EAF8FF"/>
<path d="M230.289 118.34L230.289 118.34L230.289 118.341L230.28 121.33C230.28 121.33 230.28 121.331 230.28 121.331C230.279 121.409 230.237 121.482 230.168 121.522L227.563 123.026C227.493 123.066 227.409 123.066 227.341 123.028C227.341 123.028 227.341 123.027 227.341 123.027L224.747 121.541L224.746 121.54C224.68 121.502 224.641 121.434 224.641 121.358L224.641 121.357L224.65 118.368C224.65 118.368 224.65 118.367 224.65 118.367C224.651 118.289 224.693 118.216 224.762 118.176L227.368 116.672C227.437 116.632 227.521 116.632 227.589 116.67C227.59 116.67 227.59 116.671 227.59 116.671L230.183 118.157L230.183 118.157L230.184 118.158C230.25 118.196 230.29 118.264 230.289 118.34Z" stroke="#EAF8FF"/>
<path d="M244.318 101.368L244.318 101.369L244.303 106.225C244.303 106.225 244.303 106.225 244.303 106.226C244.302 106.464 244.174 106.684 243.966 106.805L239.734 109.248C239.526 109.368 239.271 109.369 239.063 109.251C239.063 109.251 239.063 109.251 239.063 109.251L234.85 106.835L234.849 106.835C234.644 106.718 234.52 106.503 234.521 106.267L234.521 106.265L234.536 101.41C234.536 101.409 234.536 101.409 234.536 101.409C234.538 101.17 234.666 100.95 234.874 100.83L239.106 98.3867C239.314 98.2666 239.569 98.2658 239.776 98.3836C239.776 98.3837 239.776 98.3838 239.776 98.3839L243.989 100.799L243.99 100.8C244.195 100.917 244.32 101.132 244.318 101.368Z" stroke="#EAF8FF"/>
<path d="M249.821 79.5687L249.821 79.5701L249.803 85.3818C249.803 85.382 249.803 85.3822 249.803 85.3824C249.801 85.7029 249.629 85.999 249.35 86.1601L244.285 89.0843C244.006 89.2454 243.663 89.2466 243.385 89.0882C243.384 89.0881 243.384 89.088 243.384 89.0879L238.342 86.1972L238.341 86.1966C238.064 86.039 237.897 85.7489 237.899 85.4305L237.899 85.4291L237.916 79.6174C237.916 79.6172 237.916 79.617 237.916 79.6168C237.918 79.2963 238.091 79.0002 238.37 78.8391L243.435 75.9149C243.714 75.7538 244.056 75.7526 244.335 75.911C244.335 75.9111 244.335 75.9112 244.336 75.9113L249.377 78.802L249.379 78.8026C249.655 78.9602 249.823 79.2503 249.821 79.5687Z" stroke="#EAF8FF"/>
<path d="M240.645 52.6795L240.645 52.6808L240.621 60.7526C240.621 60.7528 240.621 60.753 240.621 60.7531C240.618 61.2677 240.341 61.7425 239.894 62.0007L232.86 66.0617C232.413 66.3199 231.863 66.3221 231.416 66.0676C231.416 66.0675 231.416 66.0674 231.416 66.0673L224.413 62.0526L224.412 62.0519C223.967 61.7983 223.696 61.3304 223.699 60.818L223.699 60.8166L223.724 52.7449C223.724 52.7447 223.724 52.7446 223.724 52.7444C223.727 52.2298 224.004 51.755 224.451 51.4967L231.485 47.4358C231.932 47.1775 232.481 47.1754 232.929 47.4299C232.929 47.43 232.929 47.4301 232.929 47.4302L239.932 51.4449L239.933 51.4456C240.378 51.6992 240.648 52.1671 240.645 52.6795Z" stroke="#EAF8FF"/>
</g>
<defs>
<linearGradient id="paint0_linear_1194_255568" x1="148.343" y1="41.4066" x2="214.82" y2="7.30613" gradientUnits="userSpaceOnUse">
<stop stop-color="#1C282E" stop-opacity="0"/>
<stop offset="1" stop-color="#1C282E"/>
</linearGradient>
<linearGradient id="paint1_linear_1194_255568" x1="51.9704" y1="76.4913" x2="-18.6538" y2="110.079" gradientUnits="userSpaceOnUse">
<stop stop-color="#1C282E" stop-opacity="0"/>
<stop offset="1" stop-color="#1C282E"/>
</linearGradient>
<linearGradient id="paint2_linear_1194_255568" x1="218.18" y1="0.551243" x2="212.78" y2="188.772" gradientUnits="userSpaceOnUse">
<stop stop-color="#1C282E" stop-opacity="0"/>
<stop offset="1" stop-color="#0091DA"/>
</linearGradient>
<linearGradient id="paint3_linear_1194_255568" x1="336.921" y1="14.2568" x2="364.93" y2="155.67" gradientUnits="userSpaceOnUse">
<stop stop-color="#1C282E" stop-opacity="0"/>
<stop offset="1" stop-color="#1C282E"/>
</linearGradient>
<clipPath id="clip0_1194_255568">
<rect width="328" height="184" fill="white"/>
</clipPath>
</defs>
</svg>
