<svg width="328" height="184" viewBox="0 0 328 184" fill="none" xmlns="http://www.w3.org/2000/svg">
<g clip-path="url(#clip0_1194_253498)">
<rect width="328" height="184" fill="white"/>
<path opacity="0.1" d="M214.667 -38.9999L129 46.6667L152.503 70.1699L238.17 -15.4968L214.667 -38.9999Z" fill="url(#paint0_linear_1194_253498)"/>
<path opacity="0.1" d="M-1.22524 138.582L58.5117 78.845L43.6669 64.0001L-16.0701 123.737L-1.22524 138.582Z" fill="url(#paint1_linear_1194_253498)"/>
<path opacity="0.2" d="M299.864 -44.2043L56.7607 198.899L136.213 278.351L379.316 35.2475L299.864 -44.2043Z" fill="url(#paint2_linear_1194_253498)"/>
<path opacity="0.1" d="M397.596 -34.5066L154.493 208.597L204.705 258.809L447.808 15.7052L397.596 -34.5066Z" fill="url(#paint3_linear_1194_253498)"/>
<path d="M73.9359 51.7638L73.9359 51.7624L73.9617 43.2367C73.9617 43.2364 73.9617 43.2362 73.9617 43.236C73.9651 42.6825 74.2626 42.1719 74.7437 41.8941L82.1731 37.6048C82.6541 37.327 83.2451 37.3247 83.7262 37.5984C83.7264 37.5986 83.7266 37.5987 83.7268 37.5988L91.1232 41.8393L91.1244 41.84C91.6035 42.1129 91.8942 42.6165 91.891 43.1679L91.891 43.1693L91.8652 51.695C91.8652 51.6952 91.8652 51.6954 91.8652 51.6955C91.8618 52.2491 91.5643 52.7598 91.0832 53.0376L83.6538 57.3269C83.1727 57.6047 82.5816 57.607 82.1006 57.3331C82.1004 57.3331 82.1003 57.333 82.1001 57.3329L74.7037 53.0923L74.7025 53.0917C74.2234 52.8187 73.9327 52.3152 73.9359 51.7638Z" stroke="#00AAFF"/>
<path opacity="0.1" d="M-9.9263 18.2331L-9.92629 18.2317L-9.87366 0.832743C-9.87365 0.832544 -9.87365 0.832345 -9.87365 0.832147C-9.86582 -0.483136 -9.15897 -1.69547 -8.0177 -2.35439L7.14251 -11.1071C8.28379 -11.766 9.68714 -11.772 10.8301 -11.1211C10.8303 -11.121 10.8305 -11.121 10.8306 -11.1209L25.9249 -2.46698L25.9261 -2.4663C27.0671 -1.81632 27.7608 -0.61474 27.7532 0.698407L27.7532 0.699795L27.7006 18.0987C27.7006 18.0989 27.7006 18.0991 27.7006 18.0992C27.6928 19.4146 26.9859 20.6269 25.8446 21.2859L10.6844 30.0386C9.5432 30.6975 8.13995 30.7035 6.99699 30.0527C6.99676 30.0526 6.99653 30.0525 6.9963 30.0523L-8.09795 21.3985L-8.09915 21.3978C-9.24018 20.7478 -9.93391 19.5462 -9.9263 18.2331Z" stroke="#00AAFF"/>
<g filter="url(#filter0_f_1194_253498)">
<path d="M219.793 32.1825L219.808 27.2949C219.808 27.2948 219.808 27.2947 219.808 27.2945C219.81 26.9642 219.987 26.6595 220.274 26.4937L224.533 24.0348C224.82 23.8691 225.173 23.8677 225.46 24.0311C225.46 24.0312 225.46 24.0312 225.46 24.0313L229.701 26.4623L229.701 26.4626C229.987 26.6256 230.161 26.9266 230.159 27.2559L230.159 27.2566L230.144 32.1442C230.144 32.1443 230.144 32.1444 230.144 32.1444C230.142 32.4748 229.965 32.7796 229.678 32.9453L225.419 35.4043C225.132 35.57 224.779 35.5714 224.492 35.408C224.492 35.4079 224.492 35.4079 224.492 35.4078L220.251 32.9768L220.251 32.9765C219.965 32.8134 219.791 32.5125 219.793 32.1832L219.793 32.1825Z" stroke="#00AAFF" stroke-width="0.5"/>
</g>
<path d="M286 7.00003L308 -15" stroke="#0091DA" stroke-linecap="round"/>
<circle cx="282" cy="12" r="2.5" stroke="#0091DA"/>
<path d="M7 185L43 149" stroke="#0091DA" stroke-linecap="round"/>
<path d="M-4 175L65.5 105.5" stroke="#0091DA" stroke-opacity="0.1" stroke-linecap="round"/>
<path d="M203 186L225 164" stroke="#0091DA" stroke-linecap="round"/>
<path d="M233 155L255 133" stroke="#0091DA" stroke-linecap="round"/>
<circle cx="229" cy="160" r="2.5" stroke="#0091DA"/>
<path d="M98.7403 110.899L91.4167 123.572C90.7976 124.647 89.6413 125.324 88.3798 125.324H73.7559C72.4945 125.324 71.3381 124.647 70.719 123.572L63.3954 110.899C62.7764 109.813 62.7764 108.469 63.3954 107.395L70.719 94.7215C71.3381 93.6353 72.4945 92.9695 73.7559 92.9695H88.3798C89.6413 92.9695 90.7976 93.6353 91.4167 94.7215L98.7403 107.395C99.3593 108.469 99.3593 109.813 98.7403 110.899Z" fill="#8ECAEA"/>
<path d="M152.211 90.1511C152.208 88.895 151.539 87.7402 150.457 87.1153L137.782 79.7975C136.7 79.1726 135.365 79.171 134.276 79.7964L121.607 87.1158C120.518 87.7411 119.852 88.8943 119.855 90.1504L119.851 104.782C119.854 106.038 120.522 107.193 121.605 107.817L134.28 115.135C135.362 115.76 136.696 115.762 137.786 115.136L150.455 107.817C151.544 107.192 152.21 106.038 152.207 104.782L152.211 90.1511Z" fill="#00AAFF"/>
<path d="M201.341 71.3608C200.71 70.2745 199.554 69.6087 198.304 69.6087H183.668C182.419 69.6087 181.262 70.2745 180.632 71.3608L173.32 84.034C172.689 85.1203 172.689 86.4518 173.32 87.5381L180.632 100.211C181.262 101.298 182.419 101.963 183.668 101.963H198.304C199.554 101.963 200.71 101.298 201.341 100.211L208.653 87.5381C209.284 86.4518 209.284 85.1203 208.653 84.034L201.341 71.3608Z" fill="#8ECAEA"/>
<path d="M262.135 66.7903C262.132 65.5342 261.463 64.3794 260.381 63.7545L247.706 56.4368C246.624 55.8119 245.289 55.8103 244.2 56.4357L231.531 63.755C230.442 64.3804 229.776 65.5336 229.779 66.7897L229.775 81.421C229.778 82.6771 230.446 83.8318 231.529 84.4567L244.203 91.7745C245.286 92.3994 246.62 92.401 247.709 91.7756L260.378 84.4563C261.468 83.8309 262.134 82.6777 262.13 81.4216L262.135 66.7903Z" fill="#00AAFF"/>
<path d="M53.0002 136C53.0002 136.323 53.2617 136.584 53.5842 136.584C53.9068 136.584 54.1682 136.323 54.1682 136H53.0002ZM245.314 48.1711C245.085 48.3991 245.085 48.7689 245.314 48.997L249.03 52.7137C249.258 52.9417 249.628 52.9417 249.856 52.7137C250.084 52.4856 250.084 52.1158 249.856 51.8877L246.552 48.584L249.856 45.2803C250.084 45.0522 250.084 44.6824 249.856 44.4544C249.628 44.2263 249.258 44.2263 249.03 44.4544L245.314 48.1711ZM54.1682 136V89.4653H53.0002V136H54.1682ZM59.4244 84.2092H102.712V83.0411H59.4244V84.2092ZM107.968 89.4654V117.148H109.136V89.4654H107.968ZM114.392 123.572H157.668V122.404H114.392V123.572ZM164.092 117.148V66.1046H162.924V117.148H164.092ZM169.348 60.8484H212.636V59.6804H169.348V60.8484ZM217.892 66.1046V93.7871H219.06V66.1046H217.892ZM224.316 100.211H267.604V99.0433H224.316V100.211ZM274.028 93.7871V54.4242H272.86V93.7871H274.028ZM267.604 48H245.727V49.168H267.604V48ZM274.028 54.4242C274.028 50.8762 271.152 48 267.604 48V49.168C270.507 49.168 272.86 51.5213 272.86 54.4242H274.028ZM267.604 100.211C271.152 100.211 274.028 97.3351 274.028 93.7871H272.86C272.86 96.69 270.507 99.0433 267.604 99.0433V100.211ZM217.892 93.7871C217.892 97.3351 220.768 100.211 224.316 100.211V99.0433C221.413 99.0433 219.06 96.69 219.06 93.7871H217.892ZM212.636 60.8484C215.539 60.8484 217.892 63.2017 217.892 66.1046H219.06C219.06 62.5566 216.184 59.6804 212.636 59.6804V60.8484ZM164.092 66.1046C164.092 63.2017 166.446 60.8484 169.348 60.8484V59.6804C165.8 59.6804 162.924 62.5566 162.924 66.1046H164.092ZM157.668 123.572C161.216 123.572 164.092 120.696 164.092 117.148H162.924C162.924 120.051 160.571 122.404 157.668 122.404V123.572ZM107.968 117.148C107.968 120.696 110.844 123.572 114.392 123.572V122.404C111.489 122.404 109.136 120.051 109.136 117.148H107.968ZM102.712 84.2092C105.615 84.2092 107.968 86.5625 107.968 89.4654H109.136C109.136 85.9174 106.26 83.0411 102.712 83.0411V84.2092ZM54.1682 89.4653C54.1682 86.5624 56.5215 84.2092 59.4244 84.2092V83.0411C55.8764 83.0411 53.0002 85.9174 53.0002 89.4653H54.1682Z" fill="#0091DA"/>
</g>
<defs>
<filter id="filter0_f_1194_253498" x="217.543" y="21.6595" width="14.8665" height="16.12" filterUnits="userSpaceOnUse" color-interpolation-filters="sRGB">
<feFlood flood-opacity="0" result="BackgroundImageFix"/>
<feBlend mode="normal" in="SourceGraphic" in2="BackgroundImageFix" result="shape"/>
<feGaussianBlur stdDeviation="1" result="effect1_foregroundBlur_1194_253498"/>
</filter>
<linearGradient id="paint0_linear_1194_253498" x1="148.343" y1="41.4066" x2="214.82" y2="7.30615" gradientUnits="userSpaceOnUse">
<stop stop-color="#0091DA" stop-opacity="0"/>
<stop offset="1" stop-color="#0091DA"/>
</linearGradient>
<linearGradient id="paint1_linear_1194_253498" x1="51.9704" y1="76.4914" x2="-18.6538" y2="110.079" gradientUnits="userSpaceOnUse">
<stop stop-color="#0091DA" stop-opacity="0"/>
<stop offset="1" stop-color="#0091DA"/>
</linearGradient>
<linearGradient id="paint2_linear_1194_253498" x1="218.18" y1="0.551273" x2="212.78" y2="188.772" gradientUnits="userSpaceOnUse">
<stop stop-color="#0091DA" stop-opacity="0"/>
<stop offset="1" stop-color="#0091DA"/>
</linearGradient>
<linearGradient id="paint3_linear_1194_253498" x1="336.921" y1="14.2568" x2="364.93" y2="155.67" gradientUnits="userSpaceOnUse">
<stop stop-color="#0091DA" stop-opacity="0"/>
<stop offset="1" stop-color="#0091DA"/>
</linearGradient>
<clipPath id="clip0_1194_253498">
<rect width="328" height="184" fill="white"/>
</clipPath>
</defs>
</svg>
